<svg width="338" height="281" viewBox="0 0 338 281" fill="none" xmlns="http://www.w3.org/2000/svg">
<path d="M280.183 185.233C280.783 189.112 287.999 201.75 290.661 208.861C290.045 207.935 289.33 206.842 288.623 205.833C288.068 204.657 287.574 203.343 287.018 202.333C286.159 200.769 285.254 199.241 284.273 197.788C282.77 195.48 281.05 193.395 279.148 191.575C276.95 189.39 274.276 188.035 271.453 187.677C270.693 187.613 266.351 187.214 267.362 189.344C267.548 189.67 267.796 189.937 268.085 190.122C270.754 192.112 273.704 193.177 276.517 194.751C280.73 197.149 286.296 203.537 288.615 206.315L289.794 208.212C285.65 203.509 278.882 200.806 276.563 202.13C273.696 203.722 279.863 205.352 285.095 207C287.436 207.648 289.612 208.979 291.436 210.879C292.44 212.527 293.573 214.379 294.706 216.277C294.843 216.573 294.98 216.851 295.117 217.128C294.313 215.992 293.405 214.973 292.41 214.092C289.733 211.86 282.365 210.509 281.589 213.527C280.814 216.545 286.038 215.166 290.531 216.036C292.964 216.583 295.199 218.028 296.934 220.174L297.231 220.563C297.74 221.489 298.227 222.295 298.683 223.109C299.755 225.017 300.774 226.813 301.724 228.544C300.213 226.132 298.419 224.001 296.402 222.22C292.478 218.943 287.239 218.249 285.33 220.008C283.422 221.767 292.227 223.359 296.554 225.211C299.047 226.366 301.256 228.278 302.971 230.766C304.393 233.219 305.8 235.608 307.313 238.108C304.902 235.508 302.321 233.152 299.595 231.062C295.162 227.526 290.569 228.007 289.345 230.136C288.121 232.266 291.87 232.405 298.843 234.229C302.52 235.178 305.928 237.285 308.728 240.339L310.727 243.58C311.488 244.848 312.438 246.144 313.404 247.422C312.225 246.774 310.484 245.848 308.553 244.839C306.394 243.759 304.307 242.477 302.31 241.006C300.029 239.265 296.926 237.423 294.197 238.904C293.989 238.986 293.799 239.121 293.639 239.3C293.478 239.479 293.351 239.698 293.266 239.942C293.181 240.186 293.14 240.449 293.146 240.714C293.151 240.979 293.204 241.24 293.299 241.478C293.601 242.148 294.073 242.681 294.645 242.996C297.687 245.024 301.435 245.561 304.758 246.459C307.808 247.29 310.899 247.874 314.012 248.209C314.917 249.366 315.86 250.505 316.795 251.579L315.396 251.894C313.746 252.273 305.701 249.561 301.709 248.959C297.717 248.357 294.485 251.551 298.82 253.403C303.154 255.254 313.944 252.607 313.944 252.607L317.062 251.894C320.765 256.143 324.194 259.393 324.194 259.393L325.639 258.208C325.639 258.208 322.65 257.208 317.632 251.431C317.514 250.288 317.499 249.133 317.586 247.987C317.906 241.506 322.293 234.192 318.924 227.924C318.111 226.405 316.354 225.572 315.381 227.239C314.681 228.442 314.72 230.47 314.94 231.868C315.7 236.451 316.879 240.515 316.59 245.292C316.59 245.505 316.59 248.709 316.773 250.449C316.088 249.625 315.381 248.727 314.636 247.737C314.022 245.936 313.529 244.079 313.161 242.182C312.195 237.136 313.161 231.784 312.469 226.646C312.248 225.072 310.233 221.341 309.245 224.581C308.811 226.016 309.366 228.738 309.442 230.266C309.671 234.59 310.02 239.108 311.419 243.144L310.819 242.219C309.615 238.191 308.679 234.051 308.02 229.84C306.948 222.887 307.131 216.971 305.291 215.119C303.451 213.268 303.549 221.008 305.291 229.146C306.089 232.855 307.386 236.378 309.131 239.571C307.169 236.515 305.215 233.377 303.352 230.312C301.622 226.975 300.543 223.2 300.196 219.276C299.869 213.101 299.565 208.055 297.223 204.991C294.881 201.926 294.774 204.222 296.622 211.194C297.892 215.971 299.413 222.396 301.185 226.72C299.732 224.322 298.371 222.045 297.147 219.98C296.333 217.841 294.356 212.314 293.74 207.537C292.98 201.463 292.007 198.278 290.699 199.889C289.794 201.019 291.459 208.388 293.885 214.388C292.858 212.619 292.09 211.259 291.604 210.453C291.401 210.083 291.173 209.694 290.919 209.286C289.74 204.384 288.305 199.579 286.623 194.899C283.68 186.714 279.536 181.002 280.183 185.233Z" fill="#407BFF"/>
<g opacity="0.6">
<path d="M280.183 185.233C280.783 189.112 287.999 201.75 290.661 208.861C290.045 207.935 289.33 206.842 288.623 205.833C288.068 204.657 287.574 203.343 287.018 202.333C286.159 200.769 285.254 199.241 284.273 197.788C282.77 195.48 281.05 193.395 279.148 191.575C276.95 189.39 274.276 188.035 271.453 187.677C270.693 187.613 266.351 187.214 267.362 189.344C267.548 189.67 267.796 189.937 268.085 190.122C270.754 192.112 273.704 193.177 276.517 194.751C280.73 197.149 286.296 203.537 288.615 206.315L289.794 208.212C285.65 203.509 278.882 200.806 276.563 202.13C273.696 203.722 279.863 205.352 285.095 207C287.436 207.648 289.612 208.979 291.436 210.879C292.44 212.527 293.573 214.379 294.706 216.277C294.843 216.573 294.98 216.851 295.117 217.128C294.313 215.992 293.405 214.973 292.41 214.092C289.733 211.86 282.365 210.509 281.589 213.527C280.814 216.545 286.038 215.166 290.531 216.036C292.964 216.583 295.199 218.028 296.934 220.174L297.231 220.563C297.74 221.489 298.227 222.295 298.683 223.109C299.755 225.017 300.774 226.813 301.724 228.544C300.213 226.132 298.419 224.001 296.402 222.22C292.478 218.943 287.239 218.249 285.33 220.008C283.422 221.767 292.227 223.359 296.554 225.211C299.047 226.366 301.256 228.278 302.971 230.766C304.393 233.219 305.8 235.608 307.313 238.108C304.902 235.508 302.321 233.152 299.595 231.062C295.162 227.526 290.569 228.007 289.345 230.136C288.121 232.266 291.87 232.405 298.843 234.229C302.52 235.178 305.928 237.285 308.728 240.339L310.727 243.58C311.488 244.848 312.438 246.144 313.404 247.422C312.225 246.774 310.484 245.848 308.553 244.839C306.394 243.759 304.307 242.477 302.31 241.006C300.029 239.265 296.926 237.423 294.197 238.904C293.989 238.986 293.799 239.121 293.639 239.3C293.478 239.479 293.351 239.698 293.266 239.942C293.181 240.186 293.14 240.449 293.146 240.714C293.151 240.979 293.204 241.24 293.299 241.478C293.601 242.148 294.073 242.681 294.645 242.996C297.687 245.024 301.435 245.561 304.758 246.459C307.808 247.29 310.899 247.874 314.012 248.209C314.917 249.366 315.86 250.505 316.795 251.579L315.396 251.894C313.746 252.273 305.701 249.561 301.709 248.959C297.717 248.357 294.485 251.551 298.82 253.403C303.154 255.254 313.944 252.607 313.944 252.607L317.062 251.894C320.765 256.143 324.194 259.393 324.194 259.393L325.639 258.208C325.639 258.208 322.65 257.208 317.632 251.431C317.514 250.288 317.499 249.133 317.586 247.987C317.906 241.506 322.293 234.192 318.924 227.924C318.111 226.405 316.354 225.572 315.381 227.239C314.681 228.442 314.72 230.47 314.94 231.868C315.7 236.451 316.879 240.515 316.59 245.292C316.59 245.505 316.59 248.709 316.773 250.449C316.088 249.625 315.381 248.727 314.636 247.737C314.022 245.936 313.529 244.079 313.161 242.182C312.195 237.136 313.161 231.784 312.469 226.646C312.248 225.072 310.233 221.341 309.245 224.581C308.811 226.016 309.366 228.738 309.442 230.266C309.671 234.59 310.02 239.108 311.419 243.144L310.819 242.219C309.615 238.191 308.679 234.051 308.02 229.84C306.948 222.887 307.131 216.971 305.291 215.119C303.451 213.268 303.549 221.008 305.291 229.146C306.089 232.855 307.386 236.378 309.131 239.571C307.169 236.515 305.215 233.377 303.352 230.312C301.622 226.975 300.543 223.2 300.196 219.276C299.869 213.101 299.565 208.055 297.223 204.991C294.881 201.926 294.774 204.222 296.622 211.194C297.892 215.971 299.413 222.396 301.185 226.72C299.732 224.322 298.371 222.045 297.147 219.98C296.333 217.841 294.356 212.314 293.74 207.537C292.98 201.463 292.007 198.278 290.699 199.889C289.794 201.019 291.459 208.388 293.885 214.388C292.858 212.619 292.09 211.259 291.604 210.453C291.401 210.083 291.173 209.694 290.919 209.286C289.74 204.384 288.305 199.579 286.623 194.899C283.68 186.714 279.536 181.002 280.183 185.233Z" fill="white"/>
</g>
<path d="M334.079 167.188C332.315 170.494 330.383 185.705 328.285 193.112C328.391 191.89 328.467 190.538 328.52 189.214C328.786 187.9 329.174 186.539 329.349 185.326C329.608 183.474 329.813 181.622 329.935 179.771C330.154 176.836 330.088 173.881 329.737 170.966C329.376 167.547 328.205 164.33 326.368 161.707C325.889 161.05 322.939 157.078 322.468 159.476C322.416 159.867 322.444 160.268 322.551 160.643C323.35 164.346 324.886 167.577 326.019 171.105C327.707 176.382 328.117 185.677 328.224 189.622C328.163 190.26 328.087 191.066 328.003 191.982C327.669 185.103 324.277 177.475 321.867 176.465C318.886 175.225 322.43 181.576 325.289 187.159C326.614 189.593 327.436 192.382 327.684 195.288C327.479 197.334 327.243 199.621 326.992 201.945C326.924 202.278 326.863 202.593 326.809 202.917C326.869 201.417 326.787 199.913 326.566 198.436C325.889 194.575 321.319 187.409 319.046 188.946C316.772 190.483 321.327 193.871 324.102 198.269C325.553 200.709 326.35 203.635 326.384 206.648C326.384 206.824 326.384 207 326.384 207.176C326.254 208.24 326.125 209.268 325.996 210.24C325.692 212.518 325.418 214.666 325.152 216.721C325.423 213.709 325.336 210.666 324.893 207.685C323.897 202.019 320.498 197.112 318.118 196.788C315.738 196.464 321.213 205 323.304 209.981C324.463 212.9 324.987 216.133 324.825 219.369C324.467 222.332 324.133 225.248 323.814 228.331C323.536 224.421 323.002 220.545 322.217 216.739C321.008 210.462 317.403 206.944 315.29 207.481C313.176 208.018 315.837 211.24 319.852 218.415C321.968 222.186 323.237 226.565 323.532 231.118C323.403 232.414 323.274 233.747 323.144 235.136C323 236.719 322.924 238.432 322.909 240.173C322.414 238.71 321.684 236.571 320.856 234.229C319.905 231.633 319.119 228.953 318.506 226.211C317.822 223.017 316.635 219.091 313.822 217.878C313.626 217.764 313.412 217.702 313.194 217.697C312.976 217.692 312.761 217.744 312.561 217.849C312.361 217.955 312.183 218.111 312.037 218.308C311.891 218.504 311.781 218.737 311.716 218.989C311.553 219.728 311.591 220.51 311.822 221.221C312.856 225.22 315.29 228.775 317.183 232.22C318.926 235.379 320.836 238.398 322.901 241.256C322.901 242.857 322.939 244.468 323.008 246.033L321.814 245.107C320.399 243.996 316.118 235.275 313.571 231.497C311.024 227.72 306.872 227.303 308.955 232.284C311.039 237.265 320.361 244.404 320.361 244.404L323.023 246.515C323.304 252.699 323.943 257.93 323.943 257.93L325.661 258.282C325.661 258.282 324.064 255.051 323.699 246.663C324.262 245.733 324.907 244.882 325.623 244.126C329.516 239.7 336.839 238.089 337.949 230.71C338.215 228.933 337.425 226.859 335.767 227.248C334.581 227.526 333.486 229.035 332.847 230.21C330.786 234.145 329.349 238.099 326.444 241.321C326.315 241.469 324.513 243.802 323.654 245.209C323.654 244.043 323.616 242.793 323.654 241.45C324.232 239.627 324.929 237.862 325.737 236.173C327.897 231.71 331.63 228.655 334.033 224.341C334.794 223.017 335.417 218.628 332.87 220.147C331.737 220.822 330.589 223.257 329.828 224.424C327.547 227.748 325.266 231.321 323.958 235.414C323.958 235.025 324.019 234.636 324.042 234.247C325.454 230.32 327.122 226.537 329.03 222.933C332.193 216.999 335.668 212.86 335.387 209.972C335.105 207.083 330.824 212.749 327.425 220.156C325.905 223.514 324.851 227.155 324.308 230.933C324.62 227.063 324.977 223.156 325.342 219.397C325.975 215.526 327.334 211.886 329.311 208.759C332.566 204.009 335.204 200.102 335.242 195.917C335.28 191.732 333.904 193.297 331.296 199.898C329.509 204.426 326.977 210.36 325.791 214.962C326.102 212.008 326.406 209.212 326.695 206.694C327.311 204.463 328.977 198.797 331.258 194.825C334.132 189.77 335.242 186.65 333.379 186.733C332.087 186.789 329.091 193.492 327.479 199.898C327.737 197.76 327.95 196.13 328.087 195.167C328.148 194.735 328.201 194.263 328.247 193.751C330.157 189.181 331.828 184.468 333.25 179.641C335.774 171.188 335.995 163.596 334.079 167.188Z" fill="#407BFF"/>
<g opacity="0.6">
<path d="M334.079 167.188C332.315 170.494 330.383 185.705 328.285 193.112C328.391 191.89 328.467 190.538 328.52 189.214C328.786 187.9 329.174 186.539 329.349 185.326C329.608 183.474 329.813 181.622 329.935 179.771C330.154 176.836 330.088 173.881 329.737 170.966C329.376 167.547 328.205 164.33 326.368 161.707C325.889 161.05 322.939 157.078 322.468 159.476C322.416 159.867 322.444 160.268 322.551 160.643C323.35 164.346 324.886 167.577 326.019 171.105C327.707 176.382 328.117 185.677 328.224 189.622C328.163 190.26 328.087 191.066 328.003 191.982C327.669 185.103 324.277 177.475 321.867 176.465C318.886 175.225 322.43 181.576 325.289 187.159C326.614 189.593 327.436 192.382 327.684 195.288C327.479 197.334 327.243 199.621 326.992 201.945C326.924 202.278 326.863 202.593 326.809 202.917C326.869 201.417 326.787 199.913 326.566 198.436C325.889 194.575 321.319 187.409 319.046 188.946C316.772 190.483 321.327 193.871 324.102 198.269C325.553 200.709 326.35 203.635 326.384 206.648C326.384 206.824 326.384 207 326.384 207.176C326.254 208.24 326.125 209.268 325.996 210.24C325.692 212.518 325.418 214.666 325.152 216.721C325.423 213.709 325.336 210.666 324.893 207.685C323.897 202.019 320.498 197.112 318.118 196.788C315.738 196.464 321.213 205 323.304 209.981C324.463 212.9 324.987 216.133 324.825 219.369C324.467 222.332 324.133 225.248 323.814 228.331C323.536 224.421 323.002 220.545 322.217 216.739C321.008 210.462 317.403 206.944 315.29 207.481C313.176 208.018 315.837 211.24 319.852 218.415C321.968 222.186 323.237 226.565 323.532 231.118C323.403 232.414 323.274 233.747 323.144 235.136C323 236.719 322.924 238.432 322.909 240.173C322.414 238.71 321.684 236.571 320.856 234.229C319.905 231.633 319.119 228.953 318.506 226.211C317.822 223.017 316.635 219.091 313.822 217.878C313.626 217.764 313.412 217.702 313.194 217.697C312.976 217.692 312.761 217.744 312.561 217.849C312.361 217.955 312.183 218.111 312.037 218.308C311.891 218.504 311.781 218.737 311.716 218.989C311.553 219.728 311.591 220.51 311.822 221.221C312.856 225.22 315.29 228.775 317.183 232.22C318.926 235.379 320.836 238.398 322.901 241.256C322.901 242.857 322.939 244.468 323.008 246.033L321.814 245.107C320.399 243.996 316.118 235.275 313.571 231.497C311.024 227.72 306.872 227.303 308.955 232.284C311.039 237.265 320.361 244.404 320.361 244.404L323.023 246.515C323.304 252.699 323.943 257.93 323.943 257.93L325.661 258.282C325.661 258.282 324.064 255.051 323.699 246.663C324.262 245.733 324.907 244.882 325.623 244.126C329.516 239.7 336.839 238.089 337.949 230.71C338.215 228.933 337.425 226.859 335.767 227.248C334.581 227.526 333.486 229.035 332.847 230.21C330.786 234.145 329.349 238.099 326.444 241.321C326.315 241.469 324.513 243.802 323.654 245.209C323.654 244.043 323.616 242.793 323.654 241.45C324.232 239.627 324.929 237.862 325.737 236.173C327.897 231.71 331.63 228.655 334.033 224.341C334.794 223.017 335.417 218.628 332.87 220.147C331.737 220.822 330.589 223.257 329.828 224.424C327.547 227.748 325.266 231.321 323.958 235.414C323.958 235.025 324.019 234.636 324.042 234.247C325.454 230.32 327.122 226.537 329.03 222.933C332.193 216.999 335.668 212.86 335.387 209.972C335.105 207.083 330.824 212.749 327.425 220.156C325.905 223.514 324.851 227.155 324.308 230.933C324.62 227.063 324.977 223.156 325.342 219.397C325.975 215.526 327.334 211.886 329.311 208.759C332.566 204.009 335.204 200.102 335.242 195.917C335.28 191.732 333.904 193.297 331.296 199.898C329.509 204.426 326.977 210.36 325.791 214.962C326.102 212.008 326.406 209.212 326.695 206.694C327.311 204.463 328.977 198.797 331.258 194.825C334.132 189.77 335.242 186.65 333.379 186.733C332.087 186.789 329.091 193.492 327.479 199.898C327.737 197.76 327.95 196.13 328.087 195.167C328.148 194.735 328.201 194.263 328.247 193.751C330.157 189.181 331.828 184.468 333.25 179.641C335.774 171.188 335.995 163.596 334.079 167.188Z" fill="white"/>
</g>
<path d="M9.76443 200.445C10.1218 203.352 15.2088 213.045 17.0186 218.434C16.5851 217.684 16.0833 216.888 15.5738 216.11C15.186 215.184 14.8514 214.212 14.456 213.434C13.8553 212.24 13.2166 211.073 12.5246 209.953C11.4549 208.177 10.2171 206.561 8.83675 205.139C7.25062 203.433 5.28944 202.329 3.19464 201.963C2.65477 201.889 -0.607312 201.435 0.099852 203.055C0.227439 203.31 0.408611 203.517 0.624521 203.657C2.57112 205.24 4.73824 206.138 6.8065 207.444C9.89369 209.333 13.8857 214.332 15.5586 216.452L16.3874 217.906C13.4143 214.249 8.42614 212.018 6.66203 212.897C4.48731 213.99 9.04966 215.425 12.9124 216.841C14.6444 217.4 16.2372 218.468 17.5508 219.952C18.2656 221.211 19.0716 222.646 19.832 224.1C19.9233 224.322 20.0221 224.535 20.121 224.748C19.5503 223.871 18.897 223.078 18.1744 222.387C16.2278 220.628 10.7605 219.359 10.1066 221.582C9.45266 223.804 13.3915 222.961 16.722 223.767C18.5251 224.262 20.16 225.419 21.406 227.081C21.4745 227.192 21.5429 227.285 21.6189 227.387C21.9763 228.053 22.3185 228.711 22.6379 229.331C23.3982 230.794 24.1054 232.164 24.8126 233.488C23.7412 231.645 22.4612 229.996 21.0106 228.59C18.1591 226.007 14.2583 225.303 12.7984 226.553C11.3384 227.803 17.8626 229.331 21.0486 230.831C22.8807 231.771 24.4852 233.266 25.7098 235.173C26.7059 237.025 27.7021 238.876 28.7514 240.802C27.0131 238.768 25.1414 236.91 23.1549 235.247C19.9309 232.469 16.4939 232.645 15.551 234.219C14.6081 235.793 17.3835 236.006 22.539 237.608C25.255 238.448 27.743 240.14 29.7551 242.515C30.2037 243.32 30.6752 244.144 31.1694 245.005C31.7621 246.028 32.3966 247.014 33.0704 247.959C32.2036 247.44 30.9337 246.681 29.5118 245.866C27.9288 244.982 26.4036 243.951 24.9494 242.783C23.269 241.404 21.0182 239.922 18.9424 240.932C18.7855 240.979 18.6389 241.067 18.5127 241.19C18.3865 241.313 18.2838 241.468 18.2115 241.644C18.1392 241.82 18.0991 242.013 18.094 242.21C18.0889 242.406 18.1189 242.602 18.182 242.783C18.399 243.329 18.7606 243.769 19.2085 244.033C21.4136 245.653 24.2119 246.181 26.6755 246.968C28.9249 247.693 31.211 248.237 33.5191 248.598C34.173 249.523 34.8497 250.375 35.5189 251.208L34.4695 251.403C33.2225 251.625 27.2914 249.32 24.3335 248.718C21.3756 248.116 18.8815 250.403 22.0524 251.94C25.2232 253.477 33.3518 251.875 33.3518 251.875L35.7014 251.458C38.3627 254.754 40.8416 257.3 40.8416 257.3L41.9442 256.467C41.9442 256.467 39.7467 255.615 36.1348 251.134C36.0758 250.277 36.0937 249.414 36.188 248.561C36.5758 243.737 39.99 238.432 37.6556 233.636C37.0853 232.479 35.8002 231.784 35.0246 233.006C34.5439 234.043 34.3898 235.258 34.5912 236.423C35.0322 239.867 35.8306 242.904 35.5113 246.487C35.5113 246.653 35.4352 249.042 35.5113 250.338C35.0246 249.709 34.5152 249.014 33.9905 248.246C33.5761 246.875 33.2506 245.466 33.0172 244.033C32.4241 240.237 33.2757 236.275 32.8727 232.423C32.7435 231.238 31.3519 228.386 30.5155 230.766C30.1581 231.821 30.5155 233.877 30.5155 235.015C30.461 238.297 30.8568 241.567 31.6865 244.691C31.542 244.459 31.3976 244.228 31.2607 243.987C30.4709 240.953 29.881 237.848 29.4966 234.701C28.8655 229.479 29.1392 225.072 27.8085 223.591C26.4778 222.109 26.3714 227.933 27.4587 234.053C27.9709 236.851 28.8571 239.529 30.0821 241.978C28.6906 239.617 27.3067 237.219 25.9912 234.886C24.7782 232.341 24.0627 229.489 23.9001 226.553C23.8012 221.924 23.6872 218.165 22.0143 215.795C20.3415 213.425 20.2046 215.128 21.4212 220.424C22.2577 224.035 23.2386 228.877 24.4628 232.173C23.4439 230.321 22.4782 228.581 21.6189 226.998C20.5355 223.992 19.769 220.831 19.3378 217.591C18.9043 213.036 18.2656 210.62 17.2467 211.786C16.5471 212.592 17.5889 218.147 19.2845 222.711C18.5241 221.35 18.0147 220.313 17.7029 219.693C17.561 219.415 17.4013 219.106 17.2239 218.767C16.4586 215.059 15.5037 211.414 14.3648 207.851C12.365 201.62 9.38423 197.232 9.76443 200.445Z" fill="#407BFF"/>
<path opacity="0.6" d="M9.76443 200.445C10.1218 203.352 15.2088 213.045 17.0186 218.434C16.5851 217.684 16.0833 216.888 15.5738 216.11C15.186 215.184 14.8514 214.212 14.456 213.434C13.8553 212.24 13.2166 211.073 12.5246 209.953C11.4549 208.177 10.2171 206.561 8.83675 205.139C7.25062 203.433 5.28944 202.329 3.19464 201.963C2.65477 201.889 -0.607312 201.435 0.099852 203.055C0.227439 203.31 0.408611 203.517 0.624521 203.657C2.57112 205.24 4.73824 206.138 6.8065 207.444C9.89369 209.333 13.8857 214.332 15.5586 216.452L16.3874 217.906C13.4143 214.249 8.42614 212.018 6.66203 212.897C4.48731 213.99 9.04966 215.425 12.9124 216.841C14.6444 217.4 16.2372 218.468 17.5508 219.952C18.2656 221.211 19.0716 222.646 19.832 224.1C19.9233 224.322 20.0221 224.535 20.121 224.748C19.5503 223.871 18.897 223.078 18.1744 222.387C16.2278 220.628 10.7605 219.359 10.1066 221.582C9.45266 223.804 13.3915 222.961 16.722 223.767C18.5251 224.262 20.16 225.419 21.406 227.081C21.4745 227.192 21.5429 227.285 21.6189 227.387C21.9763 228.053 22.3185 228.711 22.6379 229.331C23.3982 230.794 24.1054 232.164 24.8126 233.488C23.7412 231.645 22.4612 229.996 21.0106 228.59C18.1591 226.007 14.2583 225.303 12.7984 226.553C11.3384 227.803 17.8626 229.331 21.0486 230.831C22.8807 231.771 24.4852 233.266 25.7098 235.173C26.7059 237.025 27.7021 238.876 28.7514 240.802C27.0131 238.768 25.1414 236.91 23.1549 235.247C19.9309 232.469 16.4939 232.645 15.551 234.219C14.6081 235.793 17.3835 236.006 22.539 237.608C25.255 238.448 27.743 240.14 29.7551 242.515C30.2037 243.32 30.6752 244.144 31.1694 245.005C31.7621 246.028 32.3966 247.014 33.0704 247.959C32.2036 247.44 30.9337 246.681 29.5118 245.866C27.9288 244.982 26.4036 243.951 24.9494 242.783C23.269 241.404 21.0182 239.922 18.9424 240.932C18.7855 240.979 18.6389 241.067 18.5127 241.19C18.3865 241.313 18.2838 241.468 18.2115 241.644C18.1392 241.82 18.0991 242.013 18.094 242.21C18.0889 242.406 18.1189 242.602 18.182 242.783C18.399 243.329 18.7606 243.769 19.2085 244.033C21.4136 245.653 24.2119 246.181 26.6755 246.968C28.9249 247.693 31.211 248.237 33.5191 248.598C34.173 249.523 34.8497 250.375 35.5189 251.208L34.4695 251.403C33.2225 251.625 27.2914 249.32 24.3335 248.718C21.3756 248.116 18.8815 250.403 22.0524 251.94C25.2232 253.477 33.3518 251.875 33.3518 251.875L35.7014 251.458C38.3627 254.754 40.8416 257.3 40.8416 257.3L41.9442 256.467C41.9442 256.467 39.7467 255.615 36.1348 251.134C36.0758 250.277 36.0937 249.414 36.188 248.561C36.5758 243.737 39.99 238.432 37.6556 233.636C37.0853 232.479 35.8002 231.784 35.0246 233.006C34.5439 234.043 34.3898 235.258 34.5912 236.423C35.0322 239.867 35.8306 242.904 35.5113 246.487C35.5113 246.653 35.4352 249.042 35.5113 250.338C35.0246 249.709 34.5152 249.014 33.9905 248.246C33.5761 246.875 33.2506 245.466 33.0172 244.033C32.4241 240.237 33.2757 236.275 32.8727 232.423C32.7435 231.238 31.3519 228.386 30.5155 230.766C30.1581 231.821 30.5155 233.877 30.5155 235.015C30.461 238.297 30.8568 241.567 31.6865 244.691C31.542 244.459 31.3976 244.228 31.2607 243.987C30.4709 240.953 29.881 237.848 29.4966 234.701C28.8655 229.479 29.1392 225.072 27.8085 223.591C26.4778 222.109 26.3714 227.933 27.4587 234.053C27.9709 236.851 28.8571 239.529 30.0821 241.978C28.6906 239.617 27.3067 237.219 25.9912 234.886C24.7782 232.341 24.0627 229.489 23.9001 226.553C23.8012 221.924 23.6872 218.165 22.0143 215.795C20.3415 213.425 20.2046 215.128 21.4212 220.424C22.2577 224.035 23.2386 228.877 24.4628 232.173C23.4439 230.321 22.4782 228.581 21.6189 226.998C20.5355 223.992 19.769 220.831 19.3378 217.591C18.9043 213.036 18.2656 210.62 17.2467 211.786C16.5471 212.592 17.5889 218.147 19.2845 222.711C18.5241 221.35 18.0147 220.313 17.7029 219.693C17.561 219.415 17.4013 219.106 17.2239 218.767C16.4586 215.059 15.5037 211.414 14.3648 207.851C12.365 201.62 9.38423 197.232 9.76443 200.445Z" fill="white"/>
<path d="M64.8323 198.149C62.8021 199.741 57.6542 209.379 54.3693 213.619C54.7495 212.823 55.1297 211.934 55.5099 211.055C56.0194 210.249 56.6277 209.472 57.0307 208.712C57.677 207.546 58.2853 206.351 58.8404 205.12C59.7249 203.205 60.4216 201.169 60.9163 199.056C61.5431 196.592 61.559 193.957 60.9619 191.482C60.8022 190.853 59.7909 187.048 58.8708 188.511C58.7345 188.755 58.6533 189.04 58.6351 189.335C58.2473 192.112 58.4754 194.89 58.3538 197.75C58.1789 201.972 56.1182 208.453 55.1905 211.194C54.9928 211.601 54.7419 212.119 54.4302 212.712C55.9509 207.907 55.5479 201.454 54.164 199.861C52.4455 197.899 53.2592 203.565 53.799 208.416C54.0884 210.571 53.9449 212.778 53.3808 214.851C52.7269 216.156 51.9893 217.628 51.2365 219.119L50.8639 219.711C51.3123 218.719 51.662 217.666 51.9057 216.573C52.4151 213.693 51.1453 207.111 49.1759 207.314C47.2064 207.518 49.5028 211.518 50.2708 215.545C50.6503 217.749 50.459 220.043 49.7233 222.109L49.5865 222.47C49.2291 223.146 48.8869 223.794 48.5523 224.405C47.7919 225.85 47.0315 227.183 46.332 228.525C47.2743 226.579 47.9811 224.477 48.4307 222.285C49.1911 218.054 48.1037 213.443 46.5677 212.332C45.0317 211.221 46.5677 219.082 46.773 223.248C46.8252 225.669 46.3671 228.066 45.4423 230.21C44.4538 232.062 43.4957 233.914 42.4996 235.932C43.2873 233.163 43.8899 230.32 44.3017 227.433C45.0621 222.711 43.4957 218.971 41.9141 218.554C40.3325 218.137 41.3362 221.332 42.2639 227.701C42.7566 231.06 42.5181 234.517 41.5719 237.728C41.1537 238.562 40.7355 239.423 40.2945 240.321C39.8535 241.219 39.3212 242.478 38.8649 243.663C38.8649 242.478 38.941 240.756 38.9638 238.849C38.9734 236.725 39.1132 234.605 39.382 232.507C39.7242 230.081 39.9067 226.951 38.2947 225.1C38.1905 224.946 38.0598 224.823 37.9119 224.738C37.7641 224.654 37.6026 224.61 37.4392 224.61C37.2758 224.61 37.1144 224.654 36.9665 224.738C36.8186 224.823 36.6879 224.946 36.5838 225.1C36.286 225.539 36.1151 226.086 36.0971 226.655C35.793 229.775 36.5534 233.136 36.9716 236.154C37.363 238.972 37.904 241.755 38.5912 244.487C38.1882 245.57 37.8308 246.69 37.4582 247.774L36.8803 246.69C36.2036 245.403 35.4812 237.867 34.7056 234.34C33.93 230.812 31.1926 228.988 31.3599 233.155C31.5272 237.321 36.0743 245.672 36.0743 245.672L37.3594 248.098C35.9907 252.403 35.0782 256.208 35.0782 256.208L36.1503 257.088C36.1503 257.088 35.8842 254.31 37.7472 248.45C38.3733 247.988 39.042 247.618 39.7394 247.348C43.5414 245.792 48.8641 247.422 51.5103 242.82C52.1414 241.709 52.1262 240.043 50.9019 239.645C49.9271 239.534 48.9529 239.864 48.1645 240.571C45.7693 242.478 43.7999 244.635 41.0092 245.737C40.88 245.792 39.0703 246.709 38.1274 247.338C38.4011 246.542 38.7129 245.681 39.0703 244.783C39.9203 243.766 40.8385 242.837 41.8153 242.006C44.4082 239.774 47.7235 239.089 50.4457 237.043C51.2745 236.423 52.8257 233.673 50.7118 233.756C49.769 233.756 48.3774 235.025 47.541 235.525C45.0618 236.817 42.7772 238.603 40.7811 240.811C40.8952 240.561 41.0093 240.302 41.1309 240.052C43.0695 237.891 45.1469 235.922 47.3433 234.164C50.9932 231.312 54.3997 229.794 54.9472 227.683C55.4947 225.572 51.1453 227.877 46.9783 231.618C45.0945 233.336 43.4577 235.423 42.1346 237.793C43.3208 235.275 44.5527 232.747 45.7465 230.331C47.1609 227.941 49.0082 225.98 51.1453 224.6C54.567 222.581 57.3425 220.896 58.4222 218.119C59.502 215.341 58.1713 215.841 54.7343 219.36C52.3771 221.776 49.1606 224.859 47.1912 227.553C48.1493 225.702 49.0618 223.85 49.8906 222.267C51.6889 219.836 53.7329 217.693 55.9738 215.888C59.2054 213.527 60.749 211.814 59.4563 211.175C58.5591 210.731 54.8332 214.175 52.1186 217.934L53.723 214.943C53.8751 214.666 54.0348 214.36 54.1944 214.017C56.6432 211.639 58.9669 209.075 61.152 206.342C64.992 201.5 67.0527 196.417 64.8323 198.149Z" fill="#407BFF"/>
<path opacity="0.6" d="M64.8323 198.149C62.8021 199.741 57.6542 209.379 54.3693 213.619C54.7495 212.823 55.1297 211.934 55.5099 211.055C56.0194 210.249 56.6277 209.472 57.0307 208.712C57.677 207.546 58.2853 206.351 58.8404 205.12C59.7249 203.205 60.4216 201.169 60.9163 199.056C61.5431 196.592 61.559 193.957 60.9619 191.482C60.8022 190.853 59.7909 187.048 58.8708 188.511C58.7345 188.755 58.6533 189.04 58.6351 189.335C58.2473 192.112 58.4754 194.89 58.3538 197.75C58.1789 201.972 56.1182 208.453 55.1905 211.194C54.9928 211.601 54.7419 212.119 54.4302 212.712C55.9509 207.907 55.5479 201.454 54.164 199.861C52.4455 197.899 53.2592 203.565 53.799 208.416C54.0884 210.571 53.9449 212.778 53.3808 214.851C52.7269 216.156 51.9893 217.628 51.2365 219.119L50.8639 219.711C51.3123 218.719 51.662 217.666 51.9057 216.573C52.4151 213.693 51.1453 207.111 49.1759 207.314C47.2064 207.518 49.5028 211.518 50.2708 215.545C50.6503 217.749 50.459 220.043 49.7233 222.109L49.5865 222.47C49.2291 223.146 48.8869 223.794 48.5523 224.405C47.7919 225.85 47.0315 227.183 46.332 228.525C47.2743 226.579 47.9811 224.477 48.4307 222.285C49.1911 218.054 48.1037 213.443 46.5677 212.332C45.0317 211.221 46.5677 219.082 46.773 223.248C46.8252 225.669 46.3671 228.066 45.4423 230.21C44.4538 232.062 43.4957 233.914 42.4996 235.932C43.2873 233.163 43.8899 230.32 44.3017 227.433C45.0621 222.711 43.4957 218.971 41.9141 218.554C40.3325 218.137 41.3362 221.332 42.2639 227.701C42.7566 231.06 42.5181 234.517 41.5719 237.728C41.1537 238.562 40.7355 239.423 40.2945 240.321C39.8535 241.219 39.3212 242.478 38.8649 243.663C38.8649 242.478 38.941 240.756 38.9638 238.849C38.9734 236.725 39.1132 234.605 39.382 232.507C39.7242 230.081 39.9067 226.951 38.2947 225.1C38.1905 224.946 38.0598 224.823 37.9119 224.738C37.7641 224.654 37.6026 224.61 37.4392 224.61C37.2758 224.61 37.1144 224.654 36.9665 224.738C36.8186 224.823 36.6879 224.946 36.5838 225.1C36.286 225.539 36.1151 226.086 36.0971 226.655C35.793 229.775 36.5534 233.136 36.9716 236.154C37.363 238.972 37.904 241.755 38.5912 244.487C38.1882 245.57 37.8308 246.69 37.4582 247.774L36.8803 246.69C36.2036 245.403 35.4812 237.867 34.7056 234.34C33.93 230.812 31.1926 228.988 31.3599 233.155C31.5272 237.321 36.0743 245.672 36.0743 245.672L37.3594 248.098C35.9907 252.403 35.0782 256.208 35.0782 256.208L36.1503 257.088C36.1503 257.088 35.8842 254.31 37.7472 248.45C38.3733 247.988 39.042 247.618 39.7394 247.348C43.5414 245.792 48.8641 247.422 51.5103 242.82C52.1414 241.709 52.1262 240.043 50.9019 239.645C49.9271 239.534 48.9529 239.864 48.1645 240.571C45.7693 242.478 43.7999 244.635 41.0092 245.737C40.88 245.792 39.0703 246.709 38.1274 247.338C38.4011 246.542 38.7129 245.681 39.0703 244.783C39.9203 243.766 40.8385 242.837 41.8153 242.006C44.4082 239.774 47.7235 239.089 50.4457 237.043C51.2745 236.423 52.8257 233.673 50.7118 233.756C49.769 233.756 48.3774 235.025 47.541 235.525C45.0618 236.817 42.7772 238.603 40.7811 240.811C40.8952 240.561 41.0093 240.302 41.1309 240.052C43.0695 237.891 45.1469 235.922 47.3433 234.164C50.9932 231.312 54.3997 229.794 54.9472 227.683C55.4947 225.572 51.1453 227.877 46.9783 231.618C45.0945 233.336 43.4577 235.423 42.1346 237.793C43.3208 235.275 44.5527 232.747 45.7465 230.331C47.1609 227.941 49.0082 225.98 51.1453 224.6C54.567 222.581 57.3425 220.896 58.4222 218.119C59.502 215.341 58.1713 215.841 54.7343 219.36C52.3771 221.776 49.1606 224.859 47.1912 227.553C48.1493 225.702 49.0618 223.85 49.8906 222.267C51.6889 219.836 53.7329 217.693 55.9738 215.888C59.2054 213.527 60.749 211.814 59.4563 211.175C58.5591 210.731 54.8332 214.175 52.1186 217.934L53.723 214.943C53.8751 214.666 54.0348 214.36 54.1944 214.017C56.6432 211.639 58.9669 209.075 61.152 206.342C64.992 201.5 67.0527 196.417 64.8323 198.149Z" fill="white"/>
<path d="M87.1268 198.398C85.0889 200 79.9411 209.638 76.6562 213.869C77.0364 213.082 77.4166 212.193 77.7967 211.305C78.3062 210.508 78.9145 209.721 79.3175 208.972C79.9639 207.805 80.5722 206.611 81.1273 205.379C82.0104 203.463 82.7071 201.428 83.2031 199.315C83.8288 196.851 83.8473 194.218 83.2564 191.742C83.0891 191.112 82.0778 187.307 81.1577 188.76C81.0223 189.009 80.9412 189.296 80.922 189.594C80.5418 192.371 80.7623 195.149 80.6406 198C80.4657 202.231 78.4051 208.712 77.4774 211.453C77.2797 211.86 77.0288 212.379 76.717 212.971C78.2378 208.157 77.8424 201.704 76.4509 200.12C74.7324 198.158 75.546 203.824 76.0859 208.675C76.3799 210.826 76.2363 213.033 75.6677 215.101C75.0137 216.415 74.2761 217.878 73.5233 219.378C73.3941 219.572 73.2724 219.776 73.1508 219.971C73.5729 218.974 73.897 217.921 74.1165 216.832C74.6335 213.953 73.3561 207.37 71.3866 207.574C69.4172 207.777 71.7136 211.777 72.4816 215.804C72.862 218.005 72.6707 220.296 71.9341 222.359L71.7973 222.73C71.4399 223.396 71.0977 224.054 70.7631 224.665C70.0027 226.1 69.2423 227.442 68.5428 228.785C69.4864 226.836 70.1933 224.731 70.6415 222.535C71.4019 218.313 70.3145 213.703 68.7785 212.592C67.2425 211.481 68.8165 219.341 68.9838 223.507C69.036 225.928 68.5779 228.325 67.6531 230.47C66.6646 232.321 65.7065 234.173 64.7104 236.191C65.507 233.426 66.1199 230.587 66.543 227.701C67.3033 222.98 65.7369 219.239 64.1553 218.823C62.5737 218.406 63.5774 221.6 64.5127 227.97C64.9991 231.329 64.758 234.785 63.8132 237.997C63.3949 238.83 62.9767 239.691 62.5357 240.589C62.0947 241.487 61.5624 242.746 61.1062 243.922C61.1062 242.746 61.1822 241.024 61.205 239.108C61.2149 236.987 61.3547 234.87 61.6232 232.775C61.9654 230.349 62.1479 227.22 60.5359 225.368C60.4317 225.215 60.301 225.091 60.1531 225.007C60.0053 224.922 59.8439 224.878 59.6804 224.878C59.517 224.878 59.3556 224.922 59.2077 225.007C59.0598 225.091 58.9291 225.215 58.825 225.368C58.5273 225.808 58.3563 226.354 58.3383 226.924C58.0342 230.034 58.7946 233.404 59.2128 236.423C59.6046 239.222 60.1456 241.986 60.8324 244.7C60.4294 245.792 60.072 246.903 59.6994 247.996L59.1215 246.903C58.4448 245.616 57.7224 238.089 56.9468 234.562C56.1712 231.034 53.4338 229.21 53.6011 233.377C53.7684 237.543 58.3155 245.885 58.3155 245.885L59.6006 248.311C58.2319 252.625 57.3194 256.43 57.3194 256.43L58.3916 257.31C58.3916 257.31 58.1254 254.532 59.9884 248.672C60.6043 248.246 61.2572 247.904 61.935 247.653C65.7369 246.098 71.0597 247.737 73.7058 243.135C74.337 242.015 74.3218 240.311 73.0975 239.959C72.1224 239.844 71.1469 240.174 70.3601 240.885C67.9649 242.793 65.9955 244.95 63.2048 246.052C63.0756 246.098 61.2658 247.024 60.323 247.653C60.5967 246.848 60.9085 245.996 61.2658 245.089C62.1177 244.074 63.0357 243.145 64.0109 242.311C66.6114 240.08 69.9191 239.395 72.6413 237.349C73.4777 236.728 75.0213 233.979 72.9074 234.053C71.9645 234.053 70.573 235.33 69.7366 235.821C67.2586 237.12 64.9744 238.909 62.9767 241.117L63.3265 240.348C65.2768 238.202 67.3644 236.249 69.5693 234.506C73.2192 231.645 76.6257 230.136 77.1732 228.025C77.7207 225.914 73.3713 228.22 69.2043 231.96C67.3205 233.678 65.6837 235.765 64.3606 238.136C65.5468 235.617 66.7787 233.09 67.9725 230.664C69.3798 228.27 71.2188 226.3 73.3485 224.905C76.7702 222.887 79.5457 221.202 80.6254 218.378C81.7052 215.554 80.3745 216.091 76.9375 219.619C74.5803 222.026 71.3638 225.118 69.3944 227.812C70.3525 225.914 71.265 224.109 72.0938 222.517C73.8947 220.092 75.9384 217.952 78.1769 216.147C81.4086 213.777 82.9522 212.073 81.6595 211.434C80.7623 210.99 77.0364 214.434 74.3218 218.193C75.0822 216.832 75.5992 215.804 75.9262 215.202C76.0783 214.925 76.2379 214.619 76.3976 214.277C78.848 211.9 81.1743 209.34 83.3628 206.611C87.2712 201.759 89.3319 196.676 87.1268 198.398Z" fill="#407BFF"/>
<path opacity="0.6" d="M87.1268 198.398C85.0889 200 79.9411 209.638 76.6562 213.869C77.0364 213.082 77.4166 212.193 77.7967 211.305C78.3062 210.508 78.9145 209.721 79.3175 208.972C79.9639 207.805 80.5722 206.611 81.1273 205.379C82.0104 203.463 82.7071 201.428 83.2031 199.315C83.8288 196.851 83.8473 194.218 83.2564 191.742C83.0891 191.112 82.0778 187.307 81.1577 188.76C81.0223 189.009 80.9412 189.296 80.922 189.594C80.5418 192.371 80.7623 195.149 80.6406 198C80.4657 202.231 78.4051 208.712 77.4774 211.453C77.2797 211.86 77.0288 212.379 76.717 212.971C78.2378 208.157 77.8424 201.704 76.4509 200.12C74.7324 198.158 75.546 203.824 76.0859 208.675C76.3799 210.826 76.2363 213.033 75.6677 215.101C75.0137 216.415 74.2761 217.878 73.5233 219.378C73.3941 219.572 73.2724 219.776 73.1508 219.971C73.5729 218.974 73.897 217.921 74.1165 216.832C74.6335 213.953 73.3561 207.37 71.3866 207.574C69.4172 207.777 71.7136 211.777 72.4816 215.804C72.862 218.005 72.6707 220.296 71.9341 222.359L71.7973 222.73C71.4399 223.396 71.0977 224.054 70.7631 224.665C70.0027 226.1 69.2423 227.442 68.5428 228.785C69.4864 226.836 70.1933 224.731 70.6415 222.535C71.4019 218.313 70.3145 213.703 68.7785 212.592C67.2425 211.481 68.8165 219.341 68.9838 223.507C69.036 225.928 68.5779 228.325 67.6531 230.47C66.6646 232.321 65.7065 234.173 64.7104 236.191C65.507 233.426 66.1199 230.587 66.543 227.701C67.3033 222.98 65.7369 219.239 64.1553 218.823C62.5737 218.406 63.5774 221.6 64.5127 227.97C64.9991 231.329 64.758 234.785 63.8132 237.997C63.3949 238.83 62.9767 239.691 62.5357 240.589C62.0947 241.487 61.5624 242.746 61.1062 243.922C61.1062 242.746 61.1822 241.024 61.205 239.108C61.2149 236.987 61.3547 234.87 61.6232 232.775C61.9654 230.349 62.1479 227.22 60.5359 225.368C60.4317 225.215 60.301 225.091 60.1531 225.007C60.0053 224.922 59.8439 224.878 59.6804 224.878C59.517 224.878 59.3556 224.922 59.2077 225.007C59.0598 225.091 58.9291 225.215 58.825 225.368C58.5273 225.808 58.3563 226.354 58.3383 226.924C58.0342 230.034 58.7946 233.404 59.2128 236.423C59.6046 239.222 60.1456 241.986 60.8324 244.7C60.4294 245.792 60.072 246.903 59.6994 247.996L59.1215 246.903C58.4448 245.616 57.7224 238.089 56.9468 234.562C56.1712 231.034 53.4338 229.21 53.6011 233.377C53.7684 237.543 58.3155 245.885 58.3155 245.885L59.6006 248.311C58.2319 252.625 57.3194 256.43 57.3194 256.43L58.3916 257.31C58.3916 257.31 58.1254 254.532 59.9884 248.672C60.6043 248.246 61.2572 247.904 61.935 247.653C65.7369 246.098 71.0597 247.737 73.7058 243.135C74.337 242.015 74.3218 240.311 73.0975 239.959C72.1224 239.844 71.1469 240.174 70.3601 240.885C67.9649 242.793 65.9955 244.95 63.2048 246.052C63.0756 246.098 61.2658 247.024 60.323 247.653C60.5967 246.848 60.9085 245.996 61.2658 245.089C62.1177 244.074 63.0357 243.145 64.0109 242.311C66.6114 240.08 69.9191 239.395 72.6413 237.349C73.4777 236.728 75.0213 233.979 72.9074 234.053C71.9645 234.053 70.573 235.33 69.7366 235.821C67.2586 237.12 64.9744 238.909 62.9767 241.117L63.3265 240.348C65.2768 238.202 67.3644 236.249 69.5693 234.506C73.2192 231.645 76.6257 230.136 77.1732 228.025C77.7207 225.914 73.3713 228.22 69.2043 231.96C67.3205 233.678 65.6837 235.765 64.3606 238.136C65.5468 235.617 66.7787 233.09 67.9725 230.664C69.3798 228.27 71.2188 226.3 73.3485 224.905C76.7702 222.887 79.5457 221.202 80.6254 218.378C81.7052 215.554 80.3745 216.091 76.9375 219.619C74.5803 222.026 71.3638 225.118 69.3944 227.812C70.3525 225.914 71.265 224.109 72.0938 222.517C73.8947 220.092 75.9384 217.952 78.1769 216.147C81.4086 213.777 82.9522 212.073 81.6595 211.434C80.7623 210.99 77.0364 214.434 74.3218 218.193C75.0822 216.832 75.5992 215.804 75.9262 215.202C76.0783 214.925 76.2379 214.619 76.3976 214.277C78.848 211.9 81.1743 209.34 83.3628 206.611C87.2712 201.759 89.3319 196.676 87.1268 198.398Z" fill="white"/>
<path d="M323.707 23.0443C323.707 23.0443 320.795 12.8601 312.415 12.4064C304.036 11.9527 305.496 21.7204 299.671 24.3775C293.846 27.0347 291.656 19.4984 286.554 21.276C281.452 23.0536 284.737 27.9235 280.365 29.7011C275.992 31.4787 276.357 26.5996 269.803 30.627C263.248 34.6544 261.788 35.9506 260.328 36.395C258.868 36.8394 245.759 39.4965 245.759 39.4965H336.459C336.459 39.4965 339.014 29.7382 333.911 25.7478C328.809 21.7574 329.174 26.5996 323.707 23.0443Z" fill="#407BFF"/>
<path opacity="0.7" d="M323.707 23.0443C323.707 23.0443 320.795 12.8601 312.415 12.4064C304.036 11.9527 305.496 21.7204 299.671 24.3775C293.846 27.0347 291.656 19.4984 286.554 21.276C281.452 23.0536 284.737 27.9235 280.365 29.7011C275.992 31.4787 276.357 26.5996 269.803 30.627C263.248 34.6544 261.788 35.9506 260.328 36.395C258.868 36.8394 245.759 39.4965 245.759 39.4965H336.459C336.459 39.4965 339.014 29.7382 333.911 25.7478C328.809 21.7574 329.174 26.5996 323.707 23.0443Z" fill="white"/>
<path d="M157.044 6.56423C157.044 6.56423 155.273 0.379613 150.201 0.0833433C145.129 -0.212926 146.011 5.72172 142.475 7.34194C138.94 8.96217 137.616 4.37925 134.522 5.49026C131.427 6.60127 133.419 9.52693 130.773 10.6009C128.127 11.6749 128.34 8.74922 124.363 11.1379C120.386 13.5266 119.512 14.3691 118.622 14.6376C117.732 14.9061 109.794 16.4893 109.794 16.4893H164.778C164.778 16.4893 166.298 10.5731 163.257 8.15668C160.215 5.74024 160.352 8.71219 157.044 6.56423Z" fill="#407BFF"/>
<path opacity="0.8" d="M157.044 6.56423C157.044 6.56423 155.273 0.379613 150.201 0.0833433C145.129 -0.212926 146.011 5.72172 142.475 7.34194C138.94 8.96217 137.616 4.37925 134.522 5.49026C131.427 6.60127 133.419 9.52693 130.773 10.6009C128.127 11.6749 128.34 8.74922 124.363 11.1379C120.386 13.5266 119.512 14.3691 118.622 14.6376C117.732 14.9061 109.794 16.4893 109.794 16.4893H164.778C164.778 16.4893 166.298 10.5731 163.257 8.15668C160.215 5.74024 160.352 8.71219 157.044 6.56423Z" fill="white"/>
<path d="M64.5505 115.267C64.5505 115.267 62.1705 106.935 55.3345 106.583C48.4986 106.231 49.6772 114.184 44.9248 116.36C40.1723 118.535 38.3778 112.369 34.2185 113.823C30.0591 115.277 32.6977 119.248 29.1619 120.702C25.626 122.156 25.8922 118.165 20.539 121.424C15.1859 124.683 13.9997 125.766 12.8059 126.137C11.612 126.507 0.91333 128.664 0.91333 128.664H74.9602C74.9602 128.664 77.0361 120.702 72.8768 117.443C68.7174 114.184 69.0064 118.184 64.5505 115.267Z" fill="#407BFF"/>
<g opacity="0.7">
<path d="M64.5505 115.267C64.5505 115.267 62.1705 106.935 55.3345 106.583C48.4986 106.231 49.6772 114.184 44.9248 116.36C40.1723 118.535 38.3778 112.369 34.2185 113.823C30.0591 115.277 32.6977 119.248 29.1619 120.702C25.626 122.156 25.8922 118.165 20.539 121.424C15.1859 124.683 13.9997 125.766 12.8059 126.137C11.612 126.507 0.91333 128.664 0.91333 128.664H74.9602C74.9602 128.664 77.0361 120.702 72.8768 117.443C68.7174 114.184 69.0064 118.184 64.5505 115.267Z" fill="white"/>
</g>
<path d="M152.505 280.53C197.045 280.53 233.152 277.413 233.152 273.568C233.152 269.722 197.045 266.605 152.505 266.605C107.965 266.605 71.8579 269.722 71.8579 273.568C71.8579 277.413 107.965 280.53 152.505 280.53Z" fill="#407BFF"/>
<path d="M228.073 268.939C253.324 268.939 273.795 267.38 273.795 265.457C273.795 263.535 253.324 261.976 228.073 261.976C202.821 261.976 182.35 263.535 182.35 265.457C182.35 267.38 202.821 268.939 228.073 268.939Z" fill="#407BFF"/>
<g opacity="0.6">
<path d="M152.505 280.53C197.045 280.53 233.152 277.413 233.152 273.568C233.152 269.722 197.045 266.605 152.505 266.605C107.965 266.605 71.8579 269.722 71.8579 273.568C71.8579 277.413 107.965 280.53 152.505 280.53Z" fill="white"/>
<path d="M228.073 268.939C253.324 268.939 273.795 267.38 273.795 265.457C273.795 263.535 253.324 261.976 228.073 261.976C202.821 261.976 182.35 263.535 182.35 265.457C182.35 267.38 202.821 268.939 228.073 268.939Z" fill="white"/>
</g>
<path d="M151.919 169.753L166.101 157.384" stroke="#263238" stroke-width="0.835087" stroke-linecap="round" stroke-linejoin="round"/>
<path d="M196.745 255.68L195.946 266.652C195.946 266.652 191.909 268.809 191.916 269.531C191.924 270.253 192.677 271.244 195.969 271.244C199.262 271.244 200.334 269.725 200.334 268.587C200.334 267.448 207.345 257.958 207.345 257.958C207.517 257.388 207.564 256.774 207.483 256.175C207.402 255.577 207.194 255.014 206.881 254.542C205.786 253.023 202.045 252.838 202.045 252.838L196.745 255.68Z" fill="#407BFF"/>
<path d="M191.924 270.262C191.924 270.262 197.406 269.827 198.874 268.809C200.341 267.79 205.565 258.106 205.983 257.338C206.257 256.71 206.401 256.011 206.402 255.301" stroke="#263238" stroke-width="0.417543" stroke-linecap="round" stroke-linejoin="round"/>
<path d="M203.771 252.995C203.771 252.995 208.219 254.023 207.793 256.347C207.367 258.671 200.387 268.976 199.33 270.235C198.273 271.494 191.726 271.522 191.924 270.235C192.122 268.948 195.946 266.624 195.946 266.624L197.216 257.365" stroke="#263238" stroke-width="0.835087" stroke-linecap="round" stroke-linejoin="round"/>
<path d="M110.091 264.596L96.9966 272.383C96.9966 272.383 95.2857 273.901 98.7151 273.901C102.144 273.901 120.219 274.086 120.219 274.086C120.219 274.086 122.249 274.66 122.713 273.521C123.473 271.67 123.808 270.485 123.337 269.911C122.865 269.336 110.091 264.596 110.091 264.596Z" fill="#407BFF"/>
<path d="M98.2283 272.114H121.458" stroke="#263238" stroke-width="0.417543" stroke-linecap="round" stroke-linejoin="round"/>
<path d="M109.208 265.587C109.208 265.587 95.8712 272.549 96.0841 273.318C96.297 274.086 109.627 274.095 114.706 274.095C119.785 274.095 123.39 274.355 123.39 272.808" stroke="#263238" stroke-width="0.835087" stroke-linecap="round" stroke-linejoin="round"/>
<path d="M203.771 252.995L159.752 213.823L158.231 174.391C156.609 176.13 154.778 177.557 152.802 178.623C150.08 179.891 134.309 189.594 134.309 189.594C134.309 189.594 141.297 219.748 142.567 222.332C143.837 224.915 197.178 257.375 197.178 257.375L203.771 252.995Z" fill="#263238"/>
<path d="M123.382 271.262C123.382 271.262 121.687 270.744 119.786 270.225C117.885 269.707 109.201 265.596 109.201 265.596C109.029 264.755 108.957 263.888 108.988 263.022C109.01 262.464 109.136 261.919 109.356 261.429C109.576 260.938 109.884 260.514 110.258 260.189C110.258 260.189 77.234 206.583 76.39 205.037C75.546 203.491 76.1771 200.908 81.8952 195.501C87.6134 190.094 125.025 162.291 125.025 162.291C123.587 160.217 126.294 158.939 126.294 158.939L129.686 160.226L151.912 169.762L160.801 162.55C160.801 162.55 162.284 169.244 156.779 174.401C151.273 179.558 100.943 206.805 100.943 206.805L100.107 206.87L122.751 267.105C122.751 267.105 124.272 270.401 123.382 271.262Z" fill="#263238"/>
<path d="M95.3013 200.019L99.4834 206.388L97.8106 197.982" stroke="white" stroke-width="0.835087" stroke-linecap="round" stroke-linejoin="round"/>
<path d="M136.522 190.085C136.522 190.085 145.099 206.389 148.239 209.703" stroke="white" stroke-width="0.835087" stroke-linecap="round" stroke-linejoin="round"/>
<path d="M137.776 189.575C140.141 192.095 142.657 194.394 145.304 196.454" stroke="white" stroke-width="0.835087" stroke-linecap="round" stroke-linejoin="round"/>
<g style="mix-blend-mode:multiply">
<path d="M152.817 103.259L123.116 127.905L129.61 160.495L151.653 169.494L181.065 143.978L177.514 111.194L152.817 103.259Z" fill="#407BFF"/>
</g>
<path d="M123.276 127.905L125.162 138.089" stroke="#263238" stroke-width="0.835087" stroke-linecap="round" stroke-linejoin="round"/>
<path d="M126.728 145.524L129.694 160.217L151.92 169.753L149.167 145.524" stroke="#263238" stroke-width="0.835087" stroke-linecap="round" stroke-linejoin="round"/>
<path d="M148.954 143.468L148.11 137.284" stroke="#263238" stroke-width="0.835087" stroke-linecap="round" stroke-linejoin="round"/>
<path d="M175.203 149.653L181.126 144.237L178.161 113.573" stroke="#263238" stroke-width="0.835087" stroke-linecap="round" stroke-linejoin="round"/>
<path d="M151.068 135.478L167.158 120.785" stroke="#263238" stroke-width="0.835087" stroke-linecap="round" stroke-linejoin="round"/>
<path d="M166.314 107.638L152.976 103.259L123.762 127.488" stroke="#263238" stroke-width="0.835087" stroke-linecap="round" stroke-linejoin="round"/>
<path d="M123.976 128.516L128.424 130.062" stroke="#263238" stroke-width="0.835087" stroke-linecap="round" stroke-linejoin="round"/>
<path d="M136.042 132.127L148.11 136.247" stroke="#263238" stroke-width="0.835087" stroke-linecap="round" stroke-linejoin="round"/>
<path d="M164.192 107.129L145.989 124.137" stroke="#263238" stroke-width="0.417543" stroke-linecap="round" stroke-linejoin="round"/>
<path d="M144.506 125.683L137.944 131.868" stroke="#263238" stroke-width="0.417543" stroke-linecap="round" stroke-linejoin="round"/>
<path d="M164.649 92.9084C164.649 92.9084 169.272 139.339 169.272 141.404C169.272 143.469 165.036 144.496 165.036 147.07C164.918 149.181 164.562 151.262 163.98 153.255C163.98 153.255 163.135 154.292 163.135 155.106C163.135 155.921 164.618 155.625 165.888 154.856C167.158 154.088 167.576 151.246 167.576 151.246C167.286 152.949 167.075 154.67 166.945 156.403L166.101 157.43C166.101 157.43 163.561 160.263 165.249 160.523C166.937 160.782 174.777 157.171 175.203 154.856C175.629 152.542 174.138 141.45 174.138 141.45C174.138 141.45 180.282 89.1309 180.282 84.2332C180.312 82.8644 180.005 81.5162 179.401 80.3614C178.796 79.2066 177.922 78.2981 176.891 77.7523" fill="white"/>
<mask id="mask0_309_740" style="mask-type:luminance" maskUnits="userSpaceOnUse" x="163" y="77" width="18" height="84">
<path d="M164.649 92.9084C164.649 92.9084 169.272 139.339 169.272 141.404C169.272 143.469 165.036 144.496 165.036 147.07C164.918 149.181 164.562 151.262 163.98 153.255C163.98 153.255 163.135 154.292 163.135 155.106C163.135 155.921 164.618 155.625 165.888 154.856C167.158 154.088 167.576 151.246 167.576 151.246C167.286 152.949 167.075 154.67 166.945 156.403L166.101 157.43C166.101 157.43 163.561 160.263 165.249 160.523C166.937 160.782 174.777 157.171 175.203 154.856C175.629 152.542 174.138 141.45 174.138 141.45C174.138 141.45 180.282 89.1309 180.282 84.2332C180.312 82.8644 180.005 81.5162 179.401 80.3614C178.796 79.2066 177.922 78.2981 176.891 77.7523" fill="white"/>
</mask>
<g mask="url(#mask0_309_740)">
<g style="mix-blend-mode:multiply" opacity="0.3">
<path d="M180.252 90.7511C179.362 86.6311 178.397 79.1503 178.397 79.1503L174.366 77.6597L169.044 85.446L173.249 82.2981V144.08C173.249 147.227 170.017 159.421 170.017 159.421C170.017 159.421 176.701 157.708 175.621 150.301C174.541 142.894 173.249 144.08 175.188 129.127C177.127 114.175 181.172 94.8988 180.252 90.7511Z" fill="#407BFF"/>
</g>
</g>
<path d="M164.649 92.9084C164.649 92.9084 169.272 139.339 169.272 141.404C169.272 143.469 165.036 144.496 165.036 147.07C164.918 149.181 164.562 151.262 163.98 153.255C163.98 153.255 163.135 154.292 163.135 155.106C163.135 155.921 164.618 155.625 165.888 154.856C167.158 154.088 167.576 151.246 167.576 151.246C167.286 152.949 167.075 154.67 166.945 156.403L166.101 157.43C166.101 157.43 163.561 160.263 165.249 160.523C166.937 160.782 174.777 157.171 175.203 154.856C175.629 152.542 174.138 141.45 174.138 141.45C174.138 141.45 180.282 89.1309 180.282 84.2332C180.312 82.8644 180.005 81.5162 179.401 80.3614C178.796 79.2066 177.922 78.2981 176.891 77.7523" stroke="#263238" stroke-width="0.835087" stroke-linecap="round" stroke-linejoin="round"/>
<path d="M169.766 154.421C169.996 155.521 169.921 156.683 169.553 157.726C169.137 158.555 168.647 159.325 168.093 160.022" stroke="#263238" stroke-width="0.417543" stroke-linecap="round" stroke-linejoin="round"/>
<path d="M172.298 154.421C172.173 155.463 171.962 156.487 171.667 157.476" stroke="#263238" stroke-width="0.417543" stroke-linecap="round" stroke-linejoin="round"/>
<path d="M174.184 153.653C174.056 154.694 173.845 155.717 173.553 156.708" stroke="#263238" stroke-width="0.417543" stroke-linecap="round" stroke-linejoin="round"/>
<path d="M105.802 57.1614C105.559 54.495 101.179 49.4584 95.0956 47.9771C89.0125 46.4957 82.4351 46.4957 80.0019 48.9029C79.0894 49.7825 78.4811 51.8286 78.0857 54.0321C78.5191 52.9026 79.3935 50.6157 80.2984 49.6991C84.7771 45.1533 86.0242 47.8475 86.7693 51.8193C87.5145 55.7912 86.5184 66.6328 86.5184 66.6328C86.5184 66.6328 76.314 70.2713 77.8043 63.9016C77.5855 62.9938 77.4328 62.0644 77.3481 61.124C77.3481 61.5962 77.3481 61.8832 77.3481 61.8832L76.8614 65.7347L72.7249 66.6606L58.3535 66.105C58.3535 66.105 65.6685 71.6601 69.805 71.6601C72.4781 71.526 75.0395 70.3183 77.0896 68.2252L103.703 70.6972C103.703 70.6972 106.045 59.8279 105.802 57.1614Z" fill="#407BFF"/>
<path d="M74.7781 66.4013L58.3232 66.0958C58.3232 66.0958 62.8856 71.3361 68.9687 71.3361C75.0519 71.3361 77.0745 68.253 77.0745 68.253L103.688 70.725C103.688 70.725 107.163 62.6609 105.391 55.5783C103.62 48.4956 87.6515 46.1162 83.2108 47.4216C77.7208 49.0418 77.3558 54.6894 77.3558 57.7725C77.3158 60.0463 77.1455 62.3139 76.8464 64.5589" stroke="#263238" stroke-width="0.835087" stroke-linecap="round" stroke-linejoin="round"/>
<mask id="mask1_309_740" style="mask-type:luminance" maskUnits="userSpaceOnUse" x="74" y="69" width="31" height="40">
<path d="M76.0478 69.179C76.0478 69.179 73.2572 77.1967 74.527 78.4374C75.7969 79.678 76.5497 80.2891 76.5497 80.2891C76.5497 80.2891 77.3101 91.0751 78.5723 92.9268C79.8346 94.7785 87.9403 91.6954 87.9403 91.6954C87.9403 91.6954 104.372 111.721 104.905 108.018C105.437 104.315 103.384 90.427 103.384 88.9086C103.384 87.3903 99.8405 83.3536 99.8405 83.3536" fill="white"/>
</mask>
<g mask="url(#mask1_309_740)">
<g style="mix-blend-mode:multiply" opacity="0.3">
<path d="M90.1605 69.6325L79.4161 69.8639C79.4161 69.8639 76.3746 75.3727 77.135 76.9836C77.7235 78.0975 78.5013 79.0446 79.4161 79.7612C79.4161 79.7612 78.6558 87.1123 79.6062 89.6399C80.5567 92.1674 88.0922 91.0101 88.0922 91.0101C86.4247 92.2107 84.55 92.9209 82.6174 93.084C79.036 93.5377 77.9106 92.6211 77.3403 90.0935C76.77 87.566 76.5799 80.3074 76.5799 80.3074L73.9565 76.9836L75.8423 70.7805L77.9182 68.2622L90.1605 69.6325Z" fill="#407BFF"/>
</g>
</g>
<path d="M76.0478 69.179C76.0478 69.179 73.2572 77.1967 74.527 78.4374C75.7969 79.678 76.5497 80.2891 76.5497 80.2891C76.5497 80.2891 77.3101 91.0751 78.5723 92.9268C79.8346 94.7785 87.9403 91.6954 87.9403 91.6954C87.9403 91.6954 104.372 111.721 104.905 108.018C105.437 104.315 103.384 90.427 103.384 88.9086C103.384 87.3903 99.8405 83.3536 99.8405 83.3536" stroke="#263238" stroke-width="0.835087" stroke-linecap="round" stroke-linejoin="round"/>
<path d="M90.7312 69.4844C90.7312 69.4844 91.2331 72.2619 92.7538 72.5674C94.2746 72.873 95.5369 69.7899 95.5369 69.7899L90.7312 69.4844Z" fill="#263238"/>
<path d="M103.612 70.7252C103.612 70.7252 105.133 76.2802 103.354 79.354C101.574 82.4278 100.829 82.4371 100.829 82.4371C99.3083 85.5201 95.2554 78.7337 95.2554 78.7337C95.2554 78.7337 98.2969 78.567 99.0573 76.1043C99.8177 73.6416 98.7532 70.04 98.7532 70.04L103.612 70.7252Z" fill="#263238"/>
<path d="M99.0498 70.7251C99.0498 70.7251 99.8102 75.0395 99.0498 77.206C98.2894 79.3725 95.2478 78.7429 95.2478 78.7429L93.7271 83.3721" stroke="#263238" stroke-width="0.835087" stroke-linecap="round" stroke-linejoin="round"/>
<path d="M78.3518 82.0666C78.3518 82.0666 81.2869 82.835 83.1651 78.7521" stroke="#263238" stroke-width="0.626315" stroke-linecap="round" stroke-linejoin="round"/>
<path d="M130.467 102.121L124.245 104.911L127.758 116.527L133.98 113.736L130.467 102.121Z" fill="#263238"/>
<path d="M129.378 104.719L126.402 106.053L128.032 111.44L131.007 110.106L129.378 104.719Z" fill="white"/>
<path d="M127.184 100.349L125.872 100.937L126.941 104.473L128.254 103.885L127.184 100.349Z" fill="white" stroke="#263238" stroke-width="0.417543" stroke-linecap="round" stroke-linejoin="round"/>
<path d="M120.668 151.106L126.302 158.93" stroke="#263238" stroke-width="0.835087" stroke-linecap="round" stroke-linejoin="round"/>
<mask id="mask2_309_740" style="mask-type:luminance" maskUnits="userSpaceOnUse" x="152" y="0" width="158" height="253">
<path d="M153.958 70.688L155.379 71.3546L175.667 75.8727C175.667 75.8727 178.974 77.9929 180.138 80.2519C181.301 82.511 180.252 90.751 180.252 90.751L178.13 110.138L181.529 144.894L175.598 150.31L175.826 153.745C175.986 153.801 175.788 158.328 166.991 160.226C166.991 160.226 165.166 161.337 164.633 160.846C163.288 159.615 164.367 159.717 164.367 159.717L160.809 162.494C160.998 164.679 160.806 166.887 160.246 168.975C159.318 172.679 158.68 173.401 158.68 173.401L160.299 207.851L164.2 214.619L215.146 252.273H309.07V0H152.809V70.1603L153.958 70.688Z" fill="white"/>
</mask>
<g mask="url(#mask2_309_740)">
<path d="M178.548 54.5783L172.96 58.5039L169.804 51.7915L175.385 47.8752L178.548 54.5783Z" stroke="#263238" stroke-width="0.835087" stroke-linecap="round" stroke-linejoin="round"/>
<path d="M176.663 46.9402L167.865 53.1248L162.626 41.3111L171.423 35.1265L176.663 46.9402Z" stroke="#263238" stroke-width="0.835087" stroke-linecap="round" stroke-linejoin="round"/>
<path d="M261.367 197.043C287.784 164.878 287.784 112.729 261.367 80.5644C234.95 48.3997 192.12 48.3997 165.703 80.5644C139.286 112.729 139.286 164.878 165.703 197.043C192.12 229.208 234.95 229.208 261.367 197.043Z" fill="white"/>
<path d="M214.127 42.311C198.683 42.3055 183.583 47.8769 170.74 58.3205C157.896 68.7641 147.884 83.6108 141.97 100.983C136.057 118.355 134.507 137.472 137.517 155.917C140.528 174.361 147.963 191.305 158.882 204.604C169.802 217.903 183.715 226.961 198.862 230.631C214.01 234.302 229.711 232.421 243.981 225.226C258.25 218.031 270.447 205.845 279.028 190.209C287.609 174.574 292.189 156.191 292.189 137.386C292.189 112.175 283.965 87.9967 269.327 70.1676C254.688 52.3384 234.833 42.3184 214.127 42.311ZM214.127 219.749C200.742 219.749 187.658 214.916 176.529 205.862C165.4 196.807 156.726 183.938 151.604 168.882C146.482 153.825 145.141 137.257 147.753 121.273C150.364 105.289 156.809 90.607 166.274 79.0831C175.738 67.5593 187.797 59.7115 200.925 56.5321C214.052 53.3526 227.659 54.9844 240.025 61.2211C252.391 67.4577 262.961 78.0191 270.397 91.5697C277.833 105.12 281.802 121.052 281.802 137.349C281.802 148.17 280.052 158.885 276.651 168.882C273.25 178.879 268.265 187.963 261.981 195.614C255.696 203.266 248.236 209.335 240.025 213.476C231.815 217.617 223.014 219.749 214.127 219.749Z" fill="#263238" stroke="#263238" stroke-width="0.835087" stroke-linecap="round" stroke-linejoin="round"/>
<path d="M262.039 65.6699C254.257 57.9496 245.294 52.1875 235.669 48.7178" stroke="white" stroke-width="1.67017" stroke-linecap="round" stroke-linejoin="round"/>
<path d="M228.468 46.5883C225.703 45.9493 222.91 45.495 220.104 45.2273" stroke="white" stroke-width="1.67017" stroke-linecap="round" stroke-linejoin="round"/>
<path d="M271.081 188.214C280.203 173.047 284.994 154.658 284.719 135.861C284.444 117.064 279.12 98.8942 269.56 84.1312" stroke="white" stroke-width="0.835087" stroke-linecap="round" stroke-linejoin="round"/>
<path d="M261.211 201.445C263.428 199.033 265.516 196.451 267.461 193.714" stroke="white" stroke-width="0.835087" stroke-linecap="round" stroke-linejoin="round"/>
<path d="M185.422 215.953C197.29 222.37 210.379 224.684 223.255 222.643C236.132 220.602 248.298 214.283 258.42 204.38" stroke="white" stroke-width="0.835087" stroke-linecap="round" stroke-linejoin="round"/>
<path d="M175.347 209.24C177.459 210.926 179.645 212.471 181.894 213.869" stroke="white" stroke-width="0.835087" stroke-linecap="round" stroke-linejoin="round"/>
<path d="M167.774 202.241C169.555 204.128 171.412 205.905 173.34 207.564" stroke="white" stroke-width="0.835087" stroke-linecap="round" stroke-linejoin="round"/>
<path d="M194.6 54.745C182.601 58.9521 171.733 66.9572 163.103 77.9446C154.473 88.9321 148.389 102.509 145.473 117.292C142.556 132.074 142.91 147.534 146.499 162.096C150.088 176.658 156.783 189.801 165.903 200.185" stroke="white" stroke-width="0.835087" stroke-linecap="round" stroke-linejoin="round"/>
<path d="M264.054 76.5949C255.794 66.5505 245.621 59.1522 234.441 55.0601C223.261 50.968 211.423 50.3095 199.984 53.1433" stroke="white" stroke-width="0.835087" stroke-linecap="round" stroke-linejoin="round"/>
<path d="M224.248 167.837H203.93V174.54H224.248V167.837Z" fill="#407BFF"/>
<path d="M219.8 137.386C219.8 135.77 219.334 134.205 218.483 132.965C217.633 131.725 216.452 130.888 215.146 130.599L214.545 85.3533H213.701L213.108 130.599C211.816 130.882 210.644 131.703 209.793 132.921C208.943 134.14 208.467 135.68 208.446 137.279C208.425 138.878 208.862 140.436 209.68 141.687C210.499 142.937 211.649 143.803 212.933 144.135L212.72 160.189H215.534L215.321 144.135C216.588 143.801 217.723 142.95 218.538 141.722C219.353 140.494 219.798 138.964 219.8 137.386ZM214.127 141.089C213.526 141.089 212.938 140.872 212.437 140.465C211.937 140.058 211.547 139.479 211.317 138.803C211.087 138.126 211.027 137.381 211.144 136.663C211.261 135.945 211.551 135.285 211.976 134.767C212.402 134.249 212.944 133.896 213.534 133.753C214.124 133.61 214.735 133.684 215.291 133.964C215.847 134.244 216.322 134.719 216.656 135.328C216.99 135.937 217.169 136.653 217.169 137.386C217.169 137.872 217.09 138.353 216.937 138.803C216.784 139.252 216.56 139.66 216.278 140.004C215.995 140.348 215.66 140.621 215.291 140.807C214.922 140.993 214.527 141.089 214.127 141.089Z" fill="#263238"/>
<path d="M214.127 141.191C215.853 141.191 217.253 139.487 217.253 137.386C217.253 135.284 215.853 133.58 214.127 133.58C212.401 133.58 211.002 135.284 211.002 137.386C211.002 139.487 212.401 141.191 214.127 141.191Z" fill="#407BFF"/>
<path d="M214.127 59.6427V73.3544" stroke="#263238" stroke-width="3.34035" stroke-linecap="round" stroke-linejoin="round"/>
<path d="M214.127 201.889V215.601" stroke="#263238" stroke-width="3.34035" stroke-linecap="round" stroke-linejoin="round"/>
<path d="M182.107 70.0955L187.734 81.9647" stroke="#263238" stroke-width="3.34035" stroke-linecap="round" stroke-linejoin="round"/>
<path d="M240.52 193.279L246.147 205.157" stroke="#263238" stroke-width="3.34035" stroke-linecap="round" stroke-linejoin="round"/>
<path d="M158.664 98.6299L168.412 105.49" stroke="#263238" stroke-width="3.34035" stroke-linecap="round" stroke-linejoin="round"/>
<path d="M259.834 169.753L269.59 176.614" stroke="#263238" stroke-width="3.34035" stroke-linecap="round" stroke-linejoin="round"/>
<path d="M278.167 137.626H266.906" stroke="#263238" stroke-width="3.34035" stroke-linecap="round" stroke-linejoin="round"/>
<path d="M161.341 137.626H150.079" stroke="#263238" stroke-width="3.34035" stroke-linecap="round" stroke-linejoin="round"/>
<path d="M278.167 137.626H266.906" stroke="#263238" stroke-width="3.34035" stroke-linecap="round" stroke-linejoin="round"/>
<path d="M161.341 137.626H150.079" stroke="#263238" stroke-width="3.34035" stroke-linecap="round" stroke-linejoin="round"/>
<path d="M269.59 98.6299L259.834 105.49" stroke="#263238" stroke-width="3.34035" stroke-linecap="round" stroke-linejoin="round"/>
<path d="M168.412 169.753L158.664 176.614" stroke="#263238" stroke-width="3.34035" stroke-linecap="round" stroke-linejoin="round"/>
<path d="M246.147 70.0955L240.52 81.9647" stroke="#263238" stroke-width="3.34035" stroke-linecap="round" stroke-linejoin="round"/>
<path d="M187.734 193.279L182.107 205.157" stroke="#263238" stroke-width="3.34035" stroke-linecap="round" stroke-linejoin="round"/>
<path d="M217.351 39.3204H210.903V46.2642H217.351V39.3204Z" stroke="#263238" stroke-width="0.835087" stroke-linecap="round" stroke-linejoin="round"/>
<path d="M219.207 20.7667H209.048V38.9225H219.207V20.7667Z" stroke="#263238" stroke-width="0.835087" stroke-linecap="round" stroke-linejoin="round"/>
<path d="M221.321 7.98999H206.615V20.3592H221.321V7.98999Z" fill="#407BFF"/>
<path d="M221.48 7.98999H206.774V20.3592H221.48V7.98999Z" stroke="#263238" stroke-width="0.835087" stroke-linecap="round" stroke-linejoin="round"/>
<path d="M208.409 15.6838V8.26782" stroke="#263238" stroke-width="0.835087" stroke-linecap="round" stroke-linejoin="round"/>
<path d="M208.409 20.5906V17.3965" stroke="#263238" stroke-width="0.835087" stroke-linecap="round" stroke-linejoin="round"/>
<path d="M210.28 20.5908V8.26782" stroke="#263238" stroke-width="0.835087" stroke-linecap="round" stroke-linejoin="round"/>
<path d="M212.15 11.3509V8.26782" stroke="#263238" stroke-width="0.835087" stroke-linecap="round" stroke-linejoin="round"/>
<path d="M212.15 20.5907V12.8322" stroke="#263238" stroke-width="0.835087" stroke-linecap="round" stroke-linejoin="round"/>
<path d="M215.245 20.5908V8.26782" stroke="#263238" stroke-width="0.835087" stroke-linecap="round" stroke-linejoin="round"/>
</g>
<g style="mix-blend-mode:multiply" opacity="0.3">
<path d="M106.752 106.139L112.219 106.601L112.037 104.074C112.037 104.074 107.132 103.611 106.752 106.139Z" fill="#407BFF"/>
</g>
<mask id="mask3_309_740" style="mask-type:luminance" maskUnits="userSpaceOnUse" x="85" y="104" width="18" height="59">
<path d="M94.7685 104.805C94.7685 104.805 85.8795 113.573 85.8795 115.915C85.8795 118.258 85.2408 161.791 85.6666 162.819C86.0925 163.846 102.851 149.653 102.851 149.653L101.156 130.84" fill="white"/>
</mask>
<g mask="url(#mask3_309_740)">
<g style="mix-blend-mode:multiply" opacity="0.3">
<path d="M91.6889 158.661L102.851 149.653L88.5941 156.273C88.5941 156.273 87.3014 120.859 88.2747 118.11C89.248 115.36 95.3844 110.24 95.3844 110.24C95.3844 110.24 95.0194 107.388 96.9964 106.305C98.3523 105.688 99.8455 105.688 101.201 106.305L102.608 106.953C100.988 105.842 98.3727 103.592 94.3502 99.0187H94.259L95.2323 100.157L94.8065 104.787L90.5331 109.036C89.5674 110.221 85.9175 115.869 85.9175 115.869L85.7046 162.772L91.5064 158.226L91.6889 158.661Z" fill="#407BFF"/>
</g>
</g>
<path d="M94.7685 104.805C94.7685 104.805 85.8795 113.573 85.8795 115.915C85.8795 118.258 85.2408 161.791 85.6666 162.819C86.0925 163.846 102.851 149.653 102.851 149.653L101.156 130.84" stroke="#263238" stroke-width="0.835087" stroke-linecap="round" stroke-linejoin="round"/>
<path d="M96.4644 126.201L114.455 143.728" stroke="#263238" stroke-width="0.835087" stroke-linecap="round" stroke-linejoin="round"/>
<mask id="mask4_309_740" style="mask-type:luminance" maskUnits="userSpaceOnUse" x="108" y="66" width="67" height="33">
<path d="M108.646 86.5661C108.646 86.5661 126.097 66.3735 128.211 66.3735C130.325 66.3735 165.249 74.8728 167.789 75.3912C170.329 75.9097 174.564 76.9374 174.564 76.9374C174.564 76.9374 167.158 88.2789 164.618 92.1397C162.078 96.0005 160.816 98.3243 160.816 98.3243L132.241 82.3536" fill="white"/>
</mask>
<g mask="url(#mask4_309_740)">
<g style="mix-blend-mode:multiply" opacity="0.3">
<path d="M174.367 77.6595L163.531 73.6044L128.211 66.3735L119.261 78.3262C119.261 78.3262 127.017 72.4285 129.275 72.4285C131.534 72.4285 165.599 84.2238 168.816 85.3255L174.367 77.6595Z" fill="#407BFF"/>
</g>
</g>
<path d="M108.646 86.5661C108.646 86.5661 126.097 66.3735 128.211 66.3735C130.325 66.3735 165.249 74.8728 167.789 75.3912C170.329 75.9097 174.564 76.9374 174.564 76.9374C174.564 76.9374 167.158 88.2789 164.618 92.1397C162.078 96.0005 160.816 98.3243 160.816 98.3243L132.241 82.3536" stroke="#263238" stroke-width="0.835087" stroke-linecap="round" stroke-linejoin="round"/>
<path d="M137.1 86.2513L144.301 109.444" stroke="#263238" stroke-width="0.835087" stroke-linecap="round" stroke-linejoin="round"/>
<path d="M115.087 121.045L113.391 123.109L105.141 110.221" stroke="#263238" stroke-width="0.835087" stroke-linecap="round" stroke-linejoin="round"/>
<path d="M128.986 87.168L137.358 85.3811L130.241 91.4917" stroke="#263238" stroke-width="0.417543" stroke-linecap="round" stroke-linejoin="round"/>
<path d="M101.118 130.84L90.4875 128.942" stroke="#263238" stroke-width="0.417543" stroke-linecap="round" stroke-linejoin="round"/>
<path d="M95.1943 100.167C94.4303 102.469 94.3549 105.025 94.9814 107.388C96.0383 111.249 99.635 117.952 99.635 117.952L104.289 109.962" stroke="#263238" stroke-width="0.835087" stroke-linecap="round" stroke-linejoin="round"/>
<path d="M105.772 106.87C105.772 106.87 108.106 104.296 110.22 104.296H113.817C113.817 104.296 113.185 94.2415 110.22 88.8253C107.254 83.4091 103.232 86.2515 103.232 86.2515" stroke="#263238" stroke-width="0.835087" stroke-linecap="round" stroke-linejoin="round"/>
<path d="M101.962 151.199L127.367 136.765L129.481 127.748L138.157 125.452C138.157 125.452 139.853 123.387 139.64 125.452C139.427 127.516 137.1 128.285 136.256 130.349C135.412 132.414 135.404 136.534 134.347 138.339C133.29 140.145 129.481 142.209 129.481 142.209C129.481 142.209 100.905 171.327 98.7914 172.873C96.6775 174.419 92.4421 159.726 92.4421 159.726" fill="white"/>
<mask id="mask5_309_740" style="mask-type:luminance" maskUnits="userSpaceOnUse" x="92" y="124" width="48" height="49">
<path d="M101.962 151.199L127.367 136.765L129.481 127.748L138.157 125.452C138.157 125.452 139.853 123.387 139.64 125.452C139.427 127.516 137.1 128.285 136.256 130.349C135.412 132.414 135.404 136.534 134.347 138.339C133.29 140.145 129.481 142.209 129.481 142.209C129.481 142.209 100.905 171.327 98.7914 172.873C96.6775 174.419 92.4421 159.726 92.4421 159.726" fill="white"/>
</mask>
<g mask="url(#mask5_309_740)">
<g style="mix-blend-mode:multiply" opacity="0.3">
<path d="M91.689 158.661C92.6699 160.578 96.6771 168.512 96.9585 171.623C97.2854 175.169 99.8708 171.623 99.8708 171.623L123.139 148.023C123.139 148.023 100.19 165.716 98.2892 164.929C96.3882 164.142 96.008 158.245 96.008 158.245L102.852 149.653L91.689 158.661Z" fill="#407BFF"/>
</g>
</g>
<path d="M101.962 151.199L127.367 136.765L129.481 127.748L138.157 125.452C138.157 125.452 139.853 123.387 139.64 125.452C139.427 127.516 137.1 128.285 136.256 130.349C135.412 132.414 135.404 136.534 134.347 138.339C133.29 140.145 129.481 142.209 129.481 142.209C129.481 142.209 100.905 171.327 98.7914 172.873C96.6775 174.419 92.4421 159.726 92.4421 159.726" stroke="#263238" stroke-width="0.835087" stroke-linecap="round" stroke-linejoin="round"/>
<path d="M138.156 125.452C138.156 125.452 134.012 128.461 134.431 129.479" stroke="#263238" stroke-width="0.417543" stroke-linecap="round" stroke-linejoin="round"/>
<path d="M134.849 126.396L131.708 128.433" stroke="#263238" stroke-width="0.417543" stroke-linecap="round" stroke-linejoin="round"/>
</svg>
