<svg width="335" height="301" viewBox="0 0 335 301" fill="none" xmlns="http://www.w3.org/2000/svg">
<path d="M0 266.59H335V266.78H0V266.59Z" fill="#EBEBEB"/>
<path d="M176.211 232.607H305.581C306.594 232.605 307.566 232.146 308.282 231.33C308.998 230.514 309.4 229.409 309.4 228.256V21.4394C309.391 20.2934 308.985 19.1977 308.27 18.3902C307.555 17.5827 306.589 17.1287 305.581 17.1267H176.211C175.196 17.1267 174.223 17.5851 173.505 18.401C172.788 19.2169 172.385 20.3236 172.385 21.4775V228.256C172.385 229.41 172.788 230.517 173.505 231.333C174.223 232.149 175.196 232.607 176.211 232.607ZM305.581 17.2791C306.55 17.2811 307.479 17.7203 308.163 18.5003C308.848 19.2803 309.232 20.3373 309.232 21.4394V228.256C309.232 229.358 308.848 230.415 308.163 231.195C307.479 231.975 306.55 232.415 305.581 232.417H176.211C175.241 232.415 174.311 231.976 173.626 231.196C172.94 230.416 172.554 229.359 172.552 228.256V21.4394C172.554 20.3366 172.94 19.2796 173.626 18.4998C174.311 17.7201 175.241 17.2811 176.211 17.2791H305.581Z" fill="#EBEBEB"/>
<path d="M31.2827 232.607H160.66C161.674 232.605 162.646 232.146 163.363 231.331C164.08 230.515 164.484 229.41 164.485 228.256V21.4394C164.475 20.2927 164.067 19.197 163.351 18.3897C162.635 17.5824 161.668 17.1287 160.66 17.1267H31.2827C30.2761 17.1307 29.3115 17.5856 28.5979 18.3929C27.8843 19.2001 27.4792 20.2947 27.4704 21.4394V228.256C27.4704 229.408 27.8716 230.512 28.5862 231.327C29.3007 232.143 30.2704 232.603 31.2827 232.607ZM160.66 17.2791C161.629 17.2811 162.559 17.7201 163.244 18.4998C163.93 19.2796 164.316 20.3366 164.318 21.4394V228.256C164.316 229.359 163.93 230.416 163.244 231.196C162.559 231.976 161.629 232.415 160.66 232.417H31.2827C30.313 232.415 29.3836 231.976 28.6979 231.196C28.0122 230.416 27.6263 229.359 27.6245 228.256V21.4394C27.6263 20.3366 28.0122 19.2796 28.6979 18.4998C29.3836 17.7201 30.313 17.2811 31.2827 17.2791H160.66Z" fill="#EBEBEB"/>
<path d="M200.705 273.844H218.125V274.034H200.705V273.844Z" fill="#EBEBEB"/>
<path d="M263.605 271.779H299.852V271.969H263.605V271.779Z" fill="#EBEBEB"/>
<path d="M218.795 280.922H236.43V281.113H218.795V280.922Z" fill="#EBEBEB"/>
<path d="M135.97 279.642H161.986V279.832H135.97V279.642Z" fill="#EBEBEB"/>
<path d="M122.845 279.642H130.007V279.832H122.845V279.642Z" fill="#EBEBEB"/>
<path d="M33.5605 276.427H70.1157V276.617H33.5605V276.427Z" fill="#EBEBEB"/>
<path d="M257.521 96.1182H207.941C206.934 96.1182 205.968 96.5733 205.255 97.3835C204.543 98.1938 204.143 99.2926 204.143 100.438V266.59H261.3V100.431C261.299 99.2903 260.9 98.1968 260.192 97.3889C259.484 96.581 258.524 96.1242 257.521 96.1182Z" fill="#F5F5F5"/>
<path d="M249.2 106.191H256.57V124.851H249.2V106.191Z" fill="#EBEBEB"/>
<path d="M208.892 106.191H216.262V124.851H208.892V106.191Z" fill="#EBEBEB"/>
<path d="M235.766 106.191H243.136V124.851H235.766V106.191Z" fill="#EBEBEB"/>
<path d="M222.326 106.191H229.696V124.851H222.326V106.191Z" fill="#EBEBEB"/>
<path d="M249.2 135.648H256.57V154.308H249.2V135.648Z" fill="#EBEBEB"/>
<path d="M208.892 135.648H216.262V154.308H208.892V135.648Z" fill="#EBEBEB"/>
<path d="M235.766 135.648H243.136V154.308H235.766V135.648Z" fill="#EBEBEB"/>
<path d="M222.326 135.648H229.696V154.308H222.326V135.648Z" fill="#EBEBEB"/>
<path d="M249.2 165.105H256.57V183.766H249.2V165.105Z" fill="#EBEBEB"/>
<path d="M208.892 165.105H216.262V183.766H208.892V165.105Z" fill="#EBEBEB"/>
<path d="M235.766 165.105H243.136V183.766H235.766V165.105Z" fill="#EBEBEB"/>
<path d="M222.326 165.105H229.696V183.766H222.326V165.105Z" fill="#EBEBEB"/>
<path d="M249.2 194.562H256.57V213.223H249.2V194.562Z" fill="#EBEBEB"/>
<path d="M208.892 194.562H216.262V213.223H208.892V194.562Z" fill="#EBEBEB"/>
<path d="M235.766 194.562H243.136V213.223H235.766V194.562Z" fill="#EBEBEB"/>
<path d="M222.326 194.562H229.696V213.223H222.326V194.562Z" fill="#EBEBEB"/>
<path d="M249.2 224.02H256.57V242.68H249.2V224.02Z" fill="#EBEBEB"/>
<path d="M208.892 224.02H216.262V242.68H208.892V224.02Z" fill="#EBEBEB"/>
<path d="M235.766 224.02H243.136V242.68H235.766V224.02Z" fill="#EBEBEB"/>
<path d="M222.326 224.02H229.696V242.68H222.326V224.02Z" fill="#EBEBEB"/>
<path d="M81.7402 111.608H46.2302C45.8246 111.608 45.423 111.699 45.0482 111.876C44.6735 112.052 44.333 112.311 44.0462 112.637C43.7593 112.963 43.5318 113.351 43.3766 113.777C43.2214 114.203 43.1415 114.66 43.1415 115.121V266.59H84.7954V115.129C84.7972 114.202 84.4772 113.313 83.905 112.653C83.3328 111.994 82.5547 111.618 81.7402 111.608Z" fill="#F5F5F5"/>
<path d="M72.8151 120.767H79.5151V137.728H72.8151V120.767Z" fill="#EBEBEB"/>
<path d="M60.6013 120.767H67.3013V137.728H60.6013V120.767Z" fill="#EBEBEB"/>
<path d="M48.3874 120.767H55.0874V137.728H48.3874V120.767Z" fill="#EBEBEB"/>
<path d="M72.8151 147.55H79.5151V164.511H72.8151V147.55Z" fill="#EBEBEB"/>
<path d="M60.6013 147.55H67.3013V164.511H60.6013V147.55Z" fill="#EBEBEB"/>
<path d="M48.3874 147.55H55.0874V164.511H48.3874V147.55Z" fill="#EBEBEB"/>
<path d="M72.8151 174.333H79.5151V191.294H72.8151V174.333Z" fill="#EBEBEB"/>
<path d="M60.6013 174.333H67.3013V191.294H60.6013V174.333Z" fill="#EBEBEB"/>
<path d="M48.3874 174.333H55.0874V191.294H48.3874V174.333Z" fill="#EBEBEB"/>
<path d="M72.8151 201.108H79.5151V218.069H72.8151V201.108Z" fill="#EBEBEB"/>
<path d="M60.6013 201.108H67.3013V218.069H60.6013V201.108Z" fill="#EBEBEB"/>
<path d="M48.3874 201.108H55.0874V218.069H48.3874V201.108Z" fill="#EBEBEB"/>
<path d="M72.8151 227.89H79.5151V244.851H72.8151V227.89Z" fill="#EBEBEB"/>
<path d="M60.6013 227.89H67.3013V244.851H60.6013V227.89Z" fill="#EBEBEB"/>
<path d="M48.3874 227.89H55.0874V244.851H48.3874V227.89Z" fill="#EBEBEB"/>
<path d="M163.085 68.2607H105.404C104.233 68.2607 103.11 68.7898 102.282 69.7314C101.454 70.6731 100.989 71.9503 100.989 73.282V266.59H167.5V73.282C167.5 71.9503 167.035 70.6731 166.207 69.7314C165.379 68.7898 164.256 68.2607 163.085 68.2607Z" fill="#F5F5F5"/>
<path d="M153.404 79.9802H161.98V101.688H153.404V79.9802Z" fill="#EBEBEB"/>
<path d="M106.51 79.9802H115.086V101.688H106.51V79.9802Z" fill="#EBEBEB"/>
<path d="M137.772 79.9802H146.348V101.688H137.772V79.9802Z" fill="#EBEBEB"/>
<path d="M122.141 79.9802H130.717V101.688H122.141V79.9802Z" fill="#EBEBEB"/>
<path d="M153.404 114.252H161.98V135.96H153.404V114.252Z" fill="#EBEBEB"/>
<path d="M106.51 114.252H115.086V135.96H106.51V114.252Z" fill="#EBEBEB"/>
<path d="M137.772 114.252H146.348V135.96H137.772V114.252Z" fill="#EBEBEB"/>
<path d="M122.141 114.252H130.717V135.96H122.141V114.252Z" fill="#EBEBEB"/>
<path d="M153.404 148.525H161.98V170.233H153.404V148.525Z" fill="#EBEBEB"/>
<path d="M106.51 148.525H115.086V170.233H106.51V148.525Z" fill="#EBEBEB"/>
<path d="M137.772 148.525H146.348V170.233H137.772V148.525Z" fill="#EBEBEB"/>
<path d="M122.141 148.525H130.717V170.233H122.141V148.525Z" fill="#EBEBEB"/>
<path d="M153.404 182.798H161.98V204.506H153.404V182.798Z" fill="#EBEBEB"/>
<path d="M106.51 182.798H115.086V204.506H106.51V182.798Z" fill="#EBEBEB"/>
<path d="M137.772 182.798H146.348V204.506H137.772V182.798Z" fill="#EBEBEB"/>
<path d="M122.141 182.798H130.717V204.506H122.141V182.798Z" fill="#EBEBEB"/>
<path d="M153.404 217.063H161.98V238.771H153.404V217.063Z" fill="#EBEBEB"/>
<path d="M106.51 217.063H115.086V238.771H106.51V217.063Z" fill="#EBEBEB"/>
<path d="M137.772 217.063H146.348V238.771H137.772V217.063Z" fill="#EBEBEB"/>
<path d="M122.141 217.063H130.717V238.771H122.141V217.063Z" fill="#EBEBEB"/>
<path d="M167.5 139.291H204.142V266.59H167.5V139.291Z" fill="#E6E6E6"/>
<path d="M84.7952 152.922H100.982V266.59H84.7952V152.922Z" fill="#E6E6E6"/>
<path d="M261.32 266.59H293.386V213.444L261.32 201.108V266.59Z" fill="#E6E6E6"/>
<path d="M52.9298 47.1321C47.6837 42.1565 37.0106 32.4493 46.1896 31.0625C55.0068 29.7291 67.9981 35.5961 72.1454 40.7469C72.1454 35.8171 74.1889 31.1235 81.9743 27.3289C93.9539 21.4771 95.8098 42.7432 95.18 46.6444C99.9973 44.0157 115.206 44.5034 104.721 51.9172H51.496C51.496 51.9172 40.508 44.1071 52.9298 47.1321Z" fill="#F5F5F5"/>
<path d="M293.058 72.7489C293.098 69.9145 293.366 64.3674 288.958 63.6055C284.723 62.8435 281.849 66.1885 282.331 69.122C280.214 66.3104 277.36 63.6436 272.496 61.5025C264.998 58.1651 273.34 70.2802 275.283 72.5051C272.154 70.9812 266.044 71.2784 273.581 75.4996H295.691C295.691 75.4996 296.904 71.0193 293.058 72.7489Z" fill="#FAFAFA"/>
<path d="M200.283 39.1164H271.504C271.504 39.1164 267.377 33.417 260.932 35.2152C263.967 30.8187 265.581 14.3377 255.424 12.2804C250.258 11.2365 244.161 21.9191 244.034 27.5195C241.488 14.1167 234.453 -2.91295 223.653 0.424402C212.852 3.76176 221.221 28.0833 221.221 28.0833C221.221 28.0833 210.842 10.8936 202.226 18.5208C197.094 23.0925 206.729 33.516 206.729 33.516C206.729 33.516 194.93 33.417 200.283 39.1164Z" fill="#F5F5F5"/>
<path d="M167.5 301C95.7547 301 37.5936 297.138 37.5936 292.375C37.5936 287.611 95.7547 283.75 167.5 283.75C239.245 283.75 297.406 287.611 297.406 292.375C297.406 297.138 239.245 301 167.5 301Z" fill="#F5F5F5"/>
<path d="M202.212 234.001C205.959 234.093 209.524 235.85 212.145 238.896C214.766 241.942 216.234 246.034 216.234 250.295C216.234 254.557 214.766 258.649 212.145 261.695C209.524 264.74 205.959 266.498 202.212 266.59H199.345V234.001H202.212Z" fill="#263238"/>
<path d="M97.8198 234.001C99.7274 233.954 101.624 234.341 103.399 235.139C105.173 235.937 106.79 237.129 108.153 238.647C109.517 240.165 110.6 241.977 111.34 243.977C112.08 245.977 112.461 248.126 112.461 250.296C112.461 252.465 112.08 254.614 111.34 256.614C110.6 258.614 109.517 260.426 108.153 261.944C106.79 263.462 105.173 264.654 103.399 265.452C101.624 266.25 99.7274 266.637 97.8198 266.59H94.9589V234.001H97.8198Z" fill="#263238"/>
<path d="M145.122 266.582C137.211 266.582 130.797 259.289 130.797 250.292C130.797 241.295 137.211 234.001 145.122 234.001C153.033 234.001 159.447 241.295 159.447 250.292C159.447 259.289 153.033 266.582 145.122 266.582Z" fill="#263238"/>
<path d="M249.521 266.582C241.61 266.582 235.196 259.289 235.196 250.292C235.196 241.295 241.61 234.001 249.521 234.001C257.432 234.001 263.846 241.295 263.846 250.292C263.846 259.289 257.432 266.582 249.521 266.582Z" fill="#263238"/>
<path d="M129.565 163.924H183.922V242.466H129.565V163.924Z" fill="#407BFF"/>
<path opacity="0.2" d="M129.565 163.924H183.922V242.466H129.565V163.924Z" fill="black"/>
<path d="M74.6958 183.455L75.2058 183.949L73.042 186.838L72.532 186.344L74.6958 183.455Z" fill="#407BFF"/>
<path d="M83.5135 171.669L84.0234 172.163L77.2828 181.158L76.7729 180.664L83.5135 171.669Z" fill="#407BFF"/>
<path d="M129.565 242.459H62.0555V208.376C62.0544 205.846 62.848 203.398 64.2933 201.473L85.2978 173.403C87.5245 170.43 90.2924 168.043 93.41 166.407C96.5276 164.77 99.9206 163.923 103.354 163.924H129.565V242.459Z" fill="#407BFF"/>
<path d="M118.503 205.138V176.26C118.503 175.638 118.395 175.022 118.185 174.448C117.976 173.873 117.669 173.351 117.282 172.912C116.895 172.472 116.435 172.124 115.93 171.887C115.424 171.649 114.882 171.528 114.335 171.529H107.87C104.486 171.529 101.142 172.364 98.07 173.977C94.9977 175.589 92.2697 177.941 90.0746 180.87L74.1889 202.068C73.5508 202.918 73.1993 203.998 73.1973 205.115C73.1973 206.371 73.6354 207.575 74.4155 208.464C75.1956 209.353 76.2539 209.853 77.358 209.855H114.335C115.437 209.855 116.494 209.359 117.275 208.475C118.056 207.591 118.497 206.391 118.503 205.138Z" fill="white"/>
<path d="M62.0557 233.178H70.3905C70.8411 233.178 71.2839 233.044 71.6749 232.789C72.066 232.535 72.3917 232.168 72.6199 231.726C72.848 231.284 72.9707 230.782 72.9757 230.27C72.9807 229.757 72.8678 229.252 72.6484 228.805L71.2414 225.94C71.0189 225.48 70.6922 225.096 70.2951 224.828C69.8981 224.56 69.4452 224.417 68.9835 224.416H62.0557V233.178Z" fill="white"/>
<path d="M141.564 150.728H272.945V242.459H141.564V150.728Z" fill="#407BFF"/>
<path opacity="0.6" d="M141.564 150.728H272.945V242.459H141.564V150.728Z" fill="white"/>
<path opacity="0.5" d="M215.01 228.477H237.368V234.001H215.01V228.477Z" fill="#407BFF"/>
<path opacity="0.5" d="M266.808 228.477H272.945V234.001H266.808V228.477Z" fill="#407BFF"/>
<path opacity="0.4" d="M227.559 150.728H272.945V242.459H227.559V150.728Z" fill="#407BFF"/>
<path opacity="0.4" d="M252.55 150.728H253.28V242.459H252.55V150.728Z" fill="#407BFF"/>
<path d="M61.3988 242.459H273.601C274.208 242.459 274.7 243.018 274.7 243.709V247.572C274.7 248.262 274.208 248.821 273.601 248.821H61.3988C60.7919 248.821 60.3 248.262 60.3 247.572V243.709C60.3 243.018 60.7919 242.459 61.3988 242.459Z" fill="#263238"/>
<path d="M94.9457 266.582C87.0344 266.582 80.6211 259.289 80.6211 250.292C80.6211 241.295 87.0344 234.001 94.9457 234.001C102.857 234.001 109.27 241.295 109.27 250.292C109.27 259.289 102.857 266.582 94.9457 266.582Z" fill="#263238"/>
<path d="M94.9461 260.776C89.8545 260.776 85.7269 256.082 85.7269 250.292C85.7269 244.501 89.8545 239.807 94.9461 239.807C100.038 239.807 104.165 244.501 104.165 250.292C104.165 256.082 100.038 260.776 94.9461 260.776Z" fill="white"/>
<path d="M199.345 266.582C191.434 266.582 185.02 259.289 185.02 250.292C185.02 241.295 191.434 234.001 199.345 234.001C207.256 234.001 213.67 241.295 213.67 250.292C213.67 259.289 207.256 266.582 199.345 266.582Z" fill="#263238"/>
<path d="M199.345 260.776C194.254 260.776 190.126 256.082 190.126 250.292C190.126 244.501 194.254 239.807 199.345 239.807C204.437 239.807 208.564 244.501 208.564 250.292C208.564 256.082 204.437 260.776 199.345 260.776Z" fill="white"/>
<path d="M180.672 285.738L186.367 285.638L187.915 270.62L182.226 270.727L180.672 285.738Z" fill="#407BFF"/>
<path d="M186.515 284.892L180.31 284.999C180.201 284.998 180.095 285.044 180.013 285.127C179.931 285.21 179.88 285.324 179.868 285.448L179.325 291.224C179.315 291.37 179.332 291.517 179.375 291.656C179.417 291.794 179.485 291.921 179.573 292.028C179.662 292.135 179.769 292.22 179.888 292.277C180.006 292.334 180.134 292.362 180.263 292.359C182.495 292.275 185.717 292.07 188.531 292.024C191.821 291.963 191.499 292.115 195.359 292.024C197.69 291.986 198.039 289.281 197.06 289.06C192.504 288.031 192.049 287.978 187.935 285.349C187.505 285.057 187.015 284.899 186.515 284.892Z" fill="#263238"/>
<path d="M192.075 92.1866C193.938 96.7126 195.935 100.987 198.152 105.254C199.265 107.372 200.41 109.483 201.65 111.555C202.253 112.592 202.903 113.62 203.546 114.649C204.189 115.678 204.886 116.691 205.63 117.697L206.179 118.459C206.458 118.851 206.757 119.222 207.077 119.571C207.287 119.806 207.511 120.025 207.747 120.226C208.005 120.451 208.278 120.653 208.564 120.828C209.19 121.224 209.869 121.499 210.574 121.644C211.856 121.884 213.171 121.705 214.366 121.126C215.189 120.72 215.958 120.186 216.651 119.541C217.697 118.559 218.629 117.43 219.425 116.181C220.129 115.098 220.782 113.974 221.381 112.813C222.498 110.612 223.493 108.334 224.363 105.993C225.224 103.696 225.978 101.348 226.621 98.9604C226.779 98.3453 226.737 97.6861 226.502 97.1034C226.268 96.5207 225.857 96.0533 225.345 95.7869C224.832 95.5205 224.253 95.4729 223.712 95.6526C223.171 95.8324 222.705 96.2276 222.4 96.766L222.36 96.8345C220.253 100.784 217.958 104.6 215.485 108.264C214.907 109.098 214.289 109.897 213.636 110.656C213.113 111.283 212.531 111.842 211.901 112.325C211.66 112.485 211.465 112.561 211.452 112.531C211.439 112.5 211.693 112.356 212.122 112.409C212.408 112.464 212.681 112.583 212.926 112.759C212.959 112.759 212.993 112.813 212.799 112.508L212.383 111.83C210.147 108.025 208.083 104.093 206.199 100.05C204.243 95.9659 202.32 91.7294 200.491 87.6225V87.5463C199.946 86.2742 198.979 85.3003 197.803 84.8387C196.627 84.3772 195.338 84.4658 194.22 85.0852C193.101 85.7046 192.244 86.804 191.839 88.1414C191.433 89.4789 191.511 90.945 192.055 92.2171L192.075 92.1866Z" fill="#407BFF"/>
<path d="M222.179 98.6556L223.707 91.4475L229.663 94.3658C229.663 94.3658 229.134 100.088 224.973 100.797L222.179 98.6556Z" fill="#263238"/>
<path d="M222.494 96.8799C222.494 96.8799 220.557 99.7144 220.082 100.492C220.752 101.253 225.14 103.776 225.489 103.539C226.045 101.734 226.829 99.3486 226.829 99.3486L222.494 96.8799Z" fill="#263238"/>
<path d="M228.162 86.8604L230.353 89.2529C230.526 89.4476 230.649 89.6924 230.71 89.9609C230.77 90.2294 230.765 90.5115 230.694 90.7768L229.663 94.3351L223.706 91.4169L226.152 87.1118C226.261 86.9327 226.403 86.7823 226.567 86.6708C226.732 86.5593 226.916 86.4893 227.106 86.4654C227.297 86.4416 227.49 86.4645 227.672 86.5327C227.854 86.6008 228.021 86.7126 228.162 86.8604Z" fill="#263238"/>
<path d="M224.785 95.2801C224.993 93.8171 223.707 89.2301 222.628 88.5749C221.549 87.9196 222.166 91.0817 222.025 92.1484C221.636 95.0743 221.502 97.8631 222.822 97.7107C224.142 97.5583 224.45 97.825 224.785 95.2801Z" fill="#263238"/>
<path opacity="0.2" d="M187.915 270.628L187.117 278.37L181.422 278.469L182.22 270.727L187.915 270.628Z" fill="black"/>
<path d="M196.678 83.5382C185.851 82.0143 175.372 83.6601 169.664 84.9174C169.089 85.0453 168.542 85.3022 168.055 85.673C167.568 86.0438 167.151 86.5212 166.828 87.0772C166.505 87.6332 166.282 88.2568 166.173 88.9116C166.064 89.5664 166.071 90.2393 166.193 90.8911C170.441 113.978 169.778 137.203 170.133 142.14L200.578 141.584C202.661 113.277 201.348 95.2495 200.544 87.8966C200.418 86.7844 199.97 85.7517 199.269 84.9622C198.569 84.1727 197.657 83.6716 196.678 83.5382Z" fill="#407BFF"/>
<path d="M177.45 67.2173C178.414 71.8728 179.513 80.4524 176.699 83.8507C179.044 86.2128 182.099 88.9101 187.051 88.6891C192.002 88.4682 191.01 84.6889 189.637 82.7611C184.947 81.8925 184.947 77.9761 185.617 74.2425L177.45 67.2173Z" fill="#FFB573"/>
<path opacity="0.2" d="M180.786 70.0823L185.637 74.273C185.464 75.1397 185.359 76.0218 185.322 76.9094C183.54 76.7722 181.034 74.7683 180.773 72.6805C180.637 71.8208 180.642 70.9402 180.786 70.0823Z" fill="black"/>
<path d="M176.069 60.1535C176.786 66.5159 176.914 70.2875 179.949 73.3277C184.505 77.8994 191.278 74.3868 192.257 67.895C193.134 62.0432 191.821 52.6559 186.166 50.5377C184.914 50.078 183.58 49.987 182.289 50.2732C180.997 50.5593 179.791 51.2133 178.782 52.1739C177.774 53.1345 176.996 54.3704 176.521 55.766C176.047 57.1615 175.891 58.6711 176.069 60.1535Z" fill="#FFB573"/>
<path d="M175.741 65.6779C177.952 67.2018 180.478 66.4398 180.686 64.8397C180.894 63.2396 179.252 60.4737 178.636 59.1251C178.81 56.8392 180.23 56.1687 179.976 54.5533C181.631 54.7286 190.655 55.1934 190.441 52.877C190.227 50.5607 186.649 48.1758 182.401 48.7777C178.153 49.3797 175.373 51.4827 175.775 54.4238C173.403 53.9895 172.311 58.5536 175.741 65.6779Z" fill="#263238"/>
<path d="M173.765 66.6534C174.139 67.3301 174.628 67.9155 175.203 68.3759C175.778 68.8362 176.428 69.1624 177.115 69.3354C178.95 69.785 179.795 67.8877 179.185 65.9829C178.656 64.2608 177.061 61.9597 175.252 62.3636C174.858 62.4569 174.491 62.66 174.184 62.9548C173.876 63.2495 173.638 63.6266 173.49 64.052C173.343 64.4775 173.291 64.938 173.339 65.3921C173.386 65.8462 173.533 66.2796 173.765 66.6534Z" fill="#FFB573"/>
<path d="M182.91 205.832C183.137 173.281 176.806 142.018 176.806 142.018L200.537 141.584C200.537 141.584 197.81 188.596 196.859 208.293C195.874 228.766 189.368 276.869 189.368 276.869L179.734 277.029C179.734 277.029 181.57 231.525 182.91 205.832Z" fill="#407BFF"/>
<path opacity="0.4" d="M182.91 205.832C183.137 173.281 176.806 142.018 176.806 142.018L200.537 141.584C200.537 141.584 197.81 188.596 196.859 208.293C195.874 228.766 189.368 276.869 189.368 276.869L179.734 277.029C179.734 277.029 181.57 231.525 182.91 205.832Z" fill="black"/>
<path opacity="0.2" d="M181.985 159.932C188.752 170.462 185.711 190.273 182.937 204.277C182.827 188.836 181.673 173.427 179.486 158.187L181.985 159.932Z" fill="black"/>
<path d="M190.655 272.602L190.032 277.067L179.379 277.272L178.776 273.051L190.655 272.602Z" fill="#263238"/>
<path d="M183.58 61.2207C183.58 61.7388 183.875 62.1427 184.176 62.1122C184.478 62.0817 184.692 61.6474 184.658 61.1293C184.625 60.6111 184.364 60.2073 184.062 60.2302C183.761 60.253 183.526 60.695 183.58 61.2207Z" fill="#263238"/>
<path d="M189.482 60.4666C189.482 60.9923 189.777 61.3885 190.079 61.3657C190.38 61.3428 190.595 60.8933 190.561 60.3751C190.528 59.857 190.266 59.4532 189.965 59.476C189.663 59.4989 189.449 59.9484 189.482 60.4666Z" fill="#263238"/>
<path d="M188.27 60.8853C188.906 62.4303 189.729 63.8666 190.715 65.1522C190.418 65.4324 190.07 65.6361 189.696 65.7492C189.323 65.8623 188.932 65.8822 188.551 65.8075L188.27 60.8853Z" fill="#ED893E"/>
<path d="M186.689 67.6515C186.173 67.6228 185.669 67.4725 185.208 67.2101C184.746 66.9478 184.338 66.5791 184.009 66.1276C183.987 66.0953 183.978 66.0546 183.983 66.0146C183.988 65.9746 184.007 65.9385 184.035 65.9143C184.064 65.89 184.099 65.8796 184.135 65.8853C184.17 65.891 184.202 65.9124 184.223 65.9447C184.6 66.4299 185.073 66.8059 185.603 67.0417C186.133 67.2776 186.705 67.3665 187.271 67.301C187.292 67.2958 187.313 67.2959 187.334 67.3014C187.354 67.3068 187.374 67.3174 187.39 67.3324C187.406 67.3474 187.42 67.3664 187.429 67.388C187.438 67.4096 187.443 67.4333 187.443 67.4572C187.443 67.4812 187.438 67.5048 187.429 67.5264C187.42 67.548 187.406 67.567 187.39 67.582C187.374 67.597 187.354 67.6076 187.334 67.6131C187.313 67.6185 187.292 67.6186 187.271 67.6134C187.078 67.6407 186.883 67.6534 186.689 67.6515Z" fill="#263238"/>
<path d="M182.615 59.4758C182.569 59.4749 182.525 59.459 182.488 59.4301C182.458 59.4078 182.432 59.379 182.412 59.3454C182.393 59.3118 182.379 59.274 182.372 59.2343C182.365 59.1946 182.365 59.1537 182.373 59.1141C182.38 59.0744 182.394 59.0368 182.414 59.0034C182.639 58.5866 182.949 58.2375 183.317 57.9855C183.686 57.7336 184.102 57.5861 184.531 57.5557C184.602 57.5557 184.67 57.5878 184.721 57.6449C184.771 57.7021 184.799 57.7796 184.799 57.8604C184.799 57.9433 184.77 58.0228 184.719 58.0813C184.667 58.1399 184.597 58.1729 184.524 58.1729C184.186 58.2049 183.86 58.3272 183.571 58.5298C183.282 58.7323 183.04 59.0094 182.863 59.3386C182.836 59.3849 182.799 59.4221 182.756 59.4462C182.712 59.4704 182.663 59.4806 182.615 59.4758Z" fill="#263238"/>
<path d="M192.022 58.0508C191.979 58.0579 191.934 58.0525 191.893 58.0352C191.852 58.0179 191.816 57.9892 191.787 57.9517C191.574 57.6532 191.301 57.4171 190.991 57.2634C190.681 57.1096 190.343 57.0425 190.005 57.0679C189.934 57.0766 189.863 57.0536 189.807 57.0039C189.751 56.9541 189.714 56.8814 189.704 56.8012C189.699 56.7611 189.701 56.7204 189.711 56.6813C189.72 56.6423 189.736 56.6058 189.758 56.5739C189.78 56.542 189.807 56.5153 189.838 56.4955C189.869 56.4756 189.903 56.463 189.938 56.4583C190.364 56.4224 190.79 56.5026 191.183 56.6921C191.576 56.8816 191.923 57.175 192.196 57.5479C192.241 57.6097 192.263 57.6892 192.256 57.7691C192.25 57.8489 192.216 57.9228 192.162 57.9746C192.125 58.0175 192.075 58.0444 192.022 58.0508Z" fill="#263238"/>
<path d="M150.509 285.738L156.21 285.638L158.555 270.62L152.854 270.727L150.509 285.738Z" fill="#407BFF"/>
<path d="M156.519 284.892L150.314 284.999C150.204 284.999 150.097 285.045 150.013 285.128C149.93 285.21 149.875 285.324 149.859 285.448L149.142 291.224C149.125 291.368 149.136 291.514 149.174 291.653C149.212 291.791 149.276 291.919 149.361 292.026C149.447 292.134 149.551 292.22 149.668 292.277C149.785 292.335 149.912 292.363 150.04 292.359C152.277 292.276 152.981 292.07 155.795 292.024C159.091 291.963 157.564 292.116 161.43 292.024C163.761 291.986 164.217 289.296 163.225 289.06C160.09 288.298 159.306 286.873 157.926 285.349C157.527 284.994 157.022 284.83 156.519 284.892Z" fill="#263238"/>
<path d="M155.333 285.57C156.318 285.608 156.847 285.57 157.102 285.06C157.356 284.549 158.247 283.063 158.18 282.507C158.113 281.951 154.114 281.494 153.718 282.393C153.323 283.292 153.323 285.509 155.333 285.57Z" fill="#263238"/>
<path d="M186.729 285.57C187.345 285.608 187.674 285.57 187.821 285.06C188.127 284.243 188.339 283.385 188.451 282.507C188.404 281.943 185.892 281.494 185.657 282.393C185.423 283.292 185.476 285.509 186.729 285.57Z" fill="#263238"/>
<path opacity="0.2" d="M158.555 270.628L157.343 278.37L151.641 278.469L152.854 270.727L158.555 270.628Z" fill="black"/>
<path d="M160.257 201.984C162.937 172.664 166.086 148.647 170.12 142.14L190.28 141.774C190.28 141.774 178.522 187.766 173.992 207.15C169.302 227.304 160.05 274.918 160.05 274.918L150.871 275.063C150.871 275.063 154.67 224.888 160.257 201.984Z" fill="#407BFF"/>
<path opacity="0.4" d="M160.257 201.984C162.937 172.664 166.086 148.647 170.12 142.14L190.28 141.774C190.28 141.774 178.522 187.766 173.992 207.15C169.302 227.304 160.05 274.918 160.05 274.918L150.871 275.063C150.871 275.063 154.67 224.888 160.257 201.984Z" fill="black"/>
<path d="M161.202 272.602L160.458 277.067L150.154 277.272L149.698 273.051L161.202 272.602Z" fill="#263238"/>
<path d="M183.466 93.398C183.526 91.7674 185.175 89.5882 186.247 88.6967C178.307 86.2051 176.82 82.9287 176.82 82.9287C176.249 83.0974 175.701 83.3538 175.192 83.6907C174.723 88.75 180.23 92.2322 183.466 93.398Z" fill="white"/>
<path d="M188.15 88.567C189.931 89.5093 191.392 91.0881 192.31 93.0625C195.613 86.3574 190.97 82.4866 190.97 82.4866C190.456 82.3216 189.918 82.2801 189.389 82.3647C190.28 84.6049 189.255 87.5536 188.15 88.567Z" fill="white"/>
<path d="M141.016 96.3173L191.45 105.186L185.799 146.752L135.364 137.883L141.016 96.3173Z" fill="#407BFF"/>
<path opacity="0.9" d="M141.016 96.3173L191.45 105.186L185.799 146.752L135.364 137.883L141.016 96.3173Z" fill="white"/>
<path opacity="0.2" d="M141.012 96.3131L167.305 100.937L161.653 142.503L135.36 137.879L141.012 96.3131Z" fill="#407BFF"/>
<path opacity="0.3" d="M177.773 133.631L184.103 134.744L183.149 141.762L176.819 140.649L177.773 133.631Z" fill="#407BFF"/>
<path opacity="0.3" d="M178.956 124.924L185.286 126.037L184.332 133.055L178.002 131.942L178.956 124.924Z" fill="#407BFF"/>
<path opacity="0.5" d="M175.194 102.33L184.119 103.9L183.643 107.401L174.718 105.832L175.194 102.33Z" fill="#407BFF"/>
<path opacity="0.5" d="M147.276 97.4127L153.546 98.5154L153.07 102.017L146.8 100.914L147.276 97.4127Z" fill="#407BFF"/>
<path d="M168.016 85.7018C164.15 87.8021 160.422 90.2162 156.86 92.9251C154.99 94.3184 153.2 95.8453 151.5 97.4969C150.569 98.4131 149.691 99.3981 148.874 100.446C148.406 101.063 147.974 101.714 147.581 102.396C147.074 103.262 146.675 104.203 146.395 105.193C146.203 105.864 146.091 106.56 146.06 107.265C146.05 107.387 146.05 107.509 146.06 107.631V107.89V108.416L146.093 109.467L146.174 110.45C146.227 111.105 146.288 111.761 146.382 112.378C146.475 112.995 146.536 113.635 146.643 114.237C146.998 116.698 147.521 119.037 148.043 121.369C149.133 125.988 150.475 130.526 152.063 134.954C152.276 135.552 152.672 136.042 153.178 136.332C153.685 136.623 154.267 136.694 154.816 136.533C155.365 136.371 155.843 135.989 156.163 135.456C156.482 134.923 156.621 134.276 156.552 133.636V133.575C156.076 129.004 155.494 124.386 155.071 119.86C154.837 117.574 154.656 115.342 154.535 113.155C154.495 112.606 154.495 112.081 154.468 111.54C154.442 110.999 154.468 110.481 154.468 109.97V109.208V108.507V108.157V107.981C154.468 107.981 154.468 107.806 154.468 107.905C154.474 108.027 154.474 108.149 154.468 108.271C154.468 108.355 154.542 108.187 154.703 107.981C154.911 107.71 155.134 107.456 155.373 107.219C155.962 106.566 156.586 105.955 157.242 105.391C158.663 104.164 160.257 102.96 161.899 101.81C165.188 99.5237 168.726 97.3292 172.177 95.2491H172.223C173.295 94.5882 174.098 93.4789 174.462 92.1562C174.827 90.8336 174.725 89.4014 174.177 88.1632C173.629 86.925 172.679 85.978 171.527 85.5228C170.376 85.0677 169.114 85.14 168.009 85.7247L168.016 85.7018Z" fill="#407BFF"/>
<path d="M156.063 132.417L159.48 137.69L152.994 140.388C152.994 140.388 150.408 135.183 152.619 133.179L156.063 132.417Z" fill="#263238"/>
<path d="M158.622 144.426L156.21 144.936C155.746 145.03 155.267 144.935 154.858 144.667C154.449 144.4 154.135 143.977 153.973 143.473L152.994 140.426L159.46 137.69L160.197 141.736C160.302 142.33 160.194 142.947 159.899 143.452C159.604 143.956 159.145 144.306 158.622 144.426Z" fill="#263238"/>
<path d="M156.626 133.881C156.626 133.881 156.505 130.292 156.425 129.355C155.48 129.286 150.696 130.543 150.576 130.985C151.165 132.784 151.916 135.176 151.916 135.176L156.626 133.881Z" fill="#263238"/>
<path d="M172.987 59.034C176.223 58.6225 189.516 54.9423 190.749 53.487C190.836 50.6754 189.409 47.8333 188.531 47.1932C186.085 45.3645 180.705 45.296 178.997 45.8446C177.288 46.3932 172.612 49.0981 171.835 51.704C171.232 53.7689 172.987 59.034 172.987 59.034Z" fill="#407BFF"/>
<path d="M186.407 52.6107C190.488 51.8869 194.367 52.2069 195.74 54.5537C197.275 57.1748 192.223 53.2812 189.208 54.9575C184.163 57.7768 185.362 58.2187 177.717 58.0053C181.65 55.7347 181.677 53.4489 186.407 52.6107Z" fill="#407BFF"/>
<path opacity="0.6" d="M186.407 52.6107C190.488 51.8869 194.367 52.2069 195.74 54.5537C197.275 57.1748 192.223 53.2812 189.208 54.9575C184.163 57.7768 185.362 58.2187 177.717 58.0053C181.65 55.7347 181.677 53.4489 186.407 52.6107Z" fill="white"/>
<path d="M177.309 63.5215C177.228 63.4556 177.173 63.3568 177.156 63.2459C177.138 63.135 177.16 63.0207 177.215 62.9272C177.273 62.8354 177.36 62.7734 177.458 62.7548C177.556 62.7363 177.656 62.7626 177.737 62.8281C179.136 63.9262 180.44 65.1739 181.63 66.5541C183.091 64.8244 187.198 63.0034 189.348 63.0415C190.883 63.0415 191.901 62.9577 193.047 64.2454C194.025 65.335 193.214 71.1029 192.598 72.7335C192.242 73.628 191.713 74.4195 191.051 75.0488C190.388 75.6782 189.609 76.1292 188.772 76.368C186.508 76.8328 181.67 77.13 181.469 73.3659C181.427 72.5209 181.331 71.6806 181.181 70.8515C180.86 70.914 180.535 70.9472 180.21 70.9505C179.23 70.9747 178.272 70.6231 177.489 69.9524C177.45 69.9188 177.417 69.8766 177.393 69.8283C177.368 69.78 177.352 69.7266 177.346 69.6713C177.34 69.6159 177.343 69.5597 177.356 69.5059C177.37 69.4521 177.392 69.4019 177.422 69.3581C177.453 69.3133 177.49 69.2757 177.533 69.2476C177.576 69.2195 177.624 69.2014 177.673 69.1943C177.722 69.1872 177.772 69.1913 177.82 69.2064C177.868 69.2214 177.913 69.2471 177.952 69.2819C178.392 69.6366 178.891 69.8869 179.418 70.0178C179.945 70.1487 180.49 70.1575 181.02 70.0438C180.806 68.9314 180.699 68.2151 181.174 67.2856C180 65.8872 178.704 64.6262 177.309 63.5215Z" fill="#407BFF"/>
<path opacity="0.6" d="M177.309 63.5215C177.228 63.4556 177.173 63.3568 177.156 63.2459C177.138 63.135 177.16 63.0207 177.215 62.9272C177.273 62.8354 177.36 62.7734 177.458 62.7548C177.556 62.7363 177.656 62.7626 177.737 62.8281C179.136 63.9262 180.44 65.1739 181.63 66.5541C183.091 64.8244 187.198 63.0034 189.348 63.0415C190.883 63.0415 191.901 62.9577 193.047 64.2454C194.025 65.335 193.214 71.1029 192.598 72.7335C192.242 73.628 191.713 74.4195 191.051 75.0488C190.388 75.6782 189.609 76.1292 188.772 76.368C186.508 76.8328 181.67 77.13 181.469 73.3659C181.427 72.5209 181.331 71.6806 181.181 70.8515C180.86 70.914 180.535 70.9472 180.21 70.9505C179.23 70.9747 178.272 70.6231 177.489 69.9524C177.45 69.9188 177.417 69.8766 177.393 69.8283C177.368 69.78 177.352 69.7266 177.346 69.6713C177.34 69.6159 177.343 69.5597 177.356 69.5059C177.37 69.4521 177.392 69.4019 177.422 69.3581C177.453 69.3133 177.49 69.2757 177.533 69.2476C177.576 69.2195 177.624 69.2014 177.673 69.1943C177.722 69.1872 177.772 69.1913 177.82 69.2064C177.868 69.2214 177.913 69.2471 177.952 69.2819C178.392 69.6366 178.891 69.8869 179.418 70.0178C179.945 70.1487 180.49 70.1575 181.02 70.0438C180.806 68.9314 180.699 68.2151 181.174 67.2856C180 65.8872 178.704 64.6262 177.309 63.5215Z" fill="white"/>
</svg>
