<svg width="366" height="321" viewBox="0 0 366 321" fill="none" xmlns="http://www.w3.org/2000/svg">
<path d="M18.9155 224.746L28.6632 318.123" stroke="#263238" stroke-linecap="round" stroke-linejoin="round"/>
<path d="M27.2685 304.916L22.9302 300.347" stroke="#263238" stroke-linecap="round" stroke-linejoin="round"/>
<path d="M24.3633 301.841C24.353 301.079 24.1799 300.328 23.8556 299.638C23.5314 298.949 23.0634 298.336 22.4831 297.842C21.2733 296.763 14.9007 294.082 14.2997 296.301C13.6447 298.767 20.1637 303.56 24.3633 301.841Z" fill="#407BFF" stroke="#263238" stroke-linecap="round" stroke-linejoin="round"/>
<path d="M24.3642 301.841L18.2998 298.066" stroke="#263238" stroke-linecap="round" stroke-linejoin="round"/>
<path d="M28.3475 315.211L24.1094 311.681" stroke="#263238" stroke-linecap="round" stroke-linejoin="round"/>
<path d="M25.5422 313.176C25.5343 312.415 25.3631 311.663 25.0401 310.973C24.717 310.284 24.2497 309.671 23.6697 309.177C22.4599 308.091 16.0873 305.417 15.4863 307.636C14.8236 310.094 21.3426 314.887 25.5422 313.176Z" fill="#407BFF" stroke="#263238" stroke-linecap="round" stroke-linejoin="round"/>
<path d="M25.5429 313.176L19.4785 309.393" stroke="#263238" stroke-linecap="round" stroke-linejoin="round"/>
<path d="M24.3249 276.544L20.0405 272.691" stroke="#263238" stroke-linecap="round" stroke-linejoin="round"/>
<path d="M21.4741 274.17C21.4663 273.409 21.295 272.657 20.972 271.968C20.649 271.278 20.1817 270.665 19.6017 270.171C18.3842 269.092 12.0193 266.411 11.4105 268.63C10.7556 271.088 17.2745 275.897 21.4741 274.17Z" fill="#407BFF" stroke="#263238" stroke-linecap="round" stroke-linejoin="round"/>
<path d="M21.474 274.186L15.4097 270.41" stroke="#263238" stroke-linecap="round" stroke-linejoin="round"/>
<path d="M25.5191 288.595L21.2271 284.026" stroke="#263238" stroke-linecap="round" stroke-linejoin="round"/>
<path d="M22.6607 285.521C22.6503 284.759 22.4773 284.008 22.153 283.318C21.8287 282.628 21.3608 282.016 20.7805 281.521C19.5707 280.435 13.1981 277.761 12.5971 279.98C11.9421 282.438 18.4611 287.27 22.6607 285.521Z" fill="#407BFF" stroke="#263238" stroke-linecap="round" stroke-linejoin="round"/>
<path d="M22.6605 285.521L16.5962 281.737" stroke="#263238" stroke-linecap="round" stroke-linejoin="round"/>
<path d="M22.4141 258.659L18.1221 254.282" stroke="#263238" stroke-linecap="round" stroke-linejoin="round"/>
<path d="M19.5552 255.777C19.5449 255.015 19.3718 254.264 19.0475 253.574C18.7232 252.884 18.2553 252.272 17.675 251.778C16.4652 250.691 10.1003 248.017 9.4916 250.237C8.83662 252.695 15.3556 257.488 19.5552 255.777Z" fill="#407BFF" stroke="#263238" stroke-linecap="round" stroke-linejoin="round"/>
<path d="M19.5556 255.777L13.4912 251.994" stroke="#263238" stroke-linecap="round" stroke-linejoin="round"/>
<path d="M20.349 238.971L16.188 235.788" stroke="#263238" stroke-linecap="round" stroke-linejoin="round"/>
<path d="M17.6208 237.283C17.6129 236.522 17.4417 235.77 17.1187 235.08C16.7957 234.391 16.3283 233.778 15.7483 233.284C14.5385 232.205 8.16595 229.524 7.56491 231.743C6.90222 234.209 13.4212 239.002 17.6208 237.283Z" fill="#407BFF" stroke="#263238" stroke-linecap="round" stroke-linejoin="round"/>
<path d="M17.621 237.283L11.5566 233.508" stroke="#263238" stroke-linecap="round" stroke-linejoin="round"/>
<path d="M26.8525 298.62L30.4357 292.78" stroke="#263238" stroke-linecap="round" stroke-linejoin="round"/>
<path d="M29.3412 294.536C29.1954 293.788 29.21 293.017 29.384 292.274C29.558 291.532 29.8874 290.835 30.3506 290.229C31.3138 288.927 36.9929 284.989 38.0563 287.062C39.189 289.312 33.8028 295.346 29.3412 294.536Z" fill="#407BFF" stroke="#263238" stroke-linecap="round" stroke-linejoin="round"/>
<path d="M29.3418 294.536L33.6107 290.529" stroke="#263238" stroke-linecap="round" stroke-linejoin="round"/>
<path d="M23.7393 268.8L27.3224 262.951" stroke="#263238" stroke-linecap="round" stroke-linejoin="round"/>
<path d="M26.2279 264.708C26.0803 263.961 26.0939 263.19 26.268 262.449C26.4421 261.707 26.7726 261.012 27.2374 260.408C28.2006 259.098 32.6313 255.823 33.6947 257.896C34.8428 260.146 30.6895 265.517 26.2279 264.708Z" fill="#407BFF" stroke="#263238" stroke-linecap="round" stroke-linejoin="round"/>
<path d="M26.228 264.708L31.6913 259.491" stroke="#263238" stroke-linecap="round" stroke-linejoin="round"/>
<path d="M22.3677 255.692L25.9585 249.844" stroke="#263238" stroke-linecap="round" stroke-linejoin="round"/>
<path d="M24.8873 251.601C24.7371 250.853 24.7495 250.083 24.9237 249.341C25.0979 248.599 25.4298 247.903 25.8968 247.301C26.8523 245.991 32.5314 242.061 33.6024 244.126C34.7121 246.376 29.3258 252.41 24.8873 251.601Z" fill="#407BFF" stroke="#263238" stroke-linecap="round" stroke-linejoin="round"/>
<path d="M24.8643 251.601L30.3199 246.384" stroke="#263238" stroke-linecap="round" stroke-linejoin="round"/>
<path d="M20.3647 236.474L23.9479 230.633" stroke="#263238" stroke-linecap="round" stroke-linejoin="round"/>
<path d="M22.8534 232.39C22.7057 231.643 22.7194 230.873 22.8935 230.131C23.0676 229.39 23.3981 228.694 23.8628 228.09C24.8261 226.78 30.5051 222.843 31.5685 224.916C32.7089 227.166 27.315 233.199 22.8534 232.39Z" fill="#407BFF" stroke="#263238" stroke-linecap="round" stroke-linejoin="round"/>
<path d="M22.8535 232.39L28.3168 227.166" stroke="#263238" stroke-linecap="round" stroke-linejoin="round"/>
<path d="M18.8309 224.192C18.6833 223.444 18.697 222.674 18.871 221.933C19.0451 221.191 19.3756 220.495 19.8404 219.892C20.8036 218.582 26.4827 214.652 27.546 216.717C28.6865 218.967 23.2925 225.001 18.8309 224.192Z" fill="#407BFF" stroke="#263238" stroke-linecap="round" stroke-linejoin="round"/>
<path d="M18.8311 224.191L24.2944 218.975" stroke="#263238" stroke-linecap="round" stroke-linejoin="round"/>
<path d="M19.1468 224.415C18.3888 224.485 17.6247 224.391 16.9057 224.141C16.1867 223.892 15.5295 223.491 14.978 222.966C13.7759 221.872 10.4548 215.808 12.6278 214.975C14.9857 214.066 20.4259 220.069 19.1468 224.415Z" fill="#407BFF" stroke="#263238" stroke-linecap="round" stroke-linejoin="round"/>
<path d="M19.1464 224.415L14.5308 218.443" stroke="#263238" stroke-linecap="round" stroke-linejoin="round"/>
<path d="M34.4966 197.892V317.892" stroke="#263238" stroke-linecap="round" stroke-linejoin="round"/>
<path d="M46.3484 238.47L38.0571 318.355" stroke="#263238" stroke-linecap="round" stroke-linejoin="round"/>
<path d="M38.1953 317.769L35.7988 315.033" stroke="#263238" stroke-linecap="round" stroke-linejoin="round"/>
<path d="M35.799 315.01C35.9466 314.263 35.9329 313.493 35.7589 312.751C35.5848 312.01 35.2543 311.314 34.7895 310.711C33.8263 309.401 28.1472 305.471 27.0839 307.544C25.9434 309.817 31.3374 315.85 35.799 315.01Z" fill="#407BFF" stroke="#263238" stroke-linecap="round" stroke-linejoin="round"/>
<path d="M35.7991 315.033L30.644 310.086" stroke="#263238" stroke-linecap="round" stroke-linejoin="round"/>
<path d="M41.1158 289.32L37.5635 286.353" stroke="#263238" stroke-linecap="round" stroke-linejoin="round"/>
<path d="M38.6729 287.378C38.8205 286.63 38.8061 285.859 38.6306 285.118C38.4552 284.376 38.1227 283.68 37.6557 283.078C36.6925 281.768 31.0135 277.838 29.9501 279.903C28.8174 282.161 34.2113 288.187 38.6729 287.378Z" fill="#407BFF" stroke="#263238" stroke-linecap="round" stroke-linejoin="round"/>
<path d="M38.6731 287.378L33.5181 282.431" stroke="#263238" stroke-linecap="round" stroke-linejoin="round"/>
<path d="M39.9902 302.797L36.3994 296.956" stroke="#263238" stroke-linecap="round" stroke-linejoin="round"/>
<path d="M37.4938 298.713C37.6414 297.966 37.6278 297.195 37.4537 296.454C37.2796 295.712 36.9491 295.016 36.4843 294.413C35.5211 293.103 29.8421 289.173 28.7787 291.238C27.6382 293.496 33.0322 299.522 37.4938 298.713Z" fill="#407BFF" stroke="#263238" stroke-linecap="round" stroke-linejoin="round"/>
<path d="M37.4944 298.713L32.3394 293.766" stroke="#263238" stroke-linecap="round" stroke-linejoin="round"/>
<path d="M42.9111 271.157L39.4897 267.212" stroke="#263238" stroke-linecap="round" stroke-linejoin="round"/>
<path d="M40.584 268.961C40.7316 268.214 40.7172 267.443 40.5417 266.701C40.3663 265.959 40.0339 265.264 39.5669 264.662C38.6037 263.359 32.9246 259.422 31.8612 261.494C30.7285 263.745 36.1224 269.778 40.584 268.961Z" fill="#407BFF" stroke="#263238" stroke-linecap="round" stroke-linejoin="round"/>
<path d="M40.5838 268.961L35.4287 264.022" stroke="#263238" stroke-linecap="round" stroke-linejoin="round"/>
<path d="M44.7062 253.851L41.4082 248.719" stroke="#263238" stroke-linecap="round" stroke-linejoin="round"/>
<path d="M42.503 250.475C42.6506 249.728 42.6362 248.957 42.4607 248.215C42.2852 247.474 41.9528 246.778 41.4858 246.176C40.5226 244.866 34.8435 240.936 33.7802 243.001C32.6474 245.259 38.0414 251.285 42.503 250.475Z" fill="#407BFF" stroke="#263238" stroke-linecap="round" stroke-linejoin="round"/>
<path d="M42.5027 250.475L37.3477 245.528" stroke="#263238" stroke-linecap="round" stroke-linejoin="round"/>
<path d="M38.8965 312.398L43.6123 307.413" stroke="#263238" stroke-linecap="round" stroke-linejoin="round"/>
<path d="M42.1792 308.907C42.1871 308.146 42.3583 307.394 42.6813 306.705C43.0043 306.015 43.4716 305.402 44.0517 304.908C45.2615 303.829 51.634 301.14 52.2351 303.367C52.8978 305.825 46.3788 310.618 42.1792 308.907Z" fill="#407BFF" stroke="#263238" stroke-linecap="round" stroke-linejoin="round"/>
<path d="M42.1792 308.907L48.598 304.924" stroke="#263238" stroke-linecap="round" stroke-linejoin="round"/>
<path d="M41.9941 282.57L46.7023 277.592" stroke="#263238" stroke-linecap="round" stroke-linejoin="round"/>
<path d="M45.2769 279.079C45.2847 278.317 45.4559 277.566 45.779 276.876C46.102 276.186 46.5693 275.573 47.1493 275.08C48.3591 274.001 54.724 271.319 55.3327 273.538C55.9877 275.996 49.4764 280.797 45.2769 279.079Z" fill="#407BFF" stroke="#263238" stroke-linecap="round" stroke-linejoin="round"/>
<path d="M45.2769 279.079L51.6957 275.103" stroke="#263238" stroke-linecap="round" stroke-linejoin="round"/>
<path d="M43.3579 269.462L48.0661 264.484" stroke="#263238" stroke-linecap="round" stroke-linejoin="round"/>
<path d="M46.6328 265.972C46.6451 265.211 46.8183 264.461 47.141 263.772C47.4638 263.082 47.9287 262.469 48.5053 261.972C49.7151 260.894 56.0876 258.212 56.6887 260.431C57.3514 262.889 50.8324 267.69 46.6328 265.972Z" fill="#407BFF" stroke="#263238" stroke-linecap="round" stroke-linejoin="round"/>
<path d="M46.6328 265.971L53.0516 261.995" stroke="#263238" stroke-linecap="round" stroke-linejoin="round"/>
<path d="M45.292 249.266L50.0618 245.266" stroke="#263238" stroke-linecap="round" stroke-linejoin="round"/>
<path d="M48.6289 246.761C48.6368 245.999 48.808 245.248 49.131 244.558C49.454 243.868 49.9213 243.256 50.5014 242.762C51.7112 241.676 58.0837 238.994 58.6848 241.221C59.3475 243.679 52.8285 248.472 48.6289 246.761Z" fill="#407BFF" stroke="#263238" stroke-linecap="round" stroke-linejoin="round"/>
<path d="M48.6289 246.761L55.0477 242.777" stroke="#263238" stroke-linecap="round" stroke-linejoin="round"/>
<path d="M46.3784 237.907C46.3868 237.146 46.5582 236.395 46.8812 235.705C47.2042 235.015 47.6712 234.402 48.2509 233.908C49.4607 232.829 55.8256 230.148 56.4343 232.367C57.0893 234.825 50.578 239.626 46.3784 237.907Z" fill="#407BFF" stroke="#263238" stroke-linecap="round" stroke-linejoin="round"/>
<path d="M46.3784 237.908L52.7972 233.931" stroke="#263238" stroke-linecap="round" stroke-linejoin="round"/>
<path d="M46.6402 238.193C45.8806 238.101 45.1496 237.847 44.4968 237.449C43.8439 237.05 43.2846 236.515 42.8567 235.881C41.9089 234.563 39.9054 227.952 42.2017 227.582C44.6983 227.22 48.7746 234.201 46.6402 238.193Z" fill="#407BFF" stroke="#263238" stroke-linecap="round" stroke-linejoin="round"/>
<path d="M46.6409 238.193L43.3506 231.396" stroke="#263238" stroke-linecap="round" stroke-linejoin="round"/>
<path d="M34.3268 304.731L30.4277 299.522" stroke="#263238" stroke-linecap="round" stroke-linejoin="round"/>
<path d="M31.6996 301.14C31.772 300.387 31.683 299.627 31.4385 298.911C31.194 298.194 30.7997 297.539 30.2818 296.987C29.1953 295.785 23.1387 292.456 22.2987 294.629C21.3586 296.987 27.3459 302.427 31.6996 301.14Z" fill="#407BFF" stroke="#263238" stroke-linecap="round" stroke-linejoin="round"/>
<path d="M31.6991 301.156L26.0586 296.771" stroke="#263238" stroke-linecap="round" stroke-linejoin="round"/>
<path d="M34.4655 279.603L30.4277 275.843" stroke="#263238" stroke-linecap="round" stroke-linejoin="round"/>
<path d="M31.6996 277.476C31.7744 276.719 31.6866 275.955 31.442 275.235C31.1975 274.514 30.8019 273.855 30.2818 273.3C29.1953 272.097 23.1387 268.776 22.2987 270.942C21.3586 273.3 27.3459 278.74 31.6996 277.476Z" fill="#407BFF" stroke="#263238" stroke-linecap="round" stroke-linejoin="round"/>
<path d="M31.6991 277.476L26.0586 273.084" stroke="#263238" stroke-linecap="round" stroke-linejoin="round"/>
<path d="M34.5965 253.473L30.4277 248.033" stroke="#263238" stroke-linecap="round" stroke-linejoin="round"/>
<path d="M31.6996 249.666C31.7743 248.911 31.6864 248.148 31.4418 247.429C31.1973 246.709 30.8018 246.051 30.2818 245.498C29.1953 244.295 23.1387 240.967 22.2987 243.14C21.3586 245.498 27.3459 250.938 31.6996 249.666Z" fill="#407BFF" stroke="#263238" stroke-linecap="round" stroke-linejoin="round"/>
<path d="M31.6991 249.667L26.0586 245.282" stroke="#263238" stroke-linecap="round" stroke-linejoin="round"/>
<path d="M34.3268 233.038L30.4277 229.524" stroke="#263238" stroke-linecap="round" stroke-linejoin="round"/>
<path d="M31.6996 231.157C31.7744 230.4 31.6866 229.636 31.442 228.916C31.1975 228.196 30.8019 227.536 30.2818 226.981C29.1953 225.787 23.1387 222.458 22.2987 224.623C21.3586 226.981 27.3459 232.429 31.6996 231.157Z" fill="#407BFF" stroke="#263238" stroke-linecap="round" stroke-linejoin="round"/>
<path d="M31.6991 231.157L26.0586 226.765" stroke="#263238" stroke-linecap="round" stroke-linejoin="round"/>
<path d="M34.5504 214.521L30.5049 211.554" stroke="#263238" stroke-linecap="round" stroke-linejoin="round"/>
<path d="M31.6996 212.564C31.7743 211.808 31.6864 211.045 31.4418 210.326C31.1973 209.607 30.8018 208.948 30.2818 208.395C29.1953 207.193 23.1387 203.864 22.2987 206.037C21.3586 208.395 27.3459 213.835 31.6996 212.564Z" fill="#407BFF" stroke="#263238" stroke-linecap="round" stroke-linejoin="round"/>
<path d="M31.6991 212.564L26.0586 208.179" stroke="#263238" stroke-linecap="round" stroke-linejoin="round"/>
<path d="M35.3135 311.026L38.6808 306.758" stroke="#263238" stroke-linecap="round" stroke-linejoin="round"/>
<path d="M37.4096 308.391C37.3435 307.633 37.4384 306.87 37.688 306.152C37.9377 305.433 38.3365 304.776 38.8582 304.222C39.9524 303.02 46.0091 299.699 46.8413 301.864C47.7506 304.222 41.7633 309.655 37.4096 308.391Z" fill="#407BFF" stroke="#263238" stroke-linecap="round" stroke-linejoin="round"/>
<path d="M37.4092 308.391L43.3811 303.768" stroke="#263238" stroke-linecap="round" stroke-linejoin="round"/>
<path d="M34.5039 274.532L38.6804 269.085" stroke="#263238" stroke-linecap="round" stroke-linejoin="round"/>
<path d="M37.4096 270.718C37.34 269.96 37.4332 269.196 37.6831 268.477C37.9329 267.758 38.3336 267.101 38.8582 266.55C39.9524 265.347 46.0091 262.019 46.8413 264.192C47.7506 266.55 41.7633 271.99 37.4096 270.718Z" fill="#407BFF" stroke="#263238" stroke-linecap="round" stroke-linejoin="round"/>
<path d="M37.4092 270.718L43.3811 266.095" stroke="#263238" stroke-linecap="round" stroke-linejoin="round"/>
<path d="M34.5039 255.939L38.6804 250.499" stroke="#263238" stroke-linecap="round" stroke-linejoin="round"/>
<path d="M37.4094 252.132C37.3445 251.376 37.4399 250.614 37.6895 249.897C37.9392 249.18 38.3374 248.524 38.8581 247.971C39.9523 246.769 46.009 243.448 46.8412 245.613C47.7504 247.971 41.7631 253.365 37.4094 252.132Z" fill="#407BFF" stroke="#263238" stroke-linecap="round" stroke-linejoin="round"/>
<path d="M37.4092 252.132L43.3811 247.509" stroke="#263238" stroke-linecap="round" stroke-linejoin="round"/>
<path d="M34.5039 231.365L38.6804 225.925" stroke="#263238" stroke-linecap="round" stroke-linejoin="round"/>
<path d="M37.4092 227.559C37.342 226.8 37.4364 226.035 37.686 225.315C37.9357 224.595 38.3351 223.937 38.8579 223.382C39.9521 222.18 46.0087 218.859 46.8409 221.024C47.7502 223.382 41.7629 228.83 37.4092 227.559Z" fill="#407BFF" stroke="#263238" stroke-linecap="round" stroke-linejoin="round"/>
<path d="M37.4092 227.559L43.3811 222.936" stroke="#263238" stroke-linecap="round" stroke-linejoin="round"/>
<path d="M34.689 210.159L38.773 206.969" stroke="#263238" stroke-linecap="round" stroke-linejoin="round"/>
<path d="M37.4095 208.241C37.3401 207.479 37.4333 206.712 37.6831 205.989C37.9328 205.266 38.3334 204.605 38.8582 204.049C39.9524 202.847 46.009 199.526 46.8412 201.691C47.7505 204.049 41.7632 209.505 37.4095 208.241Z" fill="#407BFF" stroke="#263238" stroke-linecap="round" stroke-linejoin="round"/>
<path d="M37.4092 208.241L43.3811 203.617" stroke="#263238" stroke-linecap="round" stroke-linejoin="round"/>
<path d="M34.2581 199.672C34.1869 198.915 34.2763 198.152 34.5207 197.432C34.765 196.713 35.1587 196.053 35.676 195.496C36.7702 194.294 42.8268 190.972 43.659 193.138C44.5991 195.496 38.6118 200.967 34.2581 199.672Z" fill="#407BFF" stroke="#263238" stroke-linecap="round" stroke-linejoin="round"/>
<path d="M34.2578 199.672L40.2297 195.049" stroke="#263238" stroke-linecap="round" stroke-linejoin="round"/>
<path d="M34.5505 199.926C33.7884 199.916 33.0373 199.743 32.3476 199.419C31.6579 199.094 31.0454 198.626 30.5513 198.046C29.4725 196.836 26.7986 190.464 29.0101 189.863C31.4837 189.208 36.2689 195.727 34.5505 199.926Z" fill="#407BFF" stroke="#263238" stroke-linecap="round" stroke-linejoin="round"/>
<path d="M34.5503 199.926L30.5742 193.5" stroke="#263238" stroke-linecap="round" stroke-linejoin="round"/>
<path opacity="0.2" d="M61.3434 91.2226L104.88 98.2732L176.019 88.4639L229.057 102.55L282.557 90.6138L332.159 185.486L252.22 204.349L175.51 196.443L85.8551 204.896L29.3418 182.357L61.3434 91.2226Z" fill="black"/>
<path d="M49.0296 52.3707L97.0512 60.1457L175.533 49.327L234.035 64.8616L293.052 51.6926L347.778 156.359L259.594 177.164L174.971 168.441L76.0687 177.765L13.73 152.906L49.0296 52.3707Z" fill="white" stroke="#263238" stroke-linecap="round" stroke-linejoin="round"/>
<path d="M58.1611 59.1286L95.6722 65.8864L175.102 55.7535L235.26 69.9473L287.312 58.1191L331.935 152.537L256.643 171.261L175.518 163.479L76.7472 170.329L29.5654 149.408L58.1611 59.1286Z" fill="#407BFF" stroke="#263238" stroke-linecap="round" stroke-linejoin="round"/>
<g opacity="0.64">
<path d="M271.815 100.886L242.734 108.499H233.888C233.888 108.499 245.269 119.456 267.177 121.56C289.084 123.663 294.146 119.456 294.146 119.456L271.815 100.886Z" fill="white"/>
<path d="M145.396 62.5422L126.009 66.7572L123.481 73.4997L135.703 70.9722L132.751 86.1369L147.084 84.4571L149.611 67.1733L145.396 62.5422Z" fill="white"/>
<path d="M133.175 88.6644L131.912 96.2545L140.342 94.5669V88.2483L133.175 88.6644Z" fill="white"/>
<path d="M128.12 88.6643L126.433 97.0943L109.997 99.2056L110.42 93.3031L128.12 88.6643Z" fill="white"/>
<path d="M225.234 126.175C217.205 126.175 210.694 130.321 210.694 135.422C210.694 140.523 217.205 144.669 225.234 144.669C233.264 144.669 239.775 140.516 239.775 135.422C239.775 130.329 233.279 126.175 225.234 126.175ZM225.234 139.653C221.582 139.653 218.623 137.772 218.623 135.445C218.623 133.118 221.582 131.23 225.234 131.23C228.887 131.23 231.861 133.157 231.861 135.468C231.861 137.78 228.902 139.653 225.234 139.653Z" fill="white"/>
<path d="M109.997 159.464L121.378 131.647L96.0958 132.918L92.2969 142.604H104.094L95.2481 162.831L109.997 159.464Z" fill="white"/>
<path d="M158.881 98.782L175.734 94.9908L197.649 101.733L180.789 104.677L176.157 100.886L158.881 104.261V98.782Z" fill="white"/>
<path d="M159.721 82.7695L160.145 93.727L167.727 92.0394L166.464 82.3457L159.721 82.7695Z" fill="white"/>
<path d="M54.7932 88.6643L48.0508 108.052L75.4444 115.218L79.6594 100.046L67.862 89.0881L54.7932 88.6643Z" fill="white"/>
</g>
<path d="M326.179 140.346L315.275 129.558C317.155 129.319 318.974 129.057 320.715 128.788L319.351 125.89C317.171 126.214 314.882 126.522 312.493 126.8L279.991 94.6284C288.629 93.3416 296.835 92.232 303.108 91.5847L301.713 88.6411C294.932 89.3655 286.302 90.5599 277.41 91.9007L277.502 91.3381L276.462 91.1763L265.003 79.8336L290.733 65.293L289.415 62.5036L262.753 77.5758L251.349 66.2948L247.789 67.0653L271.314 90.3364L196.492 78.6315C196.13 77.807 195.768 76.9825 195.437 76.1349C193.297 70.7035 191.637 65.0956 190.474 59.3751L187.161 58.6045C188.378 64.9488 190.184 71.1658 192.555 77.1751L192.925 78.0767L175.394 75.3258L157.301 76.9054L156.654 58.1036L153.572 58.4966L155.259 109.932C154.211 109.932 153.164 109.932 152.177 109.886C123.705 109.061 92.9515 100.754 88.3975 98.2732C85.3152 96.5703 78.3801 88.5487 74.6891 83.9946C82.233 83.6017 89.5302 82.5845 93.8454 80.3422C99.7633 77.2599 113.765 69.1304 125.793 62.0412L118.026 63.0353C107.754 69.0534 97.3129 75.0792 92.4353 77.6067C83.7048 82.1376 60.3258 81.1975 51.3487 80.6427L50.3855 83.6787C53.7297 83.9022 59.5706 84.2104 66.0434 84.2104C67.5845 84.2104 69.2412 84.2104 70.8671 84.1488C72.023 85.6128 82.1559 98.3734 86.9257 100.978C91.6955 103.582 122.657 112.113 152.092 112.96C153.176 112.991 154.278 113.006 155.398 113.006L155.629 120.042L132.073 120.727L131.719 120.604L131.672 120.735L84.8837 122.099L41.6858 111.157L40.7534 114.101L67.3611 120.828L42.703 155.218L45.5849 156.489L70.5974 121.644L84.5755 125.181L130.601 123.841L117.201 161.668L101.459 168.603L110.536 167.979L175.51 139.375L221.875 114.54C227.152 118.058 232.846 120.905 238.827 123.016C244.254 124.918 249.795 126.476 255.418 127.678L248.621 141.278L220.611 167.832L224.68 168.217L250.941 143.328L251.133 143.143L258.546 128.318C266.35 129.797 274.251 130.704 282.187 131.03L275.945 166.476L279.22 165.667L285.339 131.115C286.949 131.153 288.544 131.184 290.124 131.184C297.221 131.176 304.313 130.788 311.368 130.021L330.039 148.514L326.179 140.346ZM121.069 159.98L133.876 123.764L155.73 123.139L156.431 144.43L121.069 159.98ZM269.295 93.1875C251.418 96.0078 234.35 99.0592 230.636 99.7989L227.554 100.423C224.256 101.109 219.116 102.18 212.875 103.351C206.723 97.1366 201.685 89.9116 197.98 81.9912L269.295 93.1875ZM157.425 79.9877L175.263 78.4466L194.327 81.4364C198.05 89.7493 203.131 97.3847 209.361 104.029C198.881 105.933 185.936 107.982 173.322 109.1L173.191 108.907L172.836 109.146C167.904 109.57 163.034 109.855 158.38 109.916L157.425 79.9877ZM158.504 112.968C161.493 112.922 164.576 112.783 167.696 112.583L158.696 118.655L158.504 112.968ZM174.238 136.563L159.49 143.051L158.812 122.299L173.915 112.105C187.415 110.887 201.231 108.637 212.035 106.634C214.252 108.751 216.602 110.725 219.07 112.544L174.238 136.563ZM239.875 120.057C230.962 116.985 222.74 112.188 215.68 105.94C220.958 104.931 225.296 104.029 228.209 103.421L231.237 102.796C236.739 101.695 256.974 98.173 276.184 95.2064L308.548 127.208C289.091 129.08 264.125 128.626 239.875 120.057Z" fill="white" stroke="#263238" stroke-linecap="round" stroke-linejoin="round"/>
<path d="M81.347 143.798L76.4077 172.695" stroke="#263238" stroke-linecap="round" stroke-linejoin="round"/>
<path d="M95.0013 63.8598L82.3486 137.927" stroke="#263238" stroke-linecap="round" stroke-linejoin="round"/>
<path d="M174.894 52.4247L175.317 82.3457" stroke="#263238" stroke-linecap="round" stroke-linejoin="round"/>
<path d="M237.248 87.9245L254.539 160.728" stroke="#263238" stroke-linecap="round" stroke-linejoin="round"/>
<path d="M232.625 68.437L236.423 84.4493" stroke="#263238" stroke-linecap="round" stroke-linejoin="round"/>
<path d="M175.734 166.206L175.318 148.506" stroke="#263238" stroke-linecap="round" stroke-linejoin="round"/>
<path d="M271.783 26.2812C277.302 24.9704 280.714 19.4335 279.403 13.9141C278.092 8.39477 272.555 4.98308 267.036 6.29391C261.516 7.60473 258.105 13.1417 259.415 18.661C260.726 24.1804 266.263 27.5921 271.783 26.2812Z" fill="#263238"/>
<path d="M274.374 15.3529C274.375 14.2751 274.057 13.221 273.459 12.3241C272.862 11.4272 272.011 10.7277 271.016 10.3142C270.021 9.90067 268.925 9.79168 267.868 10.001C266.811 10.2104 265.839 10.7286 265.076 11.4902C264.314 12.2518 263.794 13.2225 263.583 14.2795C263.372 15.3365 263.48 16.4323 263.892 17.4282C264.304 18.4241 265.002 19.2754 265.898 19.8744C266.795 20.4734 267.848 20.7931 268.926 20.7931C270.369 20.7931 271.754 20.2202 272.775 19.2002C273.797 18.1801 274.372 16.7964 274.374 15.3529Z" stroke="white" stroke-width="2" stroke-linecap="round" stroke-linejoin="round"/>
<path d="M272.655 19.6449L276.092 22.7965" stroke="white" stroke-width="2" stroke-linecap="round" stroke-linejoin="round"/>
<path d="M243.782 27.5893H79.9602C78.494 27.5893 77.0422 27.3002 75.6879 26.7384C74.3336 26.1766 73.1034 25.3532 72.0677 24.3154C71.032 23.2775 70.2112 22.0456 69.6522 20.6902C69.0932 19.3347 68.807 17.8823 68.8101 16.4161C68.807 14.9499 69.0932 13.4975 69.6522 12.1421C70.2112 10.7866 71.032 9.55471 72.0677 8.51688C73.1034 7.47905 74.3336 6.65567 75.6879 6.09388C77.0422 5.53209 78.494 5.24292 79.9602 5.24292H243.782C245.249 5.24191 246.702 5.53033 248.057 6.09166C249.412 6.653 250.643 7.47621 251.68 8.51415C252.716 9.55208 253.538 10.7843 254.097 12.1403C254.657 13.4963 254.943 14.9493 254.94 16.4161C254.943 17.883 254.657 19.336 254.097 20.692C253.538 22.0479 252.716 23.2802 251.68 24.3181C250.643 25.356 249.412 26.1792 248.057 26.7406C246.702 27.3019 245.249 27.5903 243.782 27.5893Z" fill="white" stroke="#263238" stroke-linecap="round" stroke-linejoin="round"/>
<path d="M329.654 247.332H284.191C281.926 247.326 279.745 248.187 278.096 249.739C276.446 251.291 275.454 253.416 275.322 255.677L271.8 318.093H335.048L338.508 256.694C338.576 255.489 338.398 254.284 337.984 253.151C337.569 252.017 336.928 250.981 336.099 250.104C335.27 249.228 334.271 248.53 333.163 248.053C332.055 247.576 330.861 247.331 329.654 247.332Z" fill="#263238" stroke="#263238" stroke-linecap="round" stroke-linejoin="round"/>
<path d="M241.956 224.777C241.956 224.777 218.839 229.67 216.851 232.282C214.863 234.895 175.765 299.453 175.765 299.453C175.765 299.453 177.391 315.434 180.003 315.103C182.615 314.771 181.96 317.06 190.791 311.196C199.621 305.332 216.882 290.976 216.882 290.976L226.006 318.039H302.291C302.291 318.039 302.939 232.93 300.658 227.066C298.377 221.202 279.467 216.956 272.918 216.956C266.368 216.956 241.956 224.777 241.956 224.777Z" fill="white" stroke="#263238" stroke-linecap="round" stroke-linejoin="round"/>
<path d="M240.107 254.136L245.323 259.352L267.909 217.634C258.392 219.53 241.956 224.785 241.956 224.785C241.956 224.785 230.344 227.243 222.877 229.601L212.99 238.385C204.298 252.425 183.709 286.314 177.544 296.509L180.01 315.11C182.599 314.795 181.967 317.06 190.752 311.204C199.536 305.347 216.843 290.984 216.843 290.984L221.166 303.814C220.118 298.42 215.973 276.636 217.491 272.83C219.24 268.476 240.107 254.136 240.107 254.136Z" fill="#263238" stroke="#263238" stroke-linecap="round" stroke-linejoin="round"/>
<path d="M237.063 234.995L217.067 264.13V247.609L237.063 234.995Z" fill="white" stroke="#263238" stroke-linecap="round" stroke-linejoin="round"/>
<path d="M245.671 268.861C245.671 268.861 243.282 287.686 243.582 290.976C243.883 294.267 249.254 314.278 249.254 314.278" fill="white"/>
<path d="M245.671 268.861C245.671 268.861 243.282 287.686 243.582 290.976C243.883 294.267 249.254 314.278 249.254 314.278" stroke="#263238" stroke-linecap="round" stroke-linejoin="round"/>
<path d="M242.958 222.905C242.958 222.905 237.379 233.585 233.141 243.04C228.903 252.494 228.895 259.345 228.895 259.345C228.895 259.345 243.243 249.89 244.877 248.911C246.51 247.933 249.77 246.299 249.77 246.299L268.032 259.345C268.032 259.345 269.658 244.342 270.344 228.368C271.03 212.394 265.451 206.191 260.889 205.868C256.327 205.544 242.958 222.905 242.958 222.905Z" fill="white" stroke="#263238" stroke-linecap="round" stroke-linejoin="round"/>
<path d="M199.251 190.556C199.251 190.556 190.868 210.321 193.256 215.315C195.645 220.308 201.447 212.124 201.447 212.124C201.447 212.124 204.044 229.894 208.637 228.491C213.229 227.089 220.195 221.502 220.195 221.502C220.195 221.502 227.585 233.284 232.578 233.284C237.572 233.284 242.958 222.905 242.958 222.905C242.958 222.905 250.548 192.752 250.949 189.562C251.349 186.372 249.947 165.598 238.365 161.606C226.784 157.615 209.824 168.395 205.038 174.767C200.253 181.14 199.251 190.556 199.251 190.556Z" fill="#263238" stroke="#263238" stroke-linecap="round" stroke-linejoin="round"/>
<path d="M210.979 207.17C210.979 207.17 208.367 216.301 208.367 219.237C208.367 222.173 207.72 232.606 207.389 234.563C207.057 236.521 173.807 277.283 168.914 285.421C164.021 293.558 161.417 301.079 166.302 307.598C171.187 314.116 176.088 316.405 180.003 315.095C183.917 313.785 183.586 314.771 189.781 307.921C195.976 301.071 214.562 245.313 214.562 245.313C214.562 245.313 220.434 242.385 223.039 240.427C225.643 238.47 230.213 227.705 230.213 227.705L210.979 207.17Z" fill="#ADADAD" stroke="#263238" stroke-linecap="round" stroke-linejoin="round"/>
<path d="M166.302 307.605C171.195 314.124 176.088 316.413 180.002 315.103C183.917 313.793 183.585 314.779 189.781 307.929C191.114 306.457 193.025 302.72 195.175 297.757C187.677 299.607 178.854 300.84 177.043 299.776C171.827 296.694 168.891 285.428 168.891 285.428C164.021 293.581 161.416 301.086 166.302 307.605Z" fill="white" stroke="#263238" stroke-linecap="round" stroke-linejoin="round"/>
<path d="M207.843 185.748C207.843 185.748 210.926 192.621 210.926 196.751C210.926 200.882 206.456 206.723 209.207 211.192C211.958 215.661 220.55 233.192 220.55 233.192C220.55 233.192 225.019 235.603 229.496 233.192C233.973 230.78 243.243 226.318 243.243 226.318C243.243 226.318 241.871 250.383 243.59 256.231C245.308 262.08 246.341 264.823 246.341 264.823C246.341 264.823 250.81 245.228 255.588 236.312C260.365 227.397 262.808 211.554 262.808 211.554C262.808 211.554 262.461 205.39 262.808 199.179C263.155 192.968 253.522 169.265 238.049 164.11C222.577 158.955 213.985 164.11 209.854 170.275C205.724 176.439 207.843 185.748 207.843 185.748Z" fill="#ADADAD" stroke="#263238" stroke-linecap="round" stroke-linejoin="round"/>
<path d="M217.475 206.361C217.475 206.361 222.63 212.895 229.511 207.393" stroke="#263238" stroke-linecap="round" stroke-linejoin="round"/>
<path d="M222.63 215.315C222.63 215.315 233.287 218.065 238.812 207.748" stroke="#263238" stroke-linecap="round" stroke-linejoin="round"/>
<path d="M232.394 196.343C232.394 197.715 231.677 198.832 230.799 198.832C229.92 198.832 229.196 197.715 229.196 196.343C229.196 194.972 229.912 193.847 230.799 193.847C231.685 193.847 232.394 194.972 232.394 196.343Z" fill="#263238"/>
<path d="M217.221 196.343C217.221 197.715 216.504 198.832 215.626 198.832C214.747 198.832 214.023 197.715 214.023 196.343C214.023 194.972 214.74 193.847 215.626 193.847C216.512 193.847 217.221 194.972 217.221 196.343Z" fill="#263238"/>
<path d="M229.596 184.168C229.596 184.168 234.389 183.567 237.587 186.164" stroke="#263238" stroke-width="2" stroke-linecap="round" stroke-linejoin="round"/>
<path d="M218.416 184.168C216.067 184.17 213.798 185.021 212.028 186.565" stroke="#263238" stroke-width="2" stroke-linecap="round" stroke-linejoin="round"/>
<path d="M243.259 226.318L252.96 221.502L242.974 236.081L243.259 226.318Z" fill="#263238" stroke="#263238" stroke-linecap="round" stroke-linejoin="round"/>
<path d="M250.479 138.982C250.479 138.982 237.757 130.39 230.883 131.762C224.01 133.134 207.158 144.862 204.068 145.863C200.978 146.865 184.465 154.802 184.465 160.643C184.465 166.484 192.032 168.896 192.032 168.896C192.032 168.896 173.461 185.078 178.277 188.16C183.093 191.242 195.129 184.723 195.129 184.723C195.129 184.723 187.562 196.759 192.378 197.784C197.194 198.809 204.43 190.903 204.43 190.903C204.43 190.903 206.148 193.654 211.311 188.499C216.474 183.344 223.001 173.026 223.001 173.026C223.001 173.026 222.315 179.899 226.083 178.867C229.851 177.834 234.682 170.961 234.682 170.961C234.682 170.961 237.765 202.592 242.588 200.188C247.412 197.784 247.404 194.686 247.404 194.686C247.404 194.686 247.743 207.409 250.841 206.376C253.939 205.343 255.657 201.907 255.657 201.907C255.657 201.907 259.094 214.968 263.216 214.629C264.359 214.558 265.448 214.116 266.317 213.371C267.186 212.626 267.788 211.617 268.032 210.498C268.032 210.498 269.065 224.939 278.004 221.849C286.942 218.759 288.321 209.127 288.321 209.127C288.321 209.127 294.848 216.694 298.632 211.192C302.415 205.69 299.98 198.809 299.98 198.809C299.98 198.809 306.145 198.123 305.482 192.968C304.819 187.813 292.76 172.34 292.76 172.34C292.76 172.34 300.319 173.365 295.164 164.773C290.009 156.181 280.724 148.591 274.189 144.484C270.362 142.042 266.191 140.187 261.814 138.982C261.814 138.982 272.124 135.207 264.218 134.174C256.312 133.141 250.479 138.982 250.479 138.982Z" fill="#263238" stroke="#263238" stroke-linecap="round" stroke-linejoin="round"/>
<path d="M277.934 255.869L279.475 283.147C279.475 283.147 273.311 282.169 273.311 283.147C273.311 284.126 274.551 296.517 274.551 296.517C274.551 296.517 286.287 303.367 292.482 304.993C298.678 306.619 297.699 312.167 300.635 311.157C303.571 310.148 310.09 309.2 311.423 303.328C312.756 297.457 309.111 286.376 308.81 285.066C308.51 283.756 306.499 233.222 302.292 224.415C298.084 215.607 290.548 215.607 285.663 217.564C280.777 219.522 275.553 228.352 275.553 228.352" fill="white"/>
<path d="M277.934 255.869L279.475 283.147C279.475 283.147 273.311 282.169 273.311 283.147C273.311 284.126 274.551 296.517 274.551 296.517C274.551 296.517 286.287 303.367 292.482 304.993C298.678 306.619 297.699 312.167 300.635 311.157C303.571 310.148 310.09 309.2 311.423 303.328C312.756 297.457 309.111 286.376 308.81 285.066C308.51 283.756 306.499 233.222 302.292 224.415C298.084 215.607 290.548 215.607 285.663 217.564C280.777 219.522 275.553 228.352 275.553 228.352" stroke="#263238" stroke-linecap="round" stroke-linejoin="round"/>
<path d="M306.437 291.469C307.978 293.589 309.134 295.214 309.134 295.214" stroke="#263238" stroke-linecap="round" stroke-linejoin="round"/>
<path d="M282.388 281.876C282.388 281.876 295.11 281.221 297.714 281.876C299.055 282.207 302.022 285.729 304.595 289.05" stroke="#263238" stroke-linecap="round" stroke-linejoin="round"/>
<path d="M299.024 277.253C302.931 278.555 303.909 280.181 303.909 280.181" stroke="#263238" stroke-linecap="round" stroke-linejoin="round"/>
<path d="M283.697 278.909C286.548 278.203 289.434 277.65 292.343 277.253" stroke="#263238" stroke-linecap="round" stroke-linejoin="round"/>
<path d="M305.897 305.24C306.252 299.445 299.648 288.588 291.85 287.386C283.374 286.083 269.018 292.602 249.785 294.891C230.552 297.18 221.736 297.827 215.217 297.827C208.698 297.827 193.695 293.581 191.091 294.236C188.486 294.891 176.412 307.605 173.807 310.541C171.203 313.477 171.765 314.394 172.343 314.679C172.921 314.964 174.377 314.24 174.377 314.24C174.377 314.24 175.525 315.82 176.959 315.82C177.904 315.772 178.81 315.42 179.54 314.818C180.483 315.393 181.607 315.596 182.692 315.388C184.271 314.957 193.48 308.792 194.165 308.507C194.851 308.222 199.328 306.927 199.328 306.927C196.847 308.866 194.208 310.593 191.438 312.09C188.14 313.631 185.566 315.103 187.284 315.943C189.003 316.783 191.908 315.804 194.165 314.802C196.423 313.801 199.328 312.491 200.33 312.36C201.332 312.229 209.053 308.368 209.053 308.368C209.053 308.368 215.502 309.801 218.515 310.094C221.528 310.387 228.124 307.652 228.124 307.652C228.124 307.652 251.927 311.813 263.971 312.529C276.015 313.246 295.225 315.966 301.675 312.668C301.667 312.699 305.535 311.158 305.897 305.24Z" fill="#ADADAD" stroke="#263238" stroke-linecap="round" stroke-linejoin="round"/>
<path d="M179.509 314.825C179.509 314.825 189.457 304.885 190.544 304.038C191.63 303.19 197.934 301.425 197.934 301.425" stroke="#263238" stroke-linecap="round" stroke-linejoin="round"/>
<path d="M174.377 314.24C174.377 314.24 184.919 303.144 186.229 301.618C187.539 300.092 192.316 298.143 192.316 298.143" stroke="#263238" stroke-linecap="round" stroke-linejoin="round"/>
<path d="M68.8871 81.2746C67.9464 81.2746 67.0149 81.46 66.1458 81.8202C65.2768 82.1805 64.4873 82.7085 63.8225 83.374C63.1577 84.0396 62.6305 84.8296 62.2712 85.699C61.9119 86.5684 61.7275 87.5001 61.7285 88.4409C61.7285 92.3939 68.8871 99.7682 68.8871 99.7682C68.8871 99.7682 76.0533 92.3939 76.0533 88.4409C76.0533 86.5402 75.2983 84.7175 73.9544 83.3735C72.6105 82.0296 70.7877 81.2746 68.8871 81.2746ZM68.8871 91.2919C68.4067 91.2919 67.9371 91.1494 67.5377 90.8823C67.1384 90.6153 66.8273 90.2357 66.6438 89.7918C66.4603 89.3478 66.4127 88.8593 66.507 88.3883C66.6013 87.9172 66.8332 87.4847 67.1735 87.1456C67.5137 86.8064 67.9469 86.5759 68.4183 86.4831C68.8896 86.3903 69.3779 86.4395 69.8213 86.6244C70.2647 86.8093 70.6433 87.1216 70.909 87.5218C71.1748 87.9219 71.3159 88.392 71.3144 88.8724C71.3103 89.5135 71.0528 90.1269 70.598 90.5788C70.1432 91.0306 69.5282 91.2843 68.8871 91.2842V91.2919Z" fill="#263238" stroke="#263238" stroke-linecap="round" stroke-linejoin="round"/>
<path d="M143.246 48.1404C142.306 48.1404 141.374 48.3258 140.505 48.686C139.636 49.0463 138.847 49.5743 138.182 50.2398C137.517 50.9053 136.99 51.6954 136.631 52.5648C136.271 53.4342 136.087 54.3659 136.088 55.3066C136.088 59.2596 143.246 66.634 143.246 66.634C143.246 66.634 150.413 59.2596 150.413 55.3066C150.413 53.406 149.658 51.5833 148.314 50.2393C146.97 48.8954 145.147 48.1404 143.246 48.1404ZM143.246 58.1577C142.766 58.1577 142.296 58.0152 141.897 57.7481C141.498 57.4811 141.187 57.1015 141.003 56.6575C140.82 56.2136 140.772 55.7251 140.866 55.2541C140.961 54.783 141.193 54.3505 141.533 54.0114C141.873 53.6722 142.306 53.4417 142.778 53.3489C143.249 53.2561 143.737 53.3053 144.181 53.4902C144.624 53.6751 145.003 53.9874 145.268 54.3875C145.534 54.7877 145.675 55.2578 145.674 55.7382C145.67 56.3792 145.412 56.9927 144.957 57.4446C144.503 57.8964 143.888 58.15 143.246 58.15V58.1577Z" fill="#263238" stroke="#263238" stroke-linecap="round" stroke-linejoin="round"/>
<path d="M131.117 98.6047C130.177 98.6037 129.245 98.7881 128.376 99.1474C127.506 99.5067 126.716 100.034 126.051 100.699C125.385 101.363 124.857 102.153 124.497 103.022C124.137 103.891 123.951 104.823 123.951 105.763C123.951 109.724 131.117 117.091 131.117 117.091C131.117 117.091 138.276 109.724 138.276 105.763C138.276 103.865 137.522 102.044 136.179 100.701C134.837 99.3589 133.016 98.6047 131.117 98.6047ZM131.117 108.622C130.64 108.622 130.172 108.48 129.775 108.215C129.377 107.95 129.067 107.573 128.884 107.132C128.7 106.691 128.651 106.205 128.743 105.736C128.835 105.267 129.064 104.836 129.401 104.497C129.738 104.158 130.168 103.926 130.636 103.831C131.104 103.736 131.59 103.782 132.033 103.963C132.475 104.143 132.854 104.451 133.122 104.847C133.389 105.243 133.534 105.709 133.537 106.187C133.537 106.829 133.282 107.444 132.828 107.898C132.375 108.352 131.759 108.607 131.117 108.607V108.622Z" fill="#263238" stroke="#263238" stroke-linecap="round" stroke-linejoin="round"/>
<path d="M274.828 93.9812C273.888 93.9802 272.956 94.1646 272.087 94.5239C271.217 94.8832 270.427 95.4103 269.762 96.0752C269.096 96.74 268.568 97.5295 268.208 98.3985C267.848 99.2675 267.662 100.199 267.662 101.14C267.662 105.1 274.828 112.467 274.828 112.467C274.828 112.467 281.987 105.1 281.987 101.14C281.987 99.2412 281.233 97.4204 279.89 96.0779C278.548 94.7354 276.727 93.9812 274.828 93.9812ZM274.828 103.999C274.35 103.999 273.883 103.857 273.486 103.592C273.088 103.327 272.778 102.95 272.594 102.508C272.411 102.067 272.362 101.582 272.454 101.113C272.546 100.644 272.775 100.213 273.112 99.8735C273.449 99.5345 273.879 99.3029 274.347 99.2078C274.815 99.1127 275.301 99.1584 275.744 99.3392C276.186 99.52 276.565 99.8277 276.833 100.224C277.1 100.619 277.245 101.086 277.248 101.564C277.248 102.205 276.993 102.821 276.539 103.274C276.086 103.728 275.47 103.983 274.828 103.983V103.999Z" fill="#263238" stroke="#263238" stroke-linecap="round" stroke-linejoin="round"/>
<path d="M192.763 116.713C191.822 116.712 190.891 116.896 190.021 117.256C189.152 117.615 188.362 118.142 187.696 118.807C187.031 119.472 186.503 120.261 186.142 121.13C185.782 121.999 185.597 122.931 185.597 123.872C185.597 127.832 192.763 135.199 192.763 135.199C192.763 135.199 199.921 127.832 199.921 123.872C199.921 122.932 199.736 122.001 199.377 121.132C199.017 120.264 198.49 119.475 197.825 118.81C197.16 118.145 196.371 117.618 195.502 117.258C194.634 116.898 193.703 116.713 192.763 116.713ZM192.763 126.73C192.285 126.73 191.818 126.589 191.42 126.324C191.023 126.059 190.713 125.682 190.529 125.24C190.345 124.799 190.297 124.313 190.389 123.844C190.481 123.376 190.71 122.944 191.047 122.605C191.384 122.266 191.813 122.035 192.282 121.94C192.75 121.845 193.236 121.89 193.678 122.071C194.121 122.252 194.5 122.56 194.767 122.955C195.035 123.351 195.179 123.818 195.183 124.295C195.183 124.937 194.928 125.553 194.474 126.006C194.02 126.46 193.405 126.715 192.763 126.715V126.73Z" fill="#263238" stroke="#263238" stroke-linecap="round" stroke-linejoin="round"/>
<path d="M222.815 54.6824C221.874 54.6814 220.942 54.8658 220.073 55.2251C219.203 55.5844 218.413 56.1116 217.748 56.7764C217.082 57.4412 216.554 58.2307 216.194 59.0998C215.834 59.9688 215.648 60.9003 215.648 61.841C215.648 65.8017 222.815 73.1683 222.815 73.1683C222.815 73.1683 229.973 65.8017 229.973 61.841C229.973 59.9424 229.219 58.1216 227.877 56.7791C226.534 55.4366 224.713 54.6824 222.815 54.6824ZM222.815 64.6998C222.337 64.6998 221.87 64.5583 221.472 64.2931C221.075 64.0279 220.764 63.6509 220.581 63.2097C220.397 62.7684 220.348 62.2827 220.441 61.8138C220.533 61.3449 220.762 60.9137 221.098 60.5748C221.435 60.2358 221.865 60.0041 222.333 59.909C222.802 59.8139 223.288 59.8597 223.73 60.0404C224.172 60.2212 224.551 60.5289 224.819 60.9248C225.087 61.3206 225.231 61.7869 225.234 62.2648C225.234 62.9065 224.979 63.5219 224.526 63.9757C224.072 64.4295 223.456 64.6844 222.815 64.6844V64.6998Z" fill="#263238" stroke="#263238" stroke-linecap="round" stroke-linejoin="round"/>
<path d="M199.174 314.355H53.1055V318.532H199.174V314.355Z" fill="#263238" stroke="#263238" stroke-linecap="round" stroke-linejoin="round"/>
<path d="M199.174 314.355H147.901V318.532H199.174V314.355Z" fill="#407BFF" stroke="#263238" stroke-linecap="round" stroke-linejoin="round"/>
<path d="M152.031 314.355H57.1893L51.7106 251.277C51.635 250.584 51.7078 249.882 51.9244 249.22C52.1409 248.557 52.4961 247.948 52.9663 247.433C53.4365 246.919 54.011 246.51 54.6515 246.235C55.2919 245.959 55.9837 245.824 56.6808 245.837H140.672C142.153 245.863 143.572 246.431 144.661 247.434C145.75 248.437 146.434 249.804 146.583 251.277L152.031 314.355Z" fill="white" stroke="#263238" stroke-linecap="round" stroke-linejoin="round"/>
<path d="M150.212 314.355H55.371L49.8923 251.277C49.8166 250.584 49.8895 249.883 50.106 249.22C50.3225 248.557 50.6777 247.948 51.1479 247.434C51.6182 246.919 52.1926 246.51 52.8331 246.235C53.4736 245.96 54.1654 245.824 54.8624 245.837H138.854C140.334 245.863 141.753 246.431 142.843 247.434C143.932 248.437 144.616 249.804 144.764 251.277L150.212 314.355Z" fill="#407BFF" stroke="#263238" stroke-linecap="round" stroke-linejoin="round"/>
<path d="M145.99 265.709L55.3711 314.355H150.212L145.99 265.709Z" fill="#263238" stroke="#263238" stroke-linecap="round" stroke-linejoin="round"/>
<path d="M100.697 282.417C102.872 280.146 102.627 276.381 100.15 274.009C97.6725 271.636 93.9008 271.554 91.7256 273.826C89.5504 276.097 89.7954 279.862 92.2728 282.234C94.7502 284.607 98.5218 284.689 100.697 282.417Z" fill="#263238" stroke="#263238" stroke-linecap="round" stroke-linejoin="round"/>
<path d="M351.8 290.429C349.904 287.856 343.801 286.399 341.875 287.347V292.248C350.914 290.992 352.347 299.915 349.403 304.484C348.595 305.698 347.457 306.655 346.124 307.243C344.79 307.831 343.316 308.027 341.875 307.806V312.028C343.416 312.568 346.244 312.799 349.75 309.955C355.229 305.494 356.084 296.224 351.8 290.429Z" fill="white" stroke="#263238" stroke-linecap="round" stroke-linejoin="round"/>
<path d="M342.553 280.211H315.853V318.154H342.553V280.211Z" fill="white" stroke="#263238" stroke-linecap="round" stroke-linejoin="round"/>
<path d="M321.247 257.989C321.023 256.822 321.13 255.615 321.555 254.506" stroke="white" stroke-linecap="round" stroke-linejoin="round"/>
<path d="M321.555 276.097C321.555 276.097 326.949 272.629 325.023 267.62C324.021 265.024 322.711 262.627 321.894 260.393" stroke="white" stroke-linecap="round" stroke-linejoin="round"/>
<path d="M327.72 276.097C327.72 276.097 333.114 272.629 331.188 267.621C330.602 266.08 329.916 264.662 329.284 263.282" stroke="white" stroke-linecap="round" stroke-linejoin="round"/>
<path d="M336.196 264.924C334.44 261.071 332.629 257.68 333.885 254.544" stroke="white" stroke-linecap="round" stroke-linejoin="round"/>
<path d="M333.885 276.097C333.885 276.097 338.439 273.169 337.684 268.807" stroke="white" stroke-linecap="round" stroke-linejoin="round"/>
<path d="M1 318.139H364.707" stroke="#263238" stroke-linecap="round" stroke-linejoin="round"/>
<path d="M97.6791 10.8265V21.4906H96.2875V10.8265H97.6791ZM101.107 10.8265V11.9838H92.8671V10.8265H101.107ZM103.282 14.8109V21.4906H101.927V13.5658H103.245L103.282 14.8109ZM105.758 13.5219L105.75 14.7816C105.638 14.7572 105.531 14.7426 105.428 14.7377C105.33 14.7279 105.218 14.723 105.091 14.723C104.779 14.723 104.503 14.7719 104.264 14.8695C104.024 14.9672 103.822 15.1039 103.656 15.2797C103.49 15.4554 103.358 15.6654 103.26 15.9095C103.167 16.1488 103.106 16.4125 103.077 16.7006L102.696 16.9203C102.696 16.4418 102.743 15.9926 102.835 15.5726C102.933 15.1527 103.082 14.7816 103.282 14.4594C103.482 14.1322 103.736 13.8783 104.044 13.6976C104.356 13.5121 104.727 13.4193 105.157 13.4193C105.255 13.4193 105.367 13.4315 105.494 13.4559C105.621 13.4755 105.709 13.4974 105.758 13.5219ZM111.39 20.1356V16.056C111.39 15.7435 111.327 15.4725 111.2 15.243C111.077 15.0087 110.892 14.828 110.643 14.701C110.394 14.5741 110.086 14.5106 109.72 14.5106C109.378 14.5106 109.078 14.5692 108.819 14.6864C108.565 14.8036 108.365 14.9574 108.219 15.1478C108.077 15.3383 108.006 15.5433 108.006 15.7631H106.651C106.651 15.4799 106.724 15.1991 106.871 14.9208C107.017 14.6425 107.227 14.391 107.501 14.1664C107.779 13.9369 108.111 13.7562 108.497 13.6244C108.888 13.4877 109.322 13.4193 109.801 13.4193C110.377 13.4193 110.885 13.517 111.324 13.7123C111.768 13.9076 112.115 14.203 112.364 14.5985C112.618 14.9891 112.745 15.4799 112.745 16.0707V19.7621C112.745 20.0258 112.767 20.3065 112.811 20.6044C112.86 20.9022 112.931 21.1586 113.023 21.3734V21.4906H111.61C111.541 21.3344 111.488 21.1268 111.449 20.868C111.41 20.6044 111.39 20.3602 111.39 20.1356ZM111.624 16.6859L111.639 17.6381H110.269C109.884 17.6381 109.539 17.6698 109.237 17.7333C108.934 17.7919 108.68 17.8822 108.475 18.0043C108.27 18.1263 108.114 18.2802 108.006 18.4657C107.899 18.6464 107.845 18.8588 107.845 19.1029C107.845 19.3519 107.901 19.579 108.014 19.7841C108.126 19.9891 108.294 20.1527 108.519 20.2748C108.748 20.392 109.029 20.4506 109.361 20.4506C109.776 20.4506 110.142 20.3627 110.46 20.1869C110.777 20.0111 111.029 19.7963 111.214 19.5424C111.405 19.2885 111.507 19.0419 111.522 18.8026L112.1 19.4545C112.066 19.6595 111.973 19.8866 111.822 20.1356C111.671 20.3846 111.468 20.6239 111.214 20.8534C110.965 21.078 110.667 21.266 110.321 21.4174C109.979 21.5638 109.593 21.6371 109.163 21.6371C108.626 21.6371 108.155 21.5321 107.75 21.3221C107.349 21.1122 107.037 20.8314 106.812 20.4799C106.593 20.1234 106.483 19.7255 106.483 19.286C106.483 18.8612 106.566 18.4877 106.732 18.1654C106.898 17.8383 107.137 17.5673 107.45 17.3524C107.762 17.1327 108.138 16.9667 108.577 16.8544C109.017 16.7421 109.508 16.6859 110.05 16.6859H111.624ZM118.048 20.5238C118.37 20.5238 118.668 20.4579 118.941 20.326C119.215 20.1942 119.439 20.0135 119.615 19.7841C119.791 19.5497 119.891 19.2836 119.915 18.9857H121.204C121.18 19.4545 121.021 19.8915 120.728 20.2968C120.44 20.6971 120.062 21.0219 119.593 21.2709C119.124 21.515 118.609 21.6371 118.048 21.6371C117.452 21.6371 116.932 21.5321 116.488 21.3221C116.048 21.1122 115.682 20.8241 115.389 20.4579C115.101 20.0917 114.884 19.6718 114.737 19.1981C114.596 18.7196 114.525 18.2142 114.525 17.682V17.3744C114.525 16.8422 114.596 16.3392 114.737 15.8656C114.884 15.3871 115.101 14.9647 115.389 14.5985C115.682 14.2323 116.048 13.9442 116.488 13.7343C116.932 13.5243 117.452 13.4193 118.048 13.4193C118.668 13.4193 119.21 13.5463 119.674 13.8002C120.138 14.0492 120.501 14.391 120.765 14.8256C121.034 15.2552 121.18 15.7435 121.204 16.2904H119.915C119.891 15.9633 119.798 15.6678 119.637 15.4042C119.481 15.1405 119.266 14.9305 118.993 14.7743C118.724 14.6132 118.409 14.5326 118.048 14.5326C117.633 14.5326 117.284 14.6156 117 14.7816C116.722 14.9427 116.5 15.1625 116.334 15.4408C116.173 15.7142 116.056 16.0194 115.982 16.3563C115.914 16.6884 115.88 17.0277 115.88 17.3744V17.682C115.88 18.0287 115.914 18.3705 115.982 18.7074C116.051 19.0443 116.165 19.3495 116.327 19.6229C116.493 19.8964 116.715 20.1161 116.993 20.2821C117.276 20.4432 117.628 20.5238 118.048 20.5238ZM124.09 10.2406V21.4906H122.728V10.2406H124.09ZM128.932 13.5658L125.474 17.2645L123.541 19.2714L123.431 17.8285L124.815 16.1732L127.276 13.5658H128.932ZM127.694 21.4906L124.867 17.7113L125.57 16.5028L129.29 21.4906H127.694ZM134.703 10.8265H136.073L139.566 19.5204L143.053 10.8265H144.43L140.094 21.4906H139.024L134.703 10.8265ZM134.256 10.8265H135.465L135.662 17.3304V21.4906H134.256V10.8265ZM143.661 10.8265H144.869V21.4906H143.463V17.3304L143.661 10.8265ZM149.373 20.6703L151.578 13.5658H153.028L149.849 22.7137C149.776 22.9091 149.679 23.119 149.557 23.3436C149.439 23.5731 149.288 23.7904 149.102 23.9955C148.917 24.2006 148.692 24.3666 148.429 24.4935C148.17 24.6254 147.86 24.6913 147.498 24.6913C147.391 24.6913 147.254 24.6766 147.088 24.6473C146.922 24.618 146.805 24.5936 146.737 24.5741L146.729 23.4755C146.768 23.4803 146.829 23.4852 146.912 23.4901C147 23.4999 147.061 23.5048 147.096 23.5048C147.403 23.5048 147.664 23.4633 147.879 23.3802C148.094 23.3021 148.275 23.1678 148.421 22.9774C148.573 22.7919 148.702 22.5355 148.809 22.2084L149.373 20.6703ZM147.755 13.5658L149.813 19.7181L150.164 21.1464L149.19 21.6444L146.275 13.5658H147.755ZM162.11 17.3085H159.261V16.1586H162.11C162.662 16.1586 163.109 16.0707 163.451 15.8949C163.792 15.7191 164.041 15.475 164.198 15.1625C164.359 14.85 164.439 14.4935 164.439 14.0931C164.439 13.7269 164.359 13.3827 164.198 13.0604C164.041 12.7382 163.792 12.4794 163.451 12.2841C163.109 12.0839 162.662 11.9838 162.11 11.9838H159.591V21.4906H158.177V10.8265H162.11C162.916 10.8265 163.597 10.9657 164.154 11.244C164.71 11.5223 165.133 11.9081 165.421 12.4012C165.709 12.8895 165.853 13.4486 165.853 14.0785C165.853 14.7621 165.709 15.3456 165.421 15.829C165.133 16.3124 164.71 16.681 164.154 16.9349C163.597 17.184 162.916 17.3085 162.11 17.3085ZM172.02 20.1356V16.056C172.02 15.7435 171.956 15.4725 171.829 15.243C171.707 15.0087 171.522 14.828 171.273 14.701C171.024 14.5741 170.716 14.5106 170.35 14.5106C170.008 14.5106 169.708 14.5692 169.449 14.6864C169.195 14.8036 168.995 14.9574 168.848 15.1478C168.707 15.3383 168.636 15.5433 168.636 15.7631H167.281C167.281 15.4799 167.354 15.1991 167.501 14.9208C167.647 14.6425 167.857 14.391 168.131 14.1664C168.409 13.9369 168.741 13.7562 169.127 13.6244C169.517 13.4877 169.952 13.4193 170.431 13.4193C171.007 13.4193 171.515 13.517 171.954 13.7123C172.398 13.9076 172.745 14.203 172.994 14.5985C173.248 14.9891 173.375 15.4799 173.375 16.0707V19.7621C173.375 20.0258 173.397 20.3065 173.441 20.6044C173.49 20.9022 173.56 21.1586 173.653 21.3734V21.4906H172.24C172.171 21.3344 172.118 21.1268 172.078 20.868C172.039 20.6044 172.02 20.3602 172.02 20.1356ZM172.254 16.6859L172.269 17.6381H170.899C170.514 17.6381 170.169 17.6698 169.867 17.7333C169.564 17.7919 169.31 17.8822 169.105 18.0043C168.9 18.1263 168.744 18.2802 168.636 18.4657C168.529 18.6464 168.475 18.8588 168.475 19.1029C168.475 19.3519 168.531 19.579 168.643 19.7841C168.756 19.9891 168.924 20.1527 169.149 20.2748C169.378 20.392 169.659 20.4506 169.991 20.4506C170.406 20.4506 170.772 20.3627 171.09 20.1869C171.407 20.0111 171.659 19.7963 171.844 19.5424C172.035 19.2885 172.137 19.0419 172.152 18.8026L172.73 19.4545C172.696 19.6595 172.603 19.8866 172.452 20.1356C172.301 20.3846 172.098 20.6239 171.844 20.8534C171.595 21.078 171.297 21.266 170.951 21.4174C170.609 21.5638 170.223 21.6371 169.793 21.6371C169.256 21.6371 168.785 21.5321 168.38 21.3221C167.979 21.1122 167.667 20.8314 167.442 20.4799C167.223 20.1234 167.113 19.7255 167.113 19.286C167.113 18.8612 167.196 18.4877 167.362 18.1654C167.528 17.8383 167.767 17.5673 168.079 17.3524C168.392 17.1327 168.768 16.9667 169.207 16.8544C169.647 16.7421 170.138 16.6859 170.68 16.6859H172.254ZM178.678 20.5238C179 20.5238 179.298 20.4579 179.571 20.326C179.845 20.1942 180.069 20.0135 180.245 19.7841C180.421 19.5497 180.521 19.2836 180.545 18.9857H181.834C181.81 19.4545 181.651 19.8915 181.358 20.2968C181.07 20.6971 180.692 21.0219 180.223 21.2709C179.754 21.515 179.239 21.6371 178.678 21.6371C178.082 21.6371 177.562 21.5321 177.118 21.3221C176.678 21.1122 176.312 20.8241 176.019 20.4579C175.731 20.0917 175.514 19.6718 175.367 19.1981C175.225 18.7196 175.155 18.2142 175.155 17.682V17.3744C175.155 16.8422 175.225 16.3392 175.367 15.8656C175.514 15.3871 175.731 14.9647 176.019 14.5985C176.312 14.2323 176.678 13.9442 177.118 13.7343C177.562 13.5243 178.082 13.4193 178.678 13.4193C179.298 13.4193 179.84 13.5463 180.304 13.8002C180.767 14.0492 181.131 14.391 181.395 14.8256C181.663 15.2552 181.81 15.7435 181.834 16.2904H180.545C180.521 15.9633 180.428 15.6678 180.267 15.4042C180.111 15.1405 179.896 14.9305 179.622 14.7743C179.354 14.6132 179.039 14.5326 178.678 14.5326C178.263 14.5326 177.913 14.6156 177.63 14.7816C177.352 14.9427 177.13 15.1625 176.964 15.4408C176.803 15.7142 176.685 16.0194 176.612 16.3563C176.544 16.6884 176.51 17.0277 176.51 17.3744V17.682C176.51 18.0287 176.544 18.3705 176.612 18.7074C176.681 19.0443 176.795 19.3495 176.956 19.6229C177.122 19.8964 177.345 20.1161 177.623 20.2821C177.906 20.4432 178.258 20.5238 178.678 20.5238ZM184.72 10.2406V21.4906H183.358V10.2406H184.72ZM189.561 13.5658L186.104 17.2645L184.171 19.2714L184.061 17.8285L185.445 16.1732L187.906 13.5658H189.561ZM188.324 21.4906L185.496 17.7113L186.2 16.5028L189.92 21.4906H188.324ZM194.102 21.6371C193.551 21.6371 193.05 21.5443 192.601 21.3588C192.157 21.1683 191.773 20.9022 191.451 20.5604C191.134 20.2186 190.89 19.8134 190.719 19.3446C190.548 18.8759 190.462 18.3632 190.462 17.8065V17.4989C190.462 16.8544 190.557 16.2806 190.748 15.7777C190.938 15.2699 191.197 14.8402 191.524 14.4886C191.851 14.1371 192.223 13.871 192.638 13.6903C193.053 13.5096 193.482 13.4193 193.927 13.4193C194.493 13.4193 194.981 13.517 195.391 13.7123C195.807 13.9076 196.146 14.181 196.41 14.5326C196.673 14.8793 196.869 15.2894 196.995 15.7631C197.122 16.2318 197.186 16.7445 197.186 17.3011V17.9091H191.268V16.8031H195.831V16.7006C195.811 16.349 195.738 16.0072 195.611 15.6752C195.489 15.3431 195.294 15.0697 195.025 14.8549C194.757 14.64 194.39 14.5326 193.927 14.5326C193.619 14.5326 193.336 14.5985 193.077 14.7303C192.818 14.8573 192.596 15.0477 192.411 15.3016C192.225 15.5555 192.081 15.8656 191.978 16.2318C191.876 16.598 191.825 17.0204 191.825 17.4989V17.8065C191.825 18.1825 191.876 18.5365 191.978 18.8685C192.086 19.1957 192.24 19.4838 192.44 19.7328C192.645 19.9818 192.891 20.1771 193.18 20.3187C193.473 20.4603 193.805 20.5311 194.176 20.5311C194.654 20.5311 195.059 20.4335 195.391 20.2382C195.723 20.0428 196.014 19.7816 196.263 19.4545L197.083 20.1063C196.912 20.3651 196.695 20.6117 196.432 20.8461C196.168 21.0804 195.843 21.2709 195.457 21.4174C195.077 21.5638 194.625 21.6371 194.102 21.6371ZM202.086 13.5658V14.6058H197.801V13.5658H202.086ZM199.251 11.6395H200.606V19.5277C200.606 19.7963 200.648 19.9989 200.731 20.1356C200.814 20.2723 200.921 20.3627 201.053 20.4066C201.185 20.4506 201.327 20.4725 201.478 20.4725C201.59 20.4725 201.707 20.4628 201.829 20.4432C201.956 20.4188 202.052 20.3993 202.115 20.3846L202.122 21.4906C202.015 21.5248 201.873 21.5565 201.698 21.5858C201.527 21.62 201.319 21.6371 201.075 21.6371C200.743 21.6371 200.438 21.5712 200.16 21.4393C199.881 21.3075 199.659 21.0878 199.493 20.7802C199.332 20.4677 199.251 20.0477 199.251 19.5204V11.6395Z" fill="black"/>
</svg>
